<svg width="3085" height="1865" xmlns="http://www.w3.org/2000/svg" xmlns:xlink="http://www.w3.org/1999/xlink" overflow="hidden"><defs><clipPath id="clip0"><rect x="2355" y="137" width="3085" height="1865"/></clipPath><clipPath id="clip1"><rect x="2360" y="143" width="3075" height="1855"/></clipPath><clipPath id="clip2"><rect x="2675" y="319" width="2713" height="1321"/></clipPath><clipPath id="clip3"><rect x="2675" y="319" width="2713" height="1321"/></clipPath><clipPath id="clip4"><rect x="2675" y="319" width="2713" height="1321"/></clipPath><clipPath id="clip5"><rect x="2675" y="319" width="2713" height="1321"/></clipPath><clipPath id="clip6"><rect x="2675" y="319" width="2713" height="1321"/></clipPath><clipPath id="clip7"><rect x="2360" y="143" width="3075" height="1855"/></clipPath><clipPath id="clip8"><rect x="2360" y="143" width="3075" height="1855"/></clipPath><clipPath id="clip9"><rect x="2360" y="143" width="3075" height="1855"/></clipPath><clipPath id="clip10"><rect x="2360" y="143" width="3075" height="1855"/></clipPath><clipPath id="clip11"><rect x="2360" y="143" width="3075" height="1855"/></clipPath><clipPath id="clip12"><rect x="2360" y="143" width="3075" height="1855"/></clipPath><clipPath id="clip13"><rect x="2360" y="143" width="3075" height="1855"/></clipPath><clipPath id="clip14"><rect x="2360" y="143" width="3075" height="1855"/></clipPath><clipPath id="clip15"><rect x="2360" y="143" width="3075" height="1855"/></clipPath><clipPath id="clip16"><rect x="2360" y="143" width="3075" height="1855"/></clipPath><clipPath id="clip17"><rect x="2360" y="143" width="3075" height="1855"/></clipPath><clipPath id="clip18"><rect x="2360" y="143" width="3075" height="1855"/></clipPath><clipPath id="clip19"><rect x="2360" y="143" width="3075" height="1855"/></clipPath><clipPath id="clip20"><rect x="2360" y="143" width="3075" height="1855"/></clipPath><clipPath id="clip21"><rect x="2360" y="143" width="3075" height="1855"/></clipPath><clipPath id="clip22"><rect x="2360" y="143" width="3075" height="1855"/></clipPath><clipPath id="clip23"><rect x="2360" y="143" width="3075" height="1855"/></clipPath><clipPath id="clip24"><rect x="2360" y="143" width="3075" height="1855"/></clipPath><clipPath id="clip25"><rect x="2360" y="143" width="3075" height="1855"/></clipPath><clipPath id="clip26"><rect x="2360" y="143" width="3075" height="1855"/></clipPath><clipPath id="clip27"><rect x="2360" y="143" width="3075" height="1855"/></clipPath><clipPath id="clip28"><rect x="2360" y="143" width="3075" height="1855"/></clipPath><clipPath id="clip29"><rect x="2360" y="143" width="3075" height="1855"/></clipPath><clipPath id="clip30"><rect x="2360" y="143" width="3075" height="1855"/></clipPath><clipPath id="clip31"><rect x="2360" y="143" width="3075" height="1855"/></clipPath><clipPath id="clip32"><rect x="2360" y="143" width="3075" height="1855"/></clipPath><clipPath id="clip33"><rect x="2360" y="143" width="3075" height="1855"/></clipPath><clipPath id="clip34"><rect x="2360" y="143" width="3075" height="1855"/></clipPath><clipPath id="clip35"><rect x="2360" y="143" width="3075" height="1855"/></clipPath><clipPath id="clip36"><rect x="2360" y="143" width="3075" height="1855"/></clipPath><clipPath id="clip37"><rect x="2360" y="143" width="3075" height="1855"/></clipPath><clipPath id="clip38"><rect x="2360" y="143" width="3075" height="1855"/></clipPath></defs><g clip-path="url(#clip0)" transform="translate(-2355 -137)"><rect x="2361" y="143" width="3074" height="1855" fill="#FFFFFF" fill-opacity="1"/><g clip-path="url(#clip1)"><path d="M2675.5 1417.55 5384.5 1417.55M2675.5 1197.54 5384.5 1197.54M2675.5 977.532 5384.5 977.532M2675.5 758.525 5384.5 758.525M2675.5 538.518 5384.5 538.518M2675.5 319.5 5384.5 319.5" stroke="#D9D9D9" stroke-width="3.4375" stroke-linecap="butt" stroke-linejoin="round" stroke-miterlimit="10" stroke-opacity="1" fill="none" fill-rule="nonzero"/></g><g clip-path="url(#clip2)"><path d="M2694.09 1170.04 2744.09 1170.04 2744.09 1637 2694.09 1637ZM3033.1 1147.04 3083.1 1147.04 3083.1 1637 3033.1 1637ZM3371.11 1133.04 3421.11 1133.04 3421.11 1637 3371.11 1637ZM3710.12 1069.04 3760.12 1069.04 3760.12 1637 3710.12 1637ZM4049.13 1050.03 4099.13 1050.03 4099.13 1637 4049.13 1637ZM4387.14 996.033 4437.15 996.033 4437.15 1637 4387.14 1637ZM4726.15 869.029 4776.16 869.029 4776.16 1637 4726.15 1637ZM5065.17 755.025 5115.17 755.025 5115.17 1637 5065.17 1637Z" fill="#4472C4" fill-rule="nonzero" fill-opacity="1"/></g><g clip-path="url(#clip3)"><path d="M2757.09 1195.04 2807.09 1195.04 2807.09 1637 2757.09 1637ZM3095.1 1158.04 3145.1 1158.04 3145.1 1637 3095.1 1637ZM3434.11 1131.04 3484.11 1131.04 3484.11 1637 3434.11 1637ZM3773.12 1090.04 3823.13 1090.04 3823.13 1637 3773.12 1637ZM4111.13 1091.04 4161.14 1091.04 4161.14 1637 4111.13 1637ZM4450.15 1072.04 4500.15 1072.04 4500.15 1637 4450.15 1637ZM4789.16 711.023 4839.16 711.023 4839.16 1637 4789.16 1637ZM5127.17 499.016 5178.17 499.016 5178.17 1637 5127.17 1637Z" fill="#ED7D31" fill-rule="nonzero" fill-opacity="1"/></g><g clip-path="url(#clip4)"><path d="M2819.09 1230.04 2870.09 1230.04 2870.09 1637 2819.09 1637ZM3158.1 1200.04 3208.11 1200.04 3208.11 1637 3158.1 1637ZM3497.11 1078.04 3547.12 1078.04 3547.12 1637 3497.11 1637ZM3835.13 1112.04 3886.13 1112.04 3886.13 1637 3835.13 1637ZM4174.14 1064.03 4224.14 1064.03 4224.14 1637 4174.14 1637ZM4513.15 1039.03 4563.15 1039.03 4563.15 1637 4513.15 1637ZM4851.16 982.032 4902.16 982.032 4902.16 1637 4851.16 1637ZM5190.17 757.025 5240.17 757.025 5240.17 1637 5190.17 1637Z" fill="#A5A5A5" fill-rule="nonzero" fill-opacity="1"/></g><g clip-path="url(#clip5)"><path d="M2882.09 1194.04 2932.1 1194.04 2932.1 1637 2882.09 1637ZM3221.11 1129.04 3271.11 1129.04 3271.11 1637 3221.11 1637ZM3559.12 1132.04 3610.12 1132.04 3610.12 1637 3559.12 1637ZM3898.13 1105.04 3948.13 1105.04 3948.13 1637 3898.13 1637ZM4237.14 1073.04 4287.14 1073.04 4287.14 1637 4237.14 1637ZM4575.15 996.033 4626.15 996.033 4626.15 1637 4575.15 1637ZM4914.16 856.028 4964.16 856.028 4964.16 1637 4914.16 1637ZM5253.17 653.021 5303.17 653.021 5303.17 1637 5253.17 1637Z" fill="#FFC000" fill-rule="nonzero" fill-opacity="1"/></g><g clip-path="url(#clip6)"><path d="M2945.1 1067.04 2995.1 1067.04 2995.1 1637 2945.1 1637ZM3283.11 1105.04 3334.11 1105.04 3334.11 1637 3283.11 1637ZM3622.12 1101.04 3672.12 1101.04 3672.12 1637 3622.12 1637ZM3961.13 1104.04 4011.13 1104.04 4011.13 1637 3961.13 1637ZM4299.14 1055.03 4350.14 1055.03 4350.14 1637 4299.14 1637ZM4638.15 1002.03 4688.15 1002.03 4688.15 1637 4638.15 1637ZM4977.16 911.03 5027.17 911.03 5027.17 1637 4977.16 1637ZM5315.17 627.021 5366.18 627.021 5366.18 1637 5315.17 1637Z" fill="#5B9BD5" fill-rule="nonzero" fill-opacity="1"/></g><g clip-path="url(#clip7)"><path d="M2675.5 1636.5 5384.5 1636.5" stroke="#D9D9D9" stroke-width="3.4375" stroke-linecap="butt" stroke-linejoin="round" stroke-miterlimit="10" stroke-opacity="1" fill="none" fill-rule="evenodd"/></g><g clip-path="url(#clip8)"><path d="M2675.5 1619.5 2675.5 1654.5M3013.6 1619.5 3013.6 1654.5M3352.61 1619.5 3352.61 1654.5M3691.62 1619.5 3691.62 1654.5M4029.63 1619.5 4029.63 1654.5M4368.64 1619.5 4368.64 1654.5M4707.65 1619.5 4707.65 1654.5M5045.67 1619.5 5045.67 1654.5M5384.5 1619.5 5384.5 1654.5" stroke="#D9D9D9" stroke-width="3.4375" stroke-linecap="butt" stroke-linejoin="round" stroke-miterlimit="10" stroke-opacity="1" fill="none" fill-rule="nonzero"/></g><g clip-path="url(#clip9)"><text fill="#595959" fill-opacity="1" font-family="Calibri,Calibri_MSFontService,sans-serif" font-style="normal" font-variant="normal" font-weight="400" font-stretch="normal" font-size="55" text-anchor="start" direction="ltr" writing-mode="lr-tb" unicode-bidi="normal" text-decoration="none" transform="matrix(1 0 0 1 2498.96 1651)">0,000</text></g><g clip-path="url(#clip10)"><text fill="#595959" fill-opacity="1" font-family="Calibri,Calibri_MSFontService,sans-serif" font-style="normal" font-variant="normal" font-weight="400" font-stretch="normal" font-size="55" text-anchor="start" direction="ltr" writing-mode="lr-tb" unicode-bidi="normal" text-decoration="none" transform="matrix(1 0 0 1 2498.96 1431)">0,100</text></g><g clip-path="url(#clip11)"><text fill="#595959" fill-opacity="1" font-family="Calibri,Calibri_MSFontService,sans-serif" font-style="normal" font-variant="normal" font-weight="400" font-stretch="normal" font-size="55" text-anchor="start" direction="ltr" writing-mode="lr-tb" unicode-bidi="normal" text-decoration="none" transform="matrix(1 0 0 1 2498.96 1212)">0,200</text></g><g clip-path="url(#clip12)"><text fill="#595959" fill-opacity="1" font-family="Calibri,Calibri_MSFontService,sans-serif" font-style="normal" font-variant="normal" font-weight="400" font-stretch="normal" font-size="55" text-anchor="start" direction="ltr" writing-mode="lr-tb" unicode-bidi="normal" text-decoration="none" transform="matrix(1 0 0 1 2498.96 992)">0,300</text></g><g clip-path="url(#clip13)"><text fill="#595959" fill-opacity="1" font-family="Calibri,Calibri_MSFontService,sans-serif" font-style="normal" font-variant="normal" font-weight="400" font-stretch="normal" font-size="55" text-anchor="start" direction="ltr" writing-mode="lr-tb" unicode-bidi="normal" text-decoration="none" transform="matrix(1 0 0 1 2498.96 772)">0,400</text></g><g clip-path="url(#clip14)"><text fill="#595959" fill-opacity="1" font-family="Calibri,Calibri_MSFontService,sans-serif" font-style="normal" font-variant="normal" font-weight="400" font-stretch="normal" font-size="55" text-anchor="start" direction="ltr" writing-mode="lr-tb" unicode-bidi="normal" text-decoration="none" transform="matrix(1 0 0 1 2498.96 553)">0,500</text></g><g clip-path="url(#clip15)"><text fill="#595959" fill-opacity="1" font-family="Calibri,Calibri_MSFontService,sans-serif" font-style="normal" font-variant="normal" font-weight="400" font-stretch="normal" font-size="55" text-anchor="start" direction="ltr" writing-mode="lr-tb" unicode-bidi="normal" text-decoration="none" transform="matrix(1 0 0 1 2498.96 333)">0,600</text></g><g clip-path="url(#clip16)"><text fill="#595959" fill-opacity="1" font-family="Calibri,Calibri_MSFontService,sans-serif" font-style="normal" font-variant="normal" font-weight="400" font-stretch="normal" font-size="55" text-anchor="start" direction="ltr" writing-mode="lr-tb" unicode-bidi="normal" text-decoration="none" transform="matrix(1 0 0 1 2802.72 1724)">100</text></g><g clip-path="url(#clip17)"><text fill="#595959" fill-opacity="1" font-family="Calibri,Calibri_MSFontService,sans-serif" font-style="normal" font-variant="normal" font-weight="400" font-stretch="normal" font-size="55" text-anchor="start" direction="ltr" writing-mode="lr-tb" unicode-bidi="normal" text-decoration="none" transform="matrix(1 0 0 1 3141.4 1724)">500</text></g><g clip-path="url(#clip18)"><text fill="#595959" fill-opacity="1" font-family="Calibri,Calibri_MSFontService,sans-serif" font-style="normal" font-variant="normal" font-weight="400" font-stretch="normal" font-size="55" text-anchor="start" direction="ltr" writing-mode="lr-tb" unicode-bidi="normal" text-decoration="none" transform="matrix(1 0 0 1 3466.15 1724)">1000</text></g><g clip-path="url(#clip19)"><text fill="#595959" fill-opacity="1" font-family="Calibri,Calibri_MSFontService,sans-serif" font-style="normal" font-variant="normal" font-weight="400" font-stretch="normal" font-size="55" text-anchor="start" direction="ltr" writing-mode="lr-tb" unicode-bidi="normal" text-decoration="none" transform="matrix(1 0 0 1 3804.84 1724)">5000</text></g><g clip-path="url(#clip20)"><text fill="#595959" fill-opacity="1" font-family="Calibri,Calibri_MSFontService,sans-serif" font-style="normal" font-variant="normal" font-weight="400" font-stretch="normal" font-size="55" text-anchor="start" direction="ltr" writing-mode="lr-tb" unicode-bidi="normal" text-decoration="none" transform="matrix(1 0 0 1 4129.59 1724)">10000</text></g><g clip-path="url(#clip21)"><text fill="#595959" fill-opacity="1" font-family="Calibri,Calibri_MSFontService,sans-serif" font-style="normal" font-variant="normal" font-weight="400" font-stretch="normal" font-size="55" text-anchor="start" direction="ltr" writing-mode="lr-tb" unicode-bidi="normal" text-decoration="none" transform="matrix(1 0 0 1 4468.27 1724)">50000</text></g><g clip-path="url(#clip22)"><text fill="#595959" fill-opacity="1" font-family="Calibri,Calibri_MSFontService,sans-serif" font-style="normal" font-variant="normal" font-weight="400" font-stretch="normal" font-size="55" text-anchor="start" direction="ltr" writing-mode="lr-tb" unicode-bidi="normal" text-decoration="none" transform="matrix(1 0 0 1 4793.02 1724)">100000</text></g><g clip-path="url(#clip23)"><text fill="#595959" fill-opacity="1" font-family="Calibri,Calibri_MSFontService,sans-serif" font-style="normal" font-variant="normal" font-weight="400" font-stretch="normal" font-size="55" text-anchor="start" direction="ltr" writing-mode="lr-tb" unicode-bidi="normal" text-decoration="none" transform="matrix(1 0 0 1 5131.71 1724)">200000</text></g><g clip-path="url(#clip24)"><text fill="#595959" fill-opacity="1" font-family="Calibri,Calibri_MSFontService,sans-serif" font-style="normal" font-variant="normal" font-weight="400" font-stretch="normal" font-size="55" text-anchor="start" direction="ltr" writing-mode="lr-tb" unicode-bidi="normal" text-decoration="none" transform="matrix(6.12323e-17 -1 1 6.12323e-17 2442.71 1412)">Tempo de execução em segundos</text></g><g clip-path="url(#clip25)"><text fill="#595959" fill-opacity="1" font-family="Calibri,Calibri_MSFontService,sans-serif" font-style="normal" font-variant="normal" font-weight="400" font-stretch="normal" font-size="55" text-anchor="start" direction="ltr" writing-mode="lr-tb" unicode-bidi="normal" text-decoration="none" transform="matrix(1 0 0 1 3557.62 1812)">Tamanho do arquivo de entrada</text></g><g clip-path="url(#clip26)"><text fill="#595959" fill-opacity="1" font-family="Calibri,Calibri_MSFontService,sans-serif" font-style="normal" font-variant="normal" font-weight="700" font-stretch="normal" font-size="64" text-anchor="start" direction="ltr" writing-mode="lr-tb" unicode-bidi="normal" text-decoration="none" transform="matrix(1 0 0 1 3337.75 239)">Tempo de Execução </text></g><g clip-path="url(#clip27)"><text fill="#595959" fill-opacity="1" font-family="Calibri,Calibri_MSFontService,sans-serif" font-style="normal" font-variant="normal" font-weight="700" font-stretch="normal" font-size="64" text-anchor="start" direction="ltr" writing-mode="lr-tb" unicode-bidi="normal" text-decoration="none" transform="matrix(1 0 0 1 3873.22 239)">-</text></g><g clip-path="url(#clip28)"><text fill="#595959" fill-opacity="1" font-family="Calibri,Calibri_MSFontService,sans-serif" font-style="normal" font-variant="normal" font-weight="700" font-stretch="normal" font-size="64" text-anchor="start" direction="ltr" writing-mode="lr-tb" unicode-bidi="normal" text-decoration="none" transform="matrix(1 0 0 1 3907.36 239)">Arquivo Decrescente</text></g><g clip-path="url(#clip29)"><rect x="2977" y="1909" width="31.0002" height="30.0002" fill="#4472C4" fill-opacity="1"/></g><g clip-path="url(#clip30)"><text fill="#595959" fill-opacity="1" font-family="Calibri,Calibri_MSFontService,sans-serif" font-style="normal" font-variant="normal" font-weight="400" font-stretch="normal" font-size="55" text-anchor="start" direction="ltr" writing-mode="lr-tb" unicode-bidi="normal" text-decoration="none" transform="matrix(1 0 0 1 3020.94 1938)">Insertion Sort</text></g><g clip-path="url(#clip31)"><rect x="3397" y="1909" width="30" height="30.0002" fill="#ED7D31" fill-opacity="1"/></g><g clip-path="url(#clip32)"><text fill="#595959" fill-opacity="1" font-family="Calibri,Calibri_MSFontService,sans-serif" font-style="normal" font-variant="normal" font-weight="400" font-stretch="normal" font-size="55" text-anchor="start" direction="ltr" writing-mode="lr-tb" unicode-bidi="normal" text-decoration="none" transform="matrix(1 0 0 1 3440.72 1938)">Heap Sort</text></g><g clip-path="url(#clip33)"><rect x="3734" y="1909" width="30" height="30.0002" fill="#A5A5A5" fill-opacity="1"/></g><g clip-path="url(#clip34)"><text fill="#595959" fill-opacity="1" font-family="Calibri,Calibri_MSFontService,sans-serif" font-style="normal" font-variant="normal" font-weight="400" font-stretch="normal" font-size="55" text-anchor="start" direction="ltr" writing-mode="lr-tb" unicode-bidi="normal" text-decoration="none" transform="matrix(1 0 0 1 3777.59 1938)">Quick Sort</text></g><g clip-path="url(#clip35)"><rect x="4081" y="1909" width="30" height="30.0002" fill="#FFC000" fill-opacity="1"/></g><g clip-path="url(#clip36)"><text fill="#595959" fill-opacity="1" font-family="Calibri,Calibri_MSFontService,sans-serif" font-style="normal" font-variant="normal" font-weight="400" font-stretch="normal" font-size="55" text-anchor="start" direction="ltr" writing-mode="lr-tb" unicode-bidi="normal" text-decoration="none" transform="matrix(1 0 0 1 4124.38 1938)">Quick Sort Melhorado</text></g><g clip-path="url(#clip37)"><rect x="4688" y="1909" width="31" height="30.0002" fill="#5B9BD5" fill-opacity="1"/></g><g clip-path="url(#clip38)"><text fill="#595959" fill-opacity="1" font-family="Calibri,Calibri_MSFontService,sans-serif" font-style="normal" font-variant="normal" font-weight="400" font-stretch="normal" font-size="55" text-anchor="start" direction="ltr" writing-mode="lr-tb" unicode-bidi="normal" text-decoration="none" transform="matrix(1 0 0 1 4731.98 1938)">Shell</text></g><rect x="2361.5" y="143.5" width="3074" height="1855" stroke="#D9D9D9" stroke-width="3.4375" stroke-linecap="butt" stroke-linejoin="round" stroke-miterlimit="10" stroke-opacity="1" fill="none"/></g></svg>