<svg width="3071" height="1865" xmlns="http://www.w3.org/2000/svg" xmlns:xlink="http://www.w3.org/1999/xlink" overflow="hidden"><defs><clipPath id="clip0"><rect x="2360" y="137" width="3071" height="1865"/></clipPath><clipPath id="clip1"><rect x="2361" y="143" width="3065" height="1856"/></clipPath><clipPath id="clip2"><rect x="2634" y="319" width="2745" height="1322"/></clipPath><clipPath id="clip3"><rect x="2634" y="319" width="2745" height="1322"/></clipPath><clipPath id="clip4"><rect x="2634" y="319" width="2745" height="1322"/></clipPath><clipPath id="clip5"><rect x="2634" y="319" width="2745" height="1322"/></clipPath><clipPath id="clip6"><rect x="2634" y="319" width="2745" height="1322"/></clipPath><clipPath id="clip7"><rect x="2361" y="143" width="3065" height="1856"/></clipPath><clipPath id="clip8"><rect x="2361" y="143" width="3065" height="1856"/></clipPath><clipPath id="clip9"><rect x="2361" y="143" width="3065" height="1856"/></clipPath><clipPath id="clip10"><rect x="2361" y="143" width="3065" height="1856"/></clipPath><clipPath id="clip11"><rect x="2361" y="143" width="3065" height="1856"/></clipPath><clipPath id="clip12"><rect x="2361" y="143" width="3065" height="1856"/></clipPath><clipPath id="clip13"><rect x="2361" y="143" width="3065" height="1856"/></clipPath><clipPath id="clip14"><rect x="2361" y="143" width="3065" height="1856"/></clipPath><clipPath id="clip15"><rect x="2361" y="143" width="3065" height="1856"/></clipPath><clipPath id="clip16"><rect x="2361" y="143" width="3065" height="1856"/></clipPath><clipPath id="clip17"><rect x="2361" y="143" width="3065" height="1856"/></clipPath><clipPath id="clip18"><rect x="2361" y="143" width="3065" height="1856"/></clipPath><clipPath id="clip19"><rect x="2361" y="143" width="3065" height="1856"/></clipPath><clipPath id="clip20"><rect x="2361" y="143" width="3065" height="1856"/></clipPath><clipPath id="clip21"><rect x="2361" y="143" width="3065" height="1856"/></clipPath><clipPath id="clip22"><rect x="2361" y="143" width="3065" height="1856"/></clipPath><clipPath id="clip23"><rect x="2361" y="143" width="3065" height="1856"/></clipPath><clipPath id="clip24"><rect x="2361" y="143" width="3065" height="1856"/></clipPath><clipPath id="clip25"><rect x="2361" y="143" width="3065" height="1856"/></clipPath><clipPath id="clip26"><rect x="2361" y="143" width="3065" height="1856"/></clipPath><clipPath id="clip27"><rect x="2361" y="143" width="3065" height="1856"/></clipPath><clipPath id="clip28"><rect x="2361" y="143" width="3065" height="1856"/></clipPath><clipPath id="clip29"><rect x="2361" y="143" width="3065" height="1856"/></clipPath><clipPath id="clip30"><rect x="2361" y="143" width="3065" height="1856"/></clipPath><clipPath id="clip31"><rect x="2361" y="143" width="3065" height="1856"/></clipPath><clipPath id="clip32"><rect x="2361" y="143" width="3065" height="1856"/></clipPath><clipPath id="clip33"><rect x="2361" y="143" width="3065" height="1856"/></clipPath><clipPath id="clip34"><rect x="2361" y="143" width="3065" height="1856"/></clipPath><clipPath id="clip35"><rect x="2361" y="143" width="3065" height="1856"/></clipPath><clipPath id="clip36"><rect x="2361" y="143" width="3065" height="1856"/></clipPath><clipPath id="clip37"><rect x="2361" y="143" width="3065" height="1856"/></clipPath><clipPath id="clip38"><rect x="2361" y="143" width="3065" height="1856"/></clipPath><clipPath id="clip39"><rect x="2361" y="143" width="3065" height="1856"/></clipPath></defs><g clip-path="url(#clip0)" transform="translate(-2360 -137)"><rect x="2362" y="143" width="3065" height="1856" fill="#FFFFFF" fill-opacity="1"/><g clip-path="url(#clip1)"><path d="M2634.5 1449.55 5376.5 1449.55M2634.5 1260.54 5376.5 1260.54M2634.5 1072.54 5376.5 1072.54M2634.5 884.529 5376.5 884.529M2634.5 695.523 5376.5 695.523M2634.5 507.517 5376.5 507.517M2634.5 319.5 5376.5 319.5" stroke="#D9D9D9" stroke-width="3.4375" stroke-linecap="butt" stroke-linejoin="round" stroke-miterlimit="10" stroke-opacity="1" fill="none" fill-rule="nonzero"/></g><g clip-path="url(#clip2)"><path d="M2653.09 1637 2704.09 1637 2704.09 1638 2653.09 1638ZM2996.1 1637 3047.1 1637 3047.1 1638 2996.1 1638ZM3339.11 1637.05 3390.11 1637.05 3390.11 1638 3339.11 1638ZM3682.12 1636.05 3732.12 1636.05 3732.12 1638 3682.12 1638ZM4024.13 1634.05 4075.13 1634.05 4075.13 1638 4024.13 1638ZM4367.14 1564.05 4418.15 1564.05 4418.15 1638 4367.14 1638ZM4710.15 1344.04 4761.16 1344.04 4761.16 1638 4710.15 1638ZM5053.17 470.015 5103.17 470.015 5103.17 1638 5053.17 1638Z" fill="#4472C4" fill-rule="nonzero" fill-opacity="1"/></g><g clip-path="url(#clip3)"><path d="M2717.09 1637 2768.09 1637 2768.09 1638 2717.09 1638ZM3060.1 1637 3110.1 1637 3110.1 1638 3060.1 1638ZM3402.11 1637 3453.11 1637 3453.11 1638 3402.11 1638ZM3745.12 1637 3796.12 1637 3796.12 1638 3745.12 1638ZM4088.13 1636.05 4139.14 1636.05 4139.14 1638 4088.13 1638ZM4431.15 1636.05 4481.15 1636.05 4481.15 1638 4431.15 1638ZM4773.16 1636.05 4824.16 1636.05 4824.16 1638 4773.16 1638ZM5116.17 1636.05 5167.17 1636.05 5167.17 1638 5116.17 1638Z" fill="#ED7D31" fill-rule="nonzero" fill-opacity="1"/></g><g clip-path="url(#clip4)"><path d="M2780.09 1637 2831.09 1637 2831.09 1638 2780.09 1638ZM3123.1 1637 3174.1 1637 3174.1 1638 3123.1 1638ZM3466.11 1637 3517.12 1637 3517.12 1638 3466.11 1638ZM3809.12 1637 3859.13 1637 3859.13 1638 3809.12 1638ZM4151.14 1637.05 4202.14 1637.05 4202.14 1638 4151.14 1638ZM4494.15 1637 4545.15 1637 4545.15 1638 4494.15 1638ZM4837.16 1636.05 4888.16 1636.05 4888.16 1638 4837.16 1638ZM5179.17 1636.05 5230.17 1636.05 5230.17 1638 5179.17 1638Z" fill="#A5A5A5" fill-rule="nonzero" fill-opacity="1"/></g><g clip-path="url(#clip5)"><path d="M2844.09 1637 2895.09 1637 2895.09 1638 2844.09 1638ZM3187.1 1637 3237.11 1637 3237.11 1638 3187.1 1638ZM3529.12 1637 3580.12 1637 3580.12 1638 3529.12 1638ZM3872.13 1637 3923.13 1637 3923.13 1638 3872.13 1638ZM4215.14 1637 4266.14 1637 4266.14 1638 4215.14 1638ZM4557.15 1636.05 4608.15 1636.05 4608.15 1638 4557.15 1638ZM4900.16 1636.05 4951.16 1636.05 4951.16 1638 4900.16 1638ZM5243.17 1636.05 5294.17 1636.05 5294.17 1638 5243.17 1638Z" fill="#FFC000" fill-rule="nonzero" fill-opacity="1"/></g><g clip-path="url(#clip6)"><path d="M2907.1 1637 2958.1 1637 2958.1 1638 2907.1 1638ZM3250.11 1637 3301.11 1637 3301.11 1638 3250.11 1638ZM3593.12 1637 3644.12 1637 3644.12 1638 3593.12 1638ZM3936.13 1637.05 3986.13 1637.05 3986.13 1638 3936.13 1638ZM4278.14 1637.05 4329.14 1637.05 4329.14 1638 4278.14 1638ZM4621.15 1636.05 4672.15 1636.05 4672.15 1638 4621.15 1638ZM4964.16 1636.05 5014.16 1636.05 5014.16 1638 4964.16 1638ZM5306.17 1636.05 5357.18 1636.05 5357.18 1638 5306.17 1638Z" fill="#5B9BD5" fill-rule="nonzero" fill-opacity="1"/></g><g clip-path="url(#clip7)"><path d="M2634.5 1637.5 5376.5 1637.5" stroke="#D9D9D9" stroke-width="3.4375" stroke-linecap="butt" stroke-linejoin="round" stroke-miterlimit="10" stroke-opacity="1" fill="none" fill-rule="evenodd"/></g><g clip-path="url(#clip8)"><path d="M2634.5 1620.5 2634.5 1655.5M2977.6 1620.5 2977.6 1655.5M3319.61 1620.5 3319.61 1655.5M3662.62 1620.5 3662.62 1655.5M4005.63 1620.5 4005.63 1655.5M4348.64 1620.5 4348.64 1655.5M4690.65 1620.5 4690.65 1655.5M5033.67 1620.5 5033.67 1655.5M5376.5 1620.5 5376.5 1655.5" stroke="#D9D9D9" stroke-width="3.4375" stroke-linecap="butt" stroke-linejoin="round" stroke-miterlimit="10" stroke-opacity="1" fill="none" fill-rule="nonzero"/></g><g clip-path="url(#clip9)"><text fill="#595959" fill-opacity="1" font-family="Calibri,Calibri_MSFontService,sans-serif" font-style="normal" font-variant="normal" font-weight="400" font-stretch="normal" font-size="55" text-anchor="start" direction="ltr" writing-mode="lr-tb" unicode-bidi="normal" text-decoration="none" transform="matrix(1 0 0 1 2555.61 1652)">0</text></g><g clip-path="url(#clip10)"><text fill="#595959" fill-opacity="1" font-family="Calibri,Calibri_MSFontService,sans-serif" font-style="normal" font-variant="normal" font-weight="400" font-stretch="normal" font-size="55" text-anchor="start" direction="ltr" writing-mode="lr-tb" unicode-bidi="normal" text-decoration="none" transform="matrix(1 0 0 1 2527.75 1463)">50</text></g><g clip-path="url(#clip11)"><text fill="#595959" fill-opacity="1" font-family="Calibri,Calibri_MSFontService,sans-serif" font-style="normal" font-variant="normal" font-weight="400" font-stretch="normal" font-size="55" text-anchor="start" direction="ltr" writing-mode="lr-tb" unicode-bidi="normal" text-decoration="none" transform="matrix(1 0 0 1 2499.88 1275)">100</text></g><g clip-path="url(#clip12)"><text fill="#595959" fill-opacity="1" font-family="Calibri,Calibri_MSFontService,sans-serif" font-style="normal" font-variant="normal" font-weight="400" font-stretch="normal" font-size="55" text-anchor="start" direction="ltr" writing-mode="lr-tb" unicode-bidi="normal" text-decoration="none" transform="matrix(1 0 0 1 2499.88 1087)">150</text></g><g clip-path="url(#clip13)"><text fill="#595959" fill-opacity="1" font-family="Calibri,Calibri_MSFontService,sans-serif" font-style="normal" font-variant="normal" font-weight="400" font-stretch="normal" font-size="55" text-anchor="start" direction="ltr" writing-mode="lr-tb" unicode-bidi="normal" text-decoration="none" transform="matrix(1 0 0 1 2499.88 898)">200</text></g><g clip-path="url(#clip14)"><text fill="#595959" fill-opacity="1" font-family="Calibri,Calibri_MSFontService,sans-serif" font-style="normal" font-variant="normal" font-weight="400" font-stretch="normal" font-size="55" text-anchor="start" direction="ltr" writing-mode="lr-tb" unicode-bidi="normal" text-decoration="none" transform="matrix(1 0 0 1 2499.88 710)">250</text></g><g clip-path="url(#clip15)"><text fill="#595959" fill-opacity="1" font-family="Calibri,Calibri_MSFontService,sans-serif" font-style="normal" font-variant="normal" font-weight="400" font-stretch="normal" font-size="55" text-anchor="start" direction="ltr" writing-mode="lr-tb" unicode-bidi="normal" text-decoration="none" transform="matrix(1 0 0 1 2499.88 522)">300</text></g><g clip-path="url(#clip16)"><text fill="#595959" fill-opacity="1" font-family="Calibri,Calibri_MSFontService,sans-serif" font-style="normal" font-variant="normal" font-weight="400" font-stretch="normal" font-size="55" text-anchor="start" direction="ltr" writing-mode="lr-tb" unicode-bidi="normal" text-decoration="none" transform="matrix(1 0 0 1 2499.88 333)">350</text></g><g clip-path="url(#clip17)"><text fill="#595959" fill-opacity="1" font-family="Calibri,Calibri_MSFontService,sans-serif" font-style="normal" font-variant="normal" font-weight="400" font-stretch="normal" font-size="55" text-anchor="start" direction="ltr" writing-mode="lr-tb" unicode-bidi="normal" text-decoration="none" transform="matrix(1 0 0 1 2764.06 1725)">100</text></g><g clip-path="url(#clip18)"><text fill="#595959" fill-opacity="1" font-family="Calibri,Calibri_MSFontService,sans-serif" font-style="normal" font-variant="normal" font-weight="400" font-stretch="normal" font-size="55" text-anchor="start" direction="ltr" writing-mode="lr-tb" unicode-bidi="normal" text-decoration="none" transform="matrix(1 0 0 1 3106.8 1725)">500</text></g><g clip-path="url(#clip19)"><text fill="#595959" fill-opacity="1" font-family="Calibri,Calibri_MSFontService,sans-serif" font-style="normal" font-variant="normal" font-weight="400" font-stretch="normal" font-size="55" text-anchor="start" direction="ltr" writing-mode="lr-tb" unicode-bidi="normal" text-decoration="none" transform="matrix(1 0 0 1 3435.61 1725)">1000</text></g><g clip-path="url(#clip20)"><text fill="#595959" fill-opacity="1" font-family="Calibri,Calibri_MSFontService,sans-serif" font-style="normal" font-variant="normal" font-weight="400" font-stretch="normal" font-size="55" text-anchor="start" direction="ltr" writing-mode="lr-tb" unicode-bidi="normal" text-decoration="none" transform="matrix(1 0 0 1 3778.35 1725)">5000</text></g><g clip-path="url(#clip21)"><text fill="#595959" fill-opacity="1" font-family="Calibri,Calibri_MSFontService,sans-serif" font-style="normal" font-variant="normal" font-weight="400" font-stretch="normal" font-size="55" text-anchor="start" direction="ltr" writing-mode="lr-tb" unicode-bidi="normal" text-decoration="none" transform="matrix(1 0 0 1 4107.15 1725)">10000</text></g><g clip-path="url(#clip22)"><text fill="#595959" fill-opacity="1" font-family="Calibri,Calibri_MSFontService,sans-serif" font-style="normal" font-variant="normal" font-weight="400" font-stretch="normal" font-size="55" text-anchor="start" direction="ltr" writing-mode="lr-tb" unicode-bidi="normal" text-decoration="none" transform="matrix(1 0 0 1 4449.89 1725)">50000</text></g><g clip-path="url(#clip23)"><text fill="#595959" fill-opacity="1" font-family="Calibri,Calibri_MSFontService,sans-serif" font-style="normal" font-variant="normal" font-weight="400" font-stretch="normal" font-size="55" text-anchor="start" direction="ltr" writing-mode="lr-tb" unicode-bidi="normal" text-decoration="none" transform="matrix(1 0 0 1 4778.69 1725)">100000</text></g><g clip-path="url(#clip24)"><text fill="#595959" fill-opacity="1" font-family="Calibri,Calibri_MSFontService,sans-serif" font-style="normal" font-variant="normal" font-weight="400" font-stretch="normal" font-size="55" text-anchor="start" direction="ltr" writing-mode="lr-tb" unicode-bidi="normal" text-decoration="none" transform="matrix(1 0 0 1 5121.43 1725)">200000</text></g><g clip-path="url(#clip25)"><text fill="#595959" fill-opacity="1" font-family="Calibri,Calibri_MSFontService,sans-serif" font-style="normal" font-variant="normal" font-weight="400" font-stretch="normal" font-size="55" text-anchor="start" direction="ltr" writing-mode="lr-tb" unicode-bidi="normal" text-decoration="none" transform="matrix(6.12323e-17 -1 1 6.12323e-17 2443.56 1413)">Tempo de execução em segundos</text></g><g clip-path="url(#clip26)"><text fill="#595959" fill-opacity="1" font-family="Calibri,Calibri_MSFontService,sans-serif" font-style="normal" font-variant="normal" font-weight="400" font-stretch="normal" font-size="55" text-anchor="start" direction="ltr" writing-mode="lr-tb" unicode-bidi="normal" text-decoration="none" transform="matrix(1 0 0 1 3555.01 1813)">Tamanho do arquivo de entrada</text></g><g clip-path="url(#clip27)"><text fill="#595959" fill-opacity="1" font-family="Calibri,Calibri_MSFontService,sans-serif" font-style="normal" font-variant="normal" font-weight="700" font-stretch="normal" font-size="64" text-anchor="start" direction="ltr" writing-mode="lr-tb" unicode-bidi="normal" text-decoration="none" transform="matrix(1 0 0 1 3366.91 239)">Tempo de Execução </text></g><g clip-path="url(#clip28)"><text fill="#595959" fill-opacity="1" font-family="Calibri,Calibri_MSFontService,sans-serif" font-style="normal" font-variant="normal" font-weight="700" font-stretch="normal" font-size="64" text-anchor="start" direction="ltr" writing-mode="lr-tb" unicode-bidi="normal" text-decoration="none" transform="matrix(1 0 0 1 3902.38 239)">-</text></g><g clip-path="url(#clip29)"><text fill="#595959" fill-opacity="1" font-family="Calibri,Calibri_MSFontService,sans-serif" font-style="normal" font-variant="normal" font-weight="700" font-stretch="normal" font-size="64" text-anchor="start" direction="ltr" writing-mode="lr-tb" unicode-bidi="normal" text-decoration="none" transform="matrix(1 0 0 1 3936.52 239)">Arquivo Crescente</text></g><g clip-path="url(#clip30)"><rect x="2974" y="1910" width="30" height="30.0002" fill="#4472C4" fill-opacity="1"/></g><g clip-path="url(#clip31)"><text fill="#595959" fill-opacity="1" font-family="Calibri,Calibri_MSFontService,sans-serif" font-style="normal" font-variant="normal" font-weight="400" font-stretch="normal" font-size="55" text-anchor="start" direction="ltr" writing-mode="lr-tb" unicode-bidi="normal" text-decoration="none" transform="matrix(1 0 0 1 3017.27 1939)">Insertion Sort</text></g><g clip-path="url(#clip32)"><rect x="3393" y="1910" width="31" height="30.0002" fill="#ED7D31" fill-opacity="1"/></g><g clip-path="url(#clip33)"><text fill="#595959" fill-opacity="1" font-family="Calibri,Calibri_MSFontService,sans-serif" font-style="normal" font-variant="normal" font-weight="400" font-stretch="normal" font-size="55" text-anchor="start" direction="ltr" writing-mode="lr-tb" unicode-bidi="normal" text-decoration="none" transform="matrix(1 0 0 1 3437.05 1939)">Heap Sort</text></g><g clip-path="url(#clip34)"><rect x="3730" y="1910" width="31" height="30.0002" fill="#A5A5A5" fill-opacity="1"/></g><g clip-path="url(#clip35)"><text fill="#595959" fill-opacity="1" font-family="Calibri,Calibri_MSFontService,sans-serif" font-style="normal" font-variant="normal" font-weight="400" font-stretch="normal" font-size="55" text-anchor="start" direction="ltr" writing-mode="lr-tb" unicode-bidi="normal" text-decoration="none" transform="matrix(1 0 0 1 3773.92 1939)">Quick Sort</text></g><g clip-path="url(#clip36)"><rect x="4077" y="1910" width="30.0002" height="30.0002" fill="#FFC000" fill-opacity="1"/></g><g clip-path="url(#clip37)"><text fill="#595959" fill-opacity="1" font-family="Calibri,Calibri_MSFontService,sans-serif" font-style="normal" font-variant="normal" font-weight="400" font-stretch="normal" font-size="55" text-anchor="start" direction="ltr" writing-mode="lr-tb" unicode-bidi="normal" text-decoration="none" transform="matrix(1 0 0 1 4120.71 1939)">Quick Sort Melhorado</text></g><g clip-path="url(#clip38)"><rect x="4685" y="1910" width="30" height="30.0002" fill="#5B9BD5" fill-opacity="1"/></g><g clip-path="url(#clip39)"><text fill="#595959" fill-opacity="1" font-family="Calibri,Calibri_MSFontService,sans-serif" font-style="normal" font-variant="normal" font-weight="400" font-stretch="normal" font-size="55" text-anchor="start" direction="ltr" writing-mode="lr-tb" unicode-bidi="normal" text-decoration="none" transform="matrix(1 0 0 1 4728.32 1939)">Shell</text></g><rect x="2362.5" y="143.5" width="3065" height="1856" stroke="#D9D9D9" stroke-width="3.4375" stroke-linecap="butt" stroke-linejoin="round" stroke-miterlimit="10" stroke-opacity="1" fill="none"/></g></svg>