<svg width="3085" height="1865" xmlns="http://www.w3.org/2000/svg" xmlns:xlink="http://www.w3.org/1999/xlink" overflow="hidden"><defs><clipPath id="clip0"><rect x="2355" y="137" width="3085" height="1865"/></clipPath><clipPath id="clip1"><rect x="2360" y="143" width="3075" height="1855"/></clipPath><clipPath id="clip2"><rect x="2633" y="319" width="2755" height="1321"/></clipPath><clipPath id="clip3"><rect x="2633" y="319" width="2755" height="1321"/></clipPath><clipPath id="clip4"><rect x="2633" y="319" width="2755" height="1321"/></clipPath><clipPath id="clip5"><rect x="2633" y="319" width="2755" height="1321"/></clipPath><clipPath id="clip6"><rect x="2633" y="319" width="2755" height="1321"/></clipPath><clipPath id="clip7"><rect x="2360" y="143" width="3075" height="1855"/></clipPath><clipPath id="clip8"><rect x="2360" y="143" width="3075" height="1855"/></clipPath><clipPath id="clip9"><rect x="2360" y="143" width="3075" height="1855"/></clipPath><clipPath id="clip10"><rect x="2360" y="143" width="3075" height="1855"/></clipPath><clipPath id="clip11"><rect x="2360" y="143" width="3075" height="1855"/></clipPath><clipPath id="clip12"><rect x="2360" y="143" width="3075" height="1855"/></clipPath><clipPath id="clip13"><rect x="2360" y="143" width="3075" height="1855"/></clipPath><clipPath id="clip14"><rect x="2360" y="143" width="3075" height="1855"/></clipPath><clipPath id="clip15"><rect x="2360" y="143" width="3075" height="1855"/></clipPath><clipPath id="clip16"><rect x="2360" y="143" width="3075" height="1855"/></clipPath><clipPath id="clip17"><rect x="2360" y="143" width="3075" height="1855"/></clipPath><clipPath id="clip18"><rect x="2360" y="143" width="3075" height="1855"/></clipPath><clipPath id="clip19"><rect x="2360" y="143" width="3075" height="1855"/></clipPath><clipPath id="clip20"><rect x="2360" y="143" width="3075" height="1855"/></clipPath><clipPath id="clip21"><rect x="2360" y="143" width="3075" height="1855"/></clipPath><clipPath id="clip22"><rect x="2360" y="143" width="3075" height="1855"/></clipPath><clipPath id="clip23"><rect x="2360" y="143" width="3075" height="1855"/></clipPath><clipPath id="clip24"><rect x="2360" y="143" width="3075" height="1855"/></clipPath><clipPath id="clip25"><rect x="2360" y="143" width="3075" height="1855"/></clipPath><clipPath id="clip26"><rect x="2360" y="143" width="3075" height="1855"/></clipPath><clipPath id="clip27"><rect x="2360" y="143" width="3075" height="1855"/></clipPath><clipPath id="clip28"><rect x="2360" y="143" width="3075" height="1855"/></clipPath><clipPath id="clip29"><rect x="2360" y="143" width="3075" height="1855"/></clipPath><clipPath id="clip30"><rect x="2360" y="143" width="3075" height="1855"/></clipPath><clipPath id="clip31"><rect x="2360" y="143" width="3075" height="1855"/></clipPath><clipPath id="clip32"><rect x="2360" y="143" width="3075" height="1855"/></clipPath><clipPath id="clip33"><rect x="2360" y="143" width="3075" height="1855"/></clipPath><clipPath id="clip34"><rect x="2360" y="143" width="3075" height="1855"/></clipPath><clipPath id="clip35"><rect x="2360" y="143" width="3075" height="1855"/></clipPath><clipPath id="clip36"><rect x="2360" y="143" width="3075" height="1855"/></clipPath><clipPath id="clip37"><rect x="2360" y="143" width="3075" height="1855"/></clipPath><clipPath id="clip38"><rect x="2360" y="143" width="3075" height="1855"/></clipPath><clipPath id="clip39"><rect x="2360" y="143" width="3075" height="1855"/></clipPath><clipPath id="clip40"><rect x="2360" y="143" width="3075" height="1855"/></clipPath><clipPath id="clip41"><rect x="2360" y="143" width="3075" height="1855"/></clipPath></defs><g clip-path="url(#clip0)" transform="translate(-2355 -137)"><rect x="2361" y="143" width="3074" height="1855" fill="#FFFFFF" fill-opacity="1"/><g clip-path="url(#clip1)"><path d="M2633.5 1490.55 5384.5 1490.55M2633.5 1343.54 5384.5 1343.54M2633.5 1197.54 5384.5 1197.54M2633.5 1051.53 5384.5 1051.53M2633.5 904.53 5384.5 904.53M2633.5 758.525 5384.5 758.525M2633.5 612.52 5384.5 612.52M2633.5 465.515 5384.5 465.515M2633.5 319.5 5384.5 319.5" stroke="#D9D9D9" stroke-width="3.4375" stroke-linecap="butt" stroke-linejoin="round" stroke-miterlimit="10" stroke-opacity="1" fill="none" fill-rule="nonzero"/></g><g clip-path="url(#clip2)"><path d="M2653.09 1635.05 2704.09 1635.05 2704.09 1637 2653.09 1637ZM2996.1 1635.05 3047.1 1635.05 3047.1 1637 2996.1 1637ZM3340.11 1635.05 3391.11 1635.05 3391.11 1637 3340.11 1637ZM3684.12 1634.05 3735.12 1634.05 3735.12 1637 3684.12 1637ZM4028.13 1632.05 4079.13 1632.05 4079.13 1637 4028.13 1637ZM4372.14 1553.05 4423.15 1553.05 4423.15 1637 4372.14 1637ZM4716.15 1324.04 4767.16 1324.04 4767.16 1637 4716.15 1637ZM5060.17 464.015 5111.17 464.015 5111.17 1637 5060.17 1637Z" fill="#4472C4" fill-rule="nonzero" fill-opacity="1"/></g><g clip-path="url(#clip3)"><path d="M2716.09 1635.05 2767.09 1635.05 2767.09 1637 2716.09 1637ZM3060.1 1635.05 3111.1 1635.05 3111.1 1637 3060.1 1637ZM3404.11 1635.05 3455.11 1635.05 3455.11 1637 3404.11 1637ZM3748.12 1635.05 3799.12 1635.05 3799.12 1637 3748.12 1637ZM4092.13 1635.05 4143.14 1635.05 4143.14 1637 4092.13 1637ZM4436.15 1634.05 4487.15 1634.05 4487.15 1637 4436.15 1637ZM4780.16 1634.05 4830.16 1634.05 4830.16 1637 4780.16 1637ZM5123.17 1633.05 5174.17 1633.05 5174.17 1637 5123.17 1637Z" fill="#ED7D31" fill-rule="nonzero" fill-opacity="1"/></g><g clip-path="url(#clip4)"><path d="M2780.09 1635.05 2831.09 1635.05 2831.09 1637 2780.09 1637ZM3124.1 1635.05 3175.1 1635.05 3175.1 1637 3124.1 1637ZM3468.11 1635.05 3519.12 1635.05 3519.12 1637 3468.11 1637ZM3812.13 1635.05 3863.13 1635.05 3863.13 1637 3812.13 1637ZM4155.14 1635.05 4206.14 1635.05 4206.14 1637 4155.14 1637ZM4499.15 1635.05 4550.15 1635.05 4550.15 1637 4499.15 1637ZM4843.16 1634.05 4894.16 1634.05 4894.16 1637 4843.16 1637ZM5187.17 1633.05 5238.17 1633.05 5238.17 1637 5187.17 1637Z" fill="#A5A5A5" fill-rule="nonzero" fill-opacity="1"/></g><g clip-path="url(#clip5)"><path d="M2844.09 1635.05 2895.09 1635.05 2895.09 1637 2844.09 1637ZM3188.1 1635.05 3238.11 1635.05 3238.11 1637 3188.1 1637ZM3531.12 1635.05 3582.12 1635.05 3582.12 1637 3531.12 1637ZM3875.13 1635.05 3926.13 1635.05 3926.13 1637 3875.13 1637ZM4219.14 1635.05 4270.14 1635.05 4270.14 1637 4219.14 1637ZM4563.15 1635.05 4614.15 1635.05 4614.15 1637 4563.15 1637ZM4907.16 1634.05 4958.16 1634.05 4958.16 1637 4907.16 1637ZM5251.17 1633.05 5302.17 1633.05 5302.17 1637 5251.17 1637Z" fill="#FFC000" fill-rule="nonzero" fill-opacity="1"/></g><g clip-path="url(#clip6)"><path d="M2907.1 1635.05 2958.1 1635.05 2958.1 1637 2907.1 1637ZM3251.11 1635.05 3302.11 1635.05 3302.11 1637 3251.11 1637ZM3595.12 1635.05 3646.12 1635.05 3646.12 1637 3595.12 1637ZM3939.13 1635.05 3990.13 1635.05 3990.13 1637 3939.13 1637ZM4283.14 1635.05 4334.14 1635.05 4334.14 1637 4283.14 1637ZM4627.15 1634.05 4678.15 1634.05 4678.15 1637 4627.15 1637ZM4971.16 1634.05 5021.17 1634.05 5021.17 1637 4971.16 1637ZM5314.17 1632.05 5365.18 1632.05 5365.18 1637 5314.17 1637Z" fill="#5B9BD5" fill-rule="nonzero" fill-opacity="1"/></g><g clip-path="url(#clip7)"><path d="M2633.5 1636.5 5384.5 1636.5" stroke="#D9D9D9" stroke-width="3.4375" stroke-linecap="butt" stroke-linejoin="round" stroke-miterlimit="10" stroke-opacity="1" fill="none" fill-rule="evenodd"/></g><g clip-path="url(#clip8)"><path d="M2633.5 1619.5 2633.5 1654.5M2977.6 1619.5 2977.6 1654.5M3321.61 1619.5 3321.61 1654.5M3665.62 1619.5 3665.62 1654.5M4008.63 1619.5 4008.63 1654.5M4352.64 1619.5 4352.64 1654.5M4696.65 1619.5 4696.65 1654.5M5040.67 1619.5 5040.67 1654.5M5384.5 1619.5 5384.5 1654.5" stroke="#D9D9D9" stroke-width="3.4375" stroke-linecap="butt" stroke-linejoin="round" stroke-miterlimit="10" stroke-opacity="1" fill="none" fill-rule="nonzero"/></g><g clip-path="url(#clip9)"><text fill="#595959" fill-opacity="1" font-family="Calibri,Calibri_MSFontService,sans-serif" font-style="normal" font-variant="normal" font-weight="400" font-stretch="normal" font-size="55" text-anchor="start" direction="ltr" writing-mode="lr-tb" unicode-bidi="normal" text-decoration="none" transform="matrix(1 0 0 1 2554.7 1651)">0</text></g><g clip-path="url(#clip10)"><text fill="#595959" fill-opacity="1" font-family="Calibri,Calibri_MSFontService,sans-serif" font-style="normal" font-variant="normal" font-weight="400" font-stretch="normal" font-size="55" text-anchor="start" direction="ltr" writing-mode="lr-tb" unicode-bidi="normal" text-decoration="none" transform="matrix(1 0 0 1 2526.83 1504)">20</text></g><g clip-path="url(#clip11)"><text fill="#595959" fill-opacity="1" font-family="Calibri,Calibri_MSFontService,sans-serif" font-style="normal" font-variant="normal" font-weight="400" font-stretch="normal" font-size="55" text-anchor="start" direction="ltr" writing-mode="lr-tb" unicode-bidi="normal" text-decoration="none" transform="matrix(1 0 0 1 2526.83 1358)">40</text></g><g clip-path="url(#clip12)"><text fill="#595959" fill-opacity="1" font-family="Calibri,Calibri_MSFontService,sans-serif" font-style="normal" font-variant="normal" font-weight="400" font-stretch="normal" font-size="55" text-anchor="start" direction="ltr" writing-mode="lr-tb" unicode-bidi="normal" text-decoration="none" transform="matrix(1 0 0 1 2526.83 1212)">60</text></g><g clip-path="url(#clip13)"><text fill="#595959" fill-opacity="1" font-family="Calibri,Calibri_MSFontService,sans-serif" font-style="normal" font-variant="normal" font-weight="400" font-stretch="normal" font-size="55" text-anchor="start" direction="ltr" writing-mode="lr-tb" unicode-bidi="normal" text-decoration="none" transform="matrix(1 0 0 1 2526.83 1065)">80</text></g><g clip-path="url(#clip14)"><text fill="#595959" fill-opacity="1" font-family="Calibri,Calibri_MSFontService,sans-serif" font-style="normal" font-variant="normal" font-weight="400" font-stretch="normal" font-size="55" text-anchor="start" direction="ltr" writing-mode="lr-tb" unicode-bidi="normal" text-decoration="none" transform="matrix(1 0 0 1 2498.96 919)">100</text></g><g clip-path="url(#clip15)"><text fill="#595959" fill-opacity="1" font-family="Calibri,Calibri_MSFontService,sans-serif" font-style="normal" font-variant="normal" font-weight="400" font-stretch="normal" font-size="55" text-anchor="start" direction="ltr" writing-mode="lr-tb" unicode-bidi="normal" text-decoration="none" transform="matrix(1 0 0 1 2498.96 772)">120</text></g><g clip-path="url(#clip16)"><text fill="#595959" fill-opacity="1" font-family="Calibri,Calibri_MSFontService,sans-serif" font-style="normal" font-variant="normal" font-weight="400" font-stretch="normal" font-size="55" text-anchor="start" direction="ltr" writing-mode="lr-tb" unicode-bidi="normal" text-decoration="none" transform="matrix(1 0 0 1 2498.96 626)">140</text></g><g clip-path="url(#clip17)"><text fill="#595959" fill-opacity="1" font-family="Calibri,Calibri_MSFontService,sans-serif" font-style="normal" font-variant="normal" font-weight="400" font-stretch="normal" font-size="55" text-anchor="start" direction="ltr" writing-mode="lr-tb" unicode-bidi="normal" text-decoration="none" transform="matrix(1 0 0 1 2498.96 480)">160</text></g><g clip-path="url(#clip18)"><text fill="#595959" fill-opacity="1" font-family="Calibri,Calibri_MSFontService,sans-serif" font-style="normal" font-variant="normal" font-weight="400" font-stretch="normal" font-size="55" text-anchor="start" direction="ltr" writing-mode="lr-tb" unicode-bidi="normal" text-decoration="none" transform="matrix(1 0 0 1 2498.96 333)">180</text></g><g clip-path="url(#clip19)"><text fill="#595959" fill-opacity="1" font-family="Calibri,Calibri_MSFontService,sans-serif" font-style="normal" font-variant="normal" font-weight="400" font-stretch="normal" font-size="55" text-anchor="start" direction="ltr" writing-mode="lr-tb" unicode-bidi="normal" text-decoration="none" transform="matrix(1 0 0 1 2763.72 1724)">100</text></g><g clip-path="url(#clip20)"><text fill="#595959" fill-opacity="1" font-family="Calibri,Calibri_MSFontService,sans-serif" font-style="normal" font-variant="normal" font-weight="400" font-stretch="normal" font-size="55" text-anchor="start" direction="ltr" writing-mode="lr-tb" unicode-bidi="normal" text-decoration="none" transform="matrix(1 0 0 1 3107.61 1724)">500</text></g><g clip-path="url(#clip21)"><text fill="#595959" fill-opacity="1" font-family="Calibri,Calibri_MSFontService,sans-serif" font-style="normal" font-variant="normal" font-weight="400" font-stretch="normal" font-size="55" text-anchor="start" direction="ltr" writing-mode="lr-tb" unicode-bidi="normal" text-decoration="none" transform="matrix(1 0 0 1 3437.56 1724)">1000</text></g><g clip-path="url(#clip22)"><text fill="#595959" fill-opacity="1" font-family="Calibri,Calibri_MSFontService,sans-serif" font-style="normal" font-variant="normal" font-weight="400" font-stretch="normal" font-size="55" text-anchor="start" direction="ltr" writing-mode="lr-tb" unicode-bidi="normal" text-decoration="none" transform="matrix(1 0 0 1 3781.44 1724)">5000</text></g><g clip-path="url(#clip23)"><text fill="#595959" fill-opacity="1" font-family="Calibri,Calibri_MSFontService,sans-serif" font-style="normal" font-variant="normal" font-weight="400" font-stretch="normal" font-size="55" text-anchor="start" direction="ltr" writing-mode="lr-tb" unicode-bidi="normal" text-decoration="none" transform="matrix(1 0 0 1 4111.39 1724)">10000</text></g><g clip-path="url(#clip24)"><text fill="#595959" fill-opacity="1" font-family="Calibri,Calibri_MSFontService,sans-serif" font-style="normal" font-variant="normal" font-weight="400" font-stretch="normal" font-size="55" text-anchor="start" direction="ltr" writing-mode="lr-tb" unicode-bidi="normal" text-decoration="none" transform="matrix(1 0 0 1 4455.27 1724)">50000</text></g><g clip-path="url(#clip25)"><text fill="#595959" fill-opacity="1" font-family="Calibri,Calibri_MSFontService,sans-serif" font-style="normal" font-variant="normal" font-weight="400" font-stretch="normal" font-size="55" text-anchor="start" direction="ltr" writing-mode="lr-tb" unicode-bidi="normal" text-decoration="none" transform="matrix(1 0 0 1 4785.23 1724)">100000</text></g><g clip-path="url(#clip26)"><text fill="#595959" fill-opacity="1" font-family="Calibri,Calibri_MSFontService,sans-serif" font-style="normal" font-variant="normal" font-weight="400" font-stretch="normal" font-size="55" text-anchor="start" direction="ltr" writing-mode="lr-tb" unicode-bidi="normal" text-decoration="none" transform="matrix(1 0 0 1 5129.11 1724)">200000</text></g><g clip-path="url(#clip27)"><text fill="#595959" fill-opacity="1" font-family="Calibri,Calibri_MSFontService,sans-serif" font-style="normal" font-variant="normal" font-weight="400" font-stretch="normal" font-size="55" text-anchor="start" direction="ltr" writing-mode="lr-tb" unicode-bidi="normal" text-decoration="none" transform="matrix(6.12323e-17 -1 1 6.12323e-17 2442.71 1412)">Tempo de execução em segundos</text></g><g clip-path="url(#clip28)"><text fill="#595959" fill-opacity="1" font-family="Calibri,Calibri_MSFontService,sans-serif" font-style="normal" font-variant="normal" font-weight="400" font-stretch="normal" font-size="55" text-anchor="start" direction="ltr" writing-mode="lr-tb" unicode-bidi="normal" text-decoration="none" transform="matrix(1 0 0 1 3557.62 1812)">Tamanho do arquivo de entrada</text></g><g clip-path="url(#clip29)"><text fill="#595959" fill-opacity="1" font-family="Calibri,Calibri_MSFontService,sans-serif" font-style="normal" font-variant="normal" font-weight="700" font-stretch="normal" font-size="64" text-anchor="start" direction="ltr" writing-mode="lr-tb" unicode-bidi="normal" text-decoration="none" transform="matrix(1 0 0 1 3377.35 239)">Tempo de Execução </text></g><g clip-path="url(#clip30)"><text fill="#595959" fill-opacity="1" font-family="Calibri,Calibri_MSFontService,sans-serif" font-style="normal" font-variant="normal" font-weight="700" font-stretch="normal" font-size="64" text-anchor="start" direction="ltr" writing-mode="lr-tb" unicode-bidi="normal" text-decoration="none" transform="matrix(1 0 0 1 3912.82 239)">-</text></g><g clip-path="url(#clip31)"><text fill="#595959" fill-opacity="1" font-family="Calibri,Calibri_MSFontService,sans-serif" font-style="normal" font-variant="normal" font-weight="700" font-stretch="normal" font-size="64" text-anchor="start" direction="ltr" writing-mode="lr-tb" unicode-bidi="normal" text-decoration="none" transform="matrix(1 0 0 1 3946.96 239)">Arquivo Aleatório</text></g><g clip-path="url(#clip32)"><rect x="2977" y="1909" width="31.0002" height="30.0002" fill="#4472C4" fill-opacity="1"/></g><g clip-path="url(#clip33)"><text fill="#595959" fill-opacity="1" font-family="Calibri,Calibri_MSFontService,sans-serif" font-style="normal" font-variant="normal" font-weight="400" font-stretch="normal" font-size="55" text-anchor="start" direction="ltr" writing-mode="lr-tb" unicode-bidi="normal" text-decoration="none" transform="matrix(1 0 0 1 3020.94 1938)">Insertion Sort</text></g><g clip-path="url(#clip34)"><rect x="3397" y="1909" width="30" height="30.0002" fill="#ED7D31" fill-opacity="1"/></g><g clip-path="url(#clip35)"><text fill="#595959" fill-opacity="1" font-family="Calibri,Calibri_MSFontService,sans-serif" font-style="normal" font-variant="normal" font-weight="400" font-stretch="normal" font-size="55" text-anchor="start" direction="ltr" writing-mode="lr-tb" unicode-bidi="normal" text-decoration="none" transform="matrix(1 0 0 1 3440.72 1938)">Heap Sort</text></g><g clip-path="url(#clip36)"><rect x="3734" y="1909" width="30" height="30.0002" fill="#A5A5A5" fill-opacity="1"/></g><g clip-path="url(#clip37)"><text fill="#595959" fill-opacity="1" font-family="Calibri,Calibri_MSFontService,sans-serif" font-style="normal" font-variant="normal" font-weight="400" font-stretch="normal" font-size="55" text-anchor="start" direction="ltr" writing-mode="lr-tb" unicode-bidi="normal" text-decoration="none" transform="matrix(1 0 0 1 3777.59 1938)">Quick Sort</text></g><g clip-path="url(#clip38)"><rect x="4081" y="1909" width="30" height="30.0002" fill="#FFC000" fill-opacity="1"/></g><g clip-path="url(#clip39)"><text fill="#595959" fill-opacity="1" font-family="Calibri,Calibri_MSFontService,sans-serif" font-style="normal" font-variant="normal" font-weight="400" font-stretch="normal" font-size="55" text-anchor="start" direction="ltr" writing-mode="lr-tb" unicode-bidi="normal" text-decoration="none" transform="matrix(1 0 0 1 4124.38 1938)">Quick Sort Melhorado</text></g><g clip-path="url(#clip40)"><rect x="4688" y="1909" width="31" height="30.0002" fill="#5B9BD5" fill-opacity="1"/></g><g clip-path="url(#clip41)"><text fill="#595959" fill-opacity="1" font-family="Calibri,Calibri_MSFontService,sans-serif" font-style="normal" font-variant="normal" font-weight="400" font-stretch="normal" font-size="55" text-anchor="start" direction="ltr" writing-mode="lr-tb" unicode-bidi="normal" text-decoration="none" transform="matrix(1 0 0 1 4731.98 1938)">Shell</text></g><rect x="2361.5" y="143.5" width="3074" height="1855" stroke="#D9D9D9" stroke-width="3.4375" stroke-linecap="butt" stroke-linejoin="round" stroke-miterlimit="10" stroke-opacity="1" fill="none"/></g></svg>