<svg width="3085" height="1865" xmlns="http://www.w3.org/2000/svg" xmlns:xlink="http://www.w3.org/1999/xlink" overflow="hidden"><defs><clipPath id="clip0"><rect x="2355" y="137" width="3085" height="1865"/></clipPath><clipPath id="clip1"><rect x="2360" y="143" width="3075" height="1855"/></clipPath><clipPath id="clip2"><rect x="2675" y="319" width="2713" height="1321"/></clipPath><clipPath id="clip3"><rect x="2675" y="319" width="2713" height="1321"/></clipPath><clipPath id="clip4"><rect x="2675" y="319" width="2713" height="1321"/></clipPath><clipPath id="clip5"><rect x="2675" y="319" width="2713" height="1321"/></clipPath><clipPath id="clip6"><rect x="2360" y="143" width="3075" height="1855"/></clipPath><clipPath id="clip7"><rect x="2360" y="143" width="3075" height="1855"/></clipPath><clipPath id="clip8"><rect x="2360" y="143" width="3075" height="1855"/></clipPath><clipPath id="clip9"><rect x="2360" y="143" width="3075" height="1855"/></clipPath><clipPath id="clip10"><rect x="2360" y="143" width="3075" height="1855"/></clipPath><clipPath id="clip11"><rect x="2360" y="143" width="3075" height="1855"/></clipPath><clipPath id="clip12"><rect x="2360" y="143" width="3075" height="1855"/></clipPath><clipPath id="clip13"><rect x="2360" y="143" width="3075" height="1855"/></clipPath><clipPath id="clip14"><rect x="2360" y="143" width="3075" height="1855"/></clipPath><clipPath id="clip15"><rect x="2360" y="143" width="3075" height="1855"/></clipPath><clipPath id="clip16"><rect x="2360" y="143" width="3075" height="1855"/></clipPath><clipPath id="clip17"><rect x="2360" y="143" width="3075" height="1855"/></clipPath><clipPath id="clip18"><rect x="2360" y="143" width="3075" height="1855"/></clipPath><clipPath id="clip19"><rect x="2360" y="143" width="3075" height="1855"/></clipPath><clipPath id="clip20"><rect x="2360" y="143" width="3075" height="1855"/></clipPath><clipPath id="clip21"><rect x="2360" y="143" width="3075" height="1855"/></clipPath><clipPath id="clip22"><rect x="2360" y="143" width="3075" height="1855"/></clipPath><clipPath id="clip23"><rect x="2360" y="143" width="3075" height="1855"/></clipPath><clipPath id="clip24"><rect x="2360" y="143" width="3075" height="1855"/></clipPath><clipPath id="clip25"><rect x="2360" y="143" width="3075" height="1855"/></clipPath><clipPath id="clip26"><rect x="2360" y="143" width="3075" height="1855"/></clipPath><clipPath id="clip27"><rect x="2360" y="143" width="3075" height="1855"/></clipPath><clipPath id="clip28"><rect x="2360" y="143" width="3075" height="1855"/></clipPath><clipPath id="clip29"><rect x="2360" y="143" width="3075" height="1855"/></clipPath><clipPath id="clip30"><rect x="2360" y="143" width="3075" height="1855"/></clipPath><clipPath id="clip31"><rect x="2360" y="143" width="3075" height="1855"/></clipPath><clipPath id="clip32"><rect x="2360" y="143" width="3075" height="1855"/></clipPath><clipPath id="clip33"><rect x="2360" y="143" width="3075" height="1855"/></clipPath><clipPath id="clip34"><rect x="2360" y="143" width="3075" height="1855"/></clipPath><clipPath id="clip35"><rect x="2360" y="143" width="3075" height="1855"/></clipPath><clipPath id="clip36"><rect x="2360" y="143" width="3075" height="1855"/></clipPath></defs><g clip-path="url(#clip0)" transform="translate(-2355 -137)"><rect x="2361" y="143" width="3074" height="1855" fill="#FFFFFF" fill-opacity="1"/><g clip-path="url(#clip1)"><path d="M2675.5 1448.55 5384.5 1448.55M2675.5 1260.54 5384.5 1260.54M2675.5 1072.54 5384.5 1072.54M2675.5 883.529 5384.5 883.529M2675.5 695.523 5384.5 695.523M2675.5 507.517 5384.5 507.517M2675.5 319.5 5384.5 319.5" stroke="#D9D9D9" stroke-width="3.4375" stroke-linecap="butt" stroke-linejoin="round" stroke-miterlimit="10" stroke-opacity="1" fill="none" fill-rule="nonzero"/></g><g clip-path="url(#clip2)"><path d="M2698.09 1248.04 2760.09 1248.04 2760.09 1637 2698.09 1637ZM3037.1 1192.04 3098.1 1192.04 3098.1 1637 3037.1 1637ZM3376.11 1168.04 3437.11 1168.04 3437.11 1637 3376.11 1637ZM3714.12 1160.04 3776.12 1160.04 3776.12 1637 3714.12 1637ZM4053.13 1142.04 4114.13 1142.04 4114.13 1637 4053.13 1637ZM4392.14 1081.04 4453.15 1081.04 4453.15 1637 4392.14 1637ZM4730.16 880.029 4792.16 880.029 4792.16 1637 4730.16 1637ZM5069.17 602.02 5130.17 602.02 5130.17 1637 5069.17 1637Z" fill="#ED7D31" fill-rule="nonzero" fill-opacity="1"/></g><g clip-path="url(#clip3)"><path d="M2775.09 1241.04 2837.09 1241.04 2837.09 1637 2775.09 1637ZM3114.1 1208.04 3175.1 1208.04 3175.1 1637 3114.1 1637ZM3452.11 1179.04 3514.12 1179.04 3514.12 1637 3452.11 1637ZM3791.12 1154.04 3853.13 1154.04 3853.13 1637 3791.12 1637ZM4130.14 1191.04 4191.14 1191.04 4191.14 1637 4130.14 1637ZM4469.15 1130.04 4530.15 1130.04 4530.15 1637 4469.15 1637ZM4807.16 993.033 4869.16 993.033 4869.16 1637 4807.16 1637ZM5146.17 766.025 5207.17 766.025 5207.17 1637 5146.17 1637Z" fill="#A5A5A5" fill-rule="nonzero" fill-opacity="1"/></g><g clip-path="url(#clip4)"><path d="M2852.09 1290.04 2914.1 1290.04 2914.1 1637 2852.09 1637ZM3191.1 1272.04 3252.11 1272.04 3252.11 1637 3191.1 1637ZM3529.12 1248.04 3591.12 1248.04 3591.12 1637 3529.12 1637ZM3868.13 1243.04 3930.13 1243.04 3930.13 1637 3868.13 1637ZM4207.14 1188.04 4268.14 1188.04 4268.14 1637 4207.14 1637ZM4545.15 1162.04 4607.15 1162.04 4607.15 1637 4545.15 1637ZM4884.16 1014.03 4946.16 1014.03 4946.16 1637 4884.16 1637ZM5223.17 783.026 5284.17 783.026 5284.17 1637 5223.17 1637Z" fill="#FFC000" fill-rule="nonzero" fill-opacity="1"/></g><g clip-path="url(#clip5)"><path d="M2929.1 1240.04 2991.1 1240.04 2991.1 1637 2929.1 1637ZM3268.11 1176.04 3329.11 1176.04 3329.11 1637 3268.11 1637ZM3606.12 1184.04 3668.12 1184.04 3668.12 1637 3606.12 1637ZM3945.13 1147.04 4007.13 1147.04 4007.13 1637 3945.13 1637ZM4284.14 1108.04 4345.14 1108.04 4345.14 1637 4284.14 1637ZM4622.15 1002.03 4684.15 1002.03 4684.15 1637 4622.15 1637ZM4961.16 865.028 5023.16 865.028 5023.16 1637 4961.16 1637ZM5300.17 511.017 5361.18 511.017 5361.18 1637 5300.17 1637Z" fill="#5B9BD5" fill-rule="nonzero" fill-opacity="1"/></g><g clip-path="url(#clip6)"><path d="M2675.5 1636.5 5384.5 1636.5" stroke="#D9D9D9" stroke-width="3.4375" stroke-linecap="butt" stroke-linejoin="round" stroke-miterlimit="10" stroke-opacity="1" fill="none" fill-rule="evenodd"/></g><g clip-path="url(#clip7)"><path d="M2675.5 1619.5 2675.5 1654.5M3013.6 1619.5 3013.6 1654.5M3352.61 1619.5 3352.61 1654.5M3691.62 1619.5 3691.62 1654.5M4029.63 1619.5 4029.63 1654.5M4368.64 1619.5 4368.64 1654.5M4707.65 1619.5 4707.65 1654.5M5045.67 1619.5 5045.67 1654.5M5384.5 1619.5 5384.5 1654.5" stroke="#D9D9D9" stroke-width="3.4375" stroke-linecap="butt" stroke-linejoin="round" stroke-miterlimit="10" stroke-opacity="1" fill="none" fill-rule="nonzero"/></g><g clip-path="url(#clip8)"><text fill="#595959" fill-opacity="1" font-family="Calibri,Calibri_MSFontService,sans-serif" font-style="normal" font-variant="normal" font-weight="400" font-stretch="normal" font-size="55" text-anchor="start" direction="ltr" writing-mode="lr-tb" unicode-bidi="normal" text-decoration="none" transform="matrix(1 0 0 1 2498.96 1651)">0,000</text></g><g clip-path="url(#clip9)"><text fill="#595959" fill-opacity="1" font-family="Calibri,Calibri_MSFontService,sans-serif" font-style="normal" font-variant="normal" font-weight="400" font-stretch="normal" font-size="55" text-anchor="start" direction="ltr" writing-mode="lr-tb" unicode-bidi="normal" text-decoration="none" transform="matrix(1 0 0 1 2498.96 1463)">0,100</text></g><g clip-path="url(#clip10)"><text fill="#595959" fill-opacity="1" font-family="Calibri,Calibri_MSFontService,sans-serif" font-style="normal" font-variant="normal" font-weight="400" font-stretch="normal" font-size="55" text-anchor="start" direction="ltr" writing-mode="lr-tb" unicode-bidi="normal" text-decoration="none" transform="matrix(1 0 0 1 2498.96 1274)">0,200</text></g><g clip-path="url(#clip11)"><text fill="#595959" fill-opacity="1" font-family="Calibri,Calibri_MSFontService,sans-serif" font-style="normal" font-variant="normal" font-weight="400" font-stretch="normal" font-size="55" text-anchor="start" direction="ltr" writing-mode="lr-tb" unicode-bidi="normal" text-decoration="none" transform="matrix(1 0 0 1 2498.96 1086)">0,300</text></g><g clip-path="url(#clip12)"><text fill="#595959" fill-opacity="1" font-family="Calibri,Calibri_MSFontService,sans-serif" font-style="normal" font-variant="normal" font-weight="400" font-stretch="normal" font-size="55" text-anchor="start" direction="ltr" writing-mode="lr-tb" unicode-bidi="normal" text-decoration="none" transform="matrix(1 0 0 1 2498.96 898)">0,400</text></g><g clip-path="url(#clip13)"><text fill="#595959" fill-opacity="1" font-family="Calibri,Calibri_MSFontService,sans-serif" font-style="normal" font-variant="normal" font-weight="400" font-stretch="normal" font-size="55" text-anchor="start" direction="ltr" writing-mode="lr-tb" unicode-bidi="normal" text-decoration="none" transform="matrix(1 0 0 1 2498.96 710)">0,500</text></g><g clip-path="url(#clip14)"><text fill="#595959" fill-opacity="1" font-family="Calibri,Calibri_MSFontService,sans-serif" font-style="normal" font-variant="normal" font-weight="400" font-stretch="normal" font-size="55" text-anchor="start" direction="ltr" writing-mode="lr-tb" unicode-bidi="normal" text-decoration="none" transform="matrix(1 0 0 1 2498.96 522)">0,600</text></g><g clip-path="url(#clip15)"><text fill="#595959" fill-opacity="1" font-family="Calibri,Calibri_MSFontService,sans-serif" font-style="normal" font-variant="normal" font-weight="400" font-stretch="normal" font-size="55" text-anchor="start" direction="ltr" writing-mode="lr-tb" unicode-bidi="normal" text-decoration="none" transform="matrix(1 0 0 1 2498.96 333)">0,700</text></g><g clip-path="url(#clip16)"><text fill="#595959" fill-opacity="1" font-family="Calibri,Calibri_MSFontService,sans-serif" font-style="normal" font-variant="normal" font-weight="400" font-stretch="normal" font-size="55" text-anchor="start" direction="ltr" writing-mode="lr-tb" unicode-bidi="normal" text-decoration="none" transform="matrix(1 0 0 1 2802.72 1724)">100</text></g><g clip-path="url(#clip17)"><text fill="#595959" fill-opacity="1" font-family="Calibri,Calibri_MSFontService,sans-serif" font-style="normal" font-variant="normal" font-weight="400" font-stretch="normal" font-size="55" text-anchor="start" direction="ltr" writing-mode="lr-tb" unicode-bidi="normal" text-decoration="none" transform="matrix(1 0 0 1 3141.4 1724)">500</text></g><g clip-path="url(#clip18)"><text fill="#595959" fill-opacity="1" font-family="Calibri,Calibri_MSFontService,sans-serif" font-style="normal" font-variant="normal" font-weight="400" font-stretch="normal" font-size="55" text-anchor="start" direction="ltr" writing-mode="lr-tb" unicode-bidi="normal" text-decoration="none" transform="matrix(1 0 0 1 3466.15 1724)">1000</text></g><g clip-path="url(#clip19)"><text fill="#595959" fill-opacity="1" font-family="Calibri,Calibri_MSFontService,sans-serif" font-style="normal" font-variant="normal" font-weight="400" font-stretch="normal" font-size="55" text-anchor="start" direction="ltr" writing-mode="lr-tb" unicode-bidi="normal" text-decoration="none" transform="matrix(1 0 0 1 3804.84 1724)">5000</text></g><g clip-path="url(#clip20)"><text fill="#595959" fill-opacity="1" font-family="Calibri,Calibri_MSFontService,sans-serif" font-style="normal" font-variant="normal" font-weight="400" font-stretch="normal" font-size="55" text-anchor="start" direction="ltr" writing-mode="lr-tb" unicode-bidi="normal" text-decoration="none" transform="matrix(1 0 0 1 4129.59 1724)">10000</text></g><g clip-path="url(#clip21)"><text fill="#595959" fill-opacity="1" font-family="Calibri,Calibri_MSFontService,sans-serif" font-style="normal" font-variant="normal" font-weight="400" font-stretch="normal" font-size="55" text-anchor="start" direction="ltr" writing-mode="lr-tb" unicode-bidi="normal" text-decoration="none" transform="matrix(1 0 0 1 4468.27 1724)">50000</text></g><g clip-path="url(#clip22)"><text fill="#595959" fill-opacity="1" font-family="Calibri,Calibri_MSFontService,sans-serif" font-style="normal" font-variant="normal" font-weight="400" font-stretch="normal" font-size="55" text-anchor="start" direction="ltr" writing-mode="lr-tb" unicode-bidi="normal" text-decoration="none" transform="matrix(1 0 0 1 4793.02 1724)">100000</text></g><g clip-path="url(#clip23)"><text fill="#595959" fill-opacity="1" font-family="Calibri,Calibri_MSFontService,sans-serif" font-style="normal" font-variant="normal" font-weight="400" font-stretch="normal" font-size="55" text-anchor="start" direction="ltr" writing-mode="lr-tb" unicode-bidi="normal" text-decoration="none" transform="matrix(1 0 0 1 5131.71 1724)">200000</text></g><g clip-path="url(#clip24)"><text fill="#595959" fill-opacity="1" font-family="Calibri,Calibri_MSFontService,sans-serif" font-style="normal" font-variant="normal" font-weight="400" font-stretch="normal" font-size="55" text-anchor="start" direction="ltr" writing-mode="lr-tb" unicode-bidi="normal" text-decoration="none" transform="matrix(6.12323e-17 -1 1 6.12323e-17 2442.71 1412)">Tempo de execução em segundos</text></g><g clip-path="url(#clip25)"><text fill="#595959" fill-opacity="1" font-family="Calibri,Calibri_MSFontService,sans-serif" font-style="normal" font-variant="normal" font-weight="400" font-stretch="normal" font-size="55" text-anchor="start" direction="ltr" writing-mode="lr-tb" unicode-bidi="normal" text-decoration="none" transform="matrix(1 0 0 1 3557.62 1812)">Tamanho do arquivo de entrada</text></g><g clip-path="url(#clip26)"><text fill="#595959" fill-opacity="1" font-family="Calibri,Calibri_MSFontService,sans-serif" font-style="normal" font-variant="normal" font-weight="700" font-stretch="normal" font-size="64" text-anchor="start" direction="ltr" writing-mode="lr-tb" unicode-bidi="normal" text-decoration="none" transform="matrix(1 0 0 1 2943.29 239)">Tempo de Execução </text></g><g clip-path="url(#clip27)"><text fill="#595959" fill-opacity="1" font-family="Calibri,Calibri_MSFontService,sans-serif" font-style="normal" font-variant="normal" font-weight="700" font-stretch="normal" font-size="64" text-anchor="start" direction="ltr" writing-mode="lr-tb" unicode-bidi="normal" text-decoration="none" transform="matrix(1 0 0 1 3478.76 239)">-</text></g><g clip-path="url(#clip28)"><text fill="#595959" fill-opacity="1" font-family="Calibri,Calibri_MSFontService,sans-serif" font-style="normal" font-variant="normal" font-weight="700" font-stretch="normal" font-size="64" text-anchor="start" direction="ltr" writing-mode="lr-tb" unicode-bidi="normal" text-decoration="none" transform="matrix(1 0 0 1 3512.91 239)">Arquivo Aleatório (SEM O MÉTODO DA INSERÇÃO)</text></g><g clip-path="url(#clip29)"><rect x="3193" y="1909" width="30" height="30.0002" fill="#ED7D31" fill-opacity="1"/></g><g clip-path="url(#clip30)"><text fill="#595959" fill-opacity="1" font-family="Calibri,Calibri_MSFontService,sans-serif" font-style="normal" font-variant="normal" font-weight="400" font-stretch="normal" font-size="55" text-anchor="start" direction="ltr" writing-mode="lr-tb" unicode-bidi="normal" text-decoration="none" transform="matrix(1 0 0 1 3236.13 1938)">Heap Sort</text></g><g clip-path="url(#clip31)"><rect x="3526" y="1909" width="30.0002" height="30.0002" fill="#A5A5A5" fill-opacity="1"/></g><g clip-path="url(#clip32)"><text fill="#595959" fill-opacity="1" font-family="Calibri,Calibri_MSFontService,sans-serif" font-style="normal" font-variant="normal" font-weight="400" font-stretch="normal" font-size="55" text-anchor="start" direction="ltr" writing-mode="lr-tb" unicode-bidi="normal" text-decoration="none" transform="matrix(1 0 0 1 3569.46 1938)">Quick Sort</text></g><g clip-path="url(#clip33)"><rect x="3869" y="1909" width="30.0002" height="30.0002" fill="#FFC000" fill-opacity="1"/></g><g clip-path="url(#clip34)"><text fill="#595959" fill-opacity="1" font-family="Calibri,Calibri_MSFontService,sans-serif" font-style="normal" font-variant="normal" font-weight="400" font-stretch="normal" font-size="55" text-anchor="start" direction="ltr" writing-mode="lr-tb" unicode-bidi="normal" text-decoration="none" transform="matrix(1 0 0 1 3912.72 1938)">Quick Sort Melhorado</text></g><g clip-path="url(#clip35)"><rect x="4473" y="1909" width="30.0005" height="30.0002" fill="#5B9BD5" fill-opacity="1"/></g><g clip-path="url(#clip36)"><text fill="#595959" fill-opacity="1" font-family="Calibri,Calibri_MSFontService,sans-serif" font-style="normal" font-variant="normal" font-weight="400" font-stretch="normal" font-size="55" text-anchor="start" direction="ltr" writing-mode="lr-tb" unicode-bidi="normal" text-decoration="none" transform="matrix(1 0 0 1 4516.79 1938)">Shell</text></g><rect x="2361.5" y="143.5" width="3074" height="1855" stroke="#D9D9D9" stroke-width="3.4375" stroke-linecap="butt" stroke-linejoin="round" stroke-miterlimit="10" stroke-opacity="1" fill="none"/></g></svg>