<svg width="2017" height="1187" xmlns="http://www.w3.org/2000/svg" xmlns:xlink="http://www.w3.org/1999/xlink" overflow="hidden"><defs><clipPath id="clip0"><rect x="4317" y="1301" width="2017" height="1187"/></clipPath><clipPath id="clip1"><rect x="4320" y="1303" width="2009" height="1180"/></clipPath><clipPath id="clip2"><rect x="4579" y="1473" width="1703" height="705"/></clipPath><clipPath id="clip3"><rect x="4579" y="1473" width="1703" height="705"/></clipPath><clipPath id="clip4"><rect x="4579" y="1473" width="1703" height="705"/></clipPath><clipPath id="clip5"><rect x="4320" y="1303" width="2009" height="1180"/></clipPath><clipPath id="clip6"><rect x="4320" y="1303" width="2009" height="1180"/></clipPath><clipPath id="clip7"><rect x="4320" y="1303" width="2009" height="1180"/></clipPath><clipPath id="clip8"><rect x="4320" y="1303" width="2009" height="1180"/></clipPath><clipPath id="clip9"><rect x="4320" y="1303" width="2009" height="1180"/></clipPath><clipPath id="clip10"><rect x="4320" y="1303" width="2009" height="1180"/></clipPath><clipPath id="clip11"><rect x="4320" y="1303" width="2009" height="1180"/></clipPath><clipPath id="clip12"><rect x="4320" y="1303" width="2009" height="1180"/></clipPath><clipPath id="clip13"><rect x="4320" y="1303" width="2009" height="1180"/></clipPath><clipPath id="clip14"><rect x="4320" y="1303" width="2009" height="1180"/></clipPath><clipPath id="clip15"><rect x="4320" y="1303" width="2009" height="1180"/></clipPath><clipPath id="clip16"><rect x="4320" y="1303" width="2009" height="1180"/></clipPath><clipPath id="clip17"><rect x="4320" y="1303" width="2009" height="1180"/></clipPath><clipPath id="clip18"><rect x="4320" y="1303" width="2009" height="1180"/></clipPath><clipPath id="clip19"><rect x="4320" y="1303" width="2009" height="1180"/></clipPath><clipPath id="clip20"><rect x="4320" y="1303" width="2009" height="1180"/></clipPath><clipPath id="clip21"><rect x="4320" y="1303" width="2009" height="1180"/></clipPath><clipPath id="clip22"><rect x="4320" y="1303" width="2009" height="1180"/></clipPath><clipPath id="clip23"><rect x="4320" y="1303" width="2009" height="1180"/></clipPath><clipPath id="clip24"><rect x="4320" y="1303" width="2009" height="1180"/></clipPath><clipPath id="clip25"><rect x="4320" y="1303" width="2009" height="1180"/></clipPath><clipPath id="clip26"><rect x="4320" y="1303" width="2009" height="1180"/></clipPath><clipPath id="clip27"><rect x="4320" y="1303" width="2009" height="1180"/></clipPath><clipPath id="clip28"><rect x="4320" y="1303" width="2009" height="1180"/></clipPath><clipPath id="clip29"><rect x="4320" y="1303" width="2009" height="1180"/></clipPath><clipPath id="clip30"><rect x="4320" y="1303" width="2009" height="1180"/></clipPath><clipPath id="clip31"><rect x="4320" y="1303" width="2009" height="1180"/></clipPath></defs><g clip-path="url(#clip0)" transform="translate(-4317 -1301)"><rect x="4320" y="1303" width="2009" height="1180" fill="#FFFFFF" fill-opacity="1"/><g clip-path="url(#clip1)"><path d="M4579.5 2057.57 6278.5 2057.57M4579.5 1940.56 6278.5 1940.56M4579.5 1823.56 6278.5 1823.56M4579.5 1707.56 6278.5 1707.56M4579.5 1590.55 6278.5 1590.55M4579.5 1473.5 6278.5 1473.5" stroke="#D9D9D9" stroke-width="3.4375" stroke-linecap="butt" stroke-linejoin="round" stroke-miterlimit="10" stroke-opacity="1" fill="none" fill-rule="nonzero"/></g><g clip-path="url(#clip2)"><path d="M4620.15 1939.06 4657.15 1939.06 4657.15 2175 4620.15 2175ZM4832.16 1920.06 4869.16 1920.06 4869.16 2175 4832.16 2175ZM5045.17 1905.06 5082.17 1905.06 5082.17 2175 5045.17 2175ZM5257.17 1884.06 5294.17 1884.06 5294.17 2175 5257.17 2175ZM5470.18 1884.06 5507.18 1884.06 5507.18 2175 5470.18 2175ZM5682.19 1874.06 5719.19 1874.06 5719.19 2175 5682.19 2175ZM5894.19 1682.06 5931.19 1682.06 5931.19 2175 5894.19 2175ZM6107.2 1569.05 6144.2 1569.05 6144.2 2175 6107.2 2175Z" fill="#FFC000" fill-rule="nonzero" fill-opacity="1"/></g><g clip-path="url(#clip3)"><path d="M4667.15 1934.06 4704.15 1934.06 4704.15 2175 4667.15 2175ZM4879.16 1898.06 4916.16 1898.06 4916.16 2175 4879.16 2175ZM5092.17 1884.06 5129.17 1884.06 5129.17 2175 5092.17 2175ZM5304.17 1879.06 5341.18 1879.06 5341.18 2175 5304.17 2175ZM5517.18 1868.06 5554.18 1868.06 5554.18 2175 5517.18 2175ZM5729.19 1829.06 5766.19 1829.06 5766.19 2175 5729.19 2175ZM5941.19 1705.06 5979.2 1705.06 5979.2 2175 5941.19 2175ZM6154.2 1532.05 6191.2 1532.05 6191.2 2175 6154.2 2175Z" fill="#70AD47" fill-rule="nonzero" fill-opacity="1"/></g><g clip-path="url(#clip4)"><path d="M4714.15 1955.06 4751.16 1955.06 4751.16 2175 4714.15 2175ZM4926.16 1907.06 4964.16 1907.06 4964.16 2175 4926.16 2175ZM5139.17 1883.06 5176.17 1883.06 5176.17 2175 5139.17 2175ZM5351.18 1882.06 5388.18 1882.06 5388.18 2175 5351.18 2175ZM5564.18 1841.06 5601.18 1841.06 5601.18 2175 5564.18 2175ZM5776.19 1783.06 5813.19 1783.06 5813.19 2175 5776.19 2175ZM5989.2 1730.06 6026.2 1730.06 6026.2 2175 5989.2 2175ZM6201.2 1540.05 6238.2 1540.05 6238.2 2175 6201.2 2175Z" fill="#ED7D31" fill-rule="nonzero" fill-opacity="1"/></g><g clip-path="url(#clip5)"><path d="M0 0 0.000360892 701" stroke="#4472C4" stroke-width="3.4375" stroke-linecap="butt" stroke-linejoin="round" stroke-miterlimit="10" stroke-opacity="1" fill="none" fill-rule="evenodd" transform="matrix(1 0 0 -1 4579.5 2174.5)"/></g><g clip-path="url(#clip6)"><path d="M4579.5 2174.5 6278.5 2174.5" stroke="#D9D9D9" stroke-width="3.4375" stroke-linecap="butt" stroke-linejoin="round" stroke-miterlimit="10" stroke-opacity="1" fill="none" fill-rule="evenodd"/></g><g clip-path="url(#clip7)"><path d="M4579.5 2161.5 4579.5 2187.5M4791.66 2161.5 4791.66 2187.5M5004.66 2161.5 5004.66 2187.5M5216.67 2161.5 5216.67 2187.5M5428.68 2161.5 5428.68 2187.5M5641.69 2161.5 5641.69 2187.5M5853.69 2161.5 5853.69 2187.5M6066.7 2161.5 6066.7 2187.5M6278.5 2161.5 6278.5 2187.5" stroke="#D9D9D9" stroke-width="3.4375" stroke-linecap="butt" stroke-linejoin="round" stroke-miterlimit="10" stroke-opacity="1" fill="none" fill-rule="nonzero"/></g><g clip-path="url(#clip8)"><text fill="#595959" fill-opacity="1" font-family="Calibri,Calibri_MSFontService,sans-serif" font-style="normal" font-variant="normal" font-weight="400" font-stretch="normal" font-size="41" text-anchor="start" direction="ltr" writing-mode="lr-tb" unicode-bidi="normal" text-decoration="none" transform="matrix(1 0 0 1 4447.27 2185)">0,000</text></g><g clip-path="url(#clip9)"><text fill="#595959" fill-opacity="1" font-family="Calibri,Calibri_MSFontService,sans-serif" font-style="normal" font-variant="normal" font-weight="400" font-stretch="normal" font-size="41" text-anchor="start" direction="ltr" writing-mode="lr-tb" unicode-bidi="normal" text-decoration="none" transform="matrix(1 0 0 1 4447.27 2068)">0,100</text></g><g clip-path="url(#clip10)"><text fill="#595959" fill-opacity="1" font-family="Calibri,Calibri_MSFontService,sans-serif" font-style="normal" font-variant="normal" font-weight="400" font-stretch="normal" font-size="41" text-anchor="start" direction="ltr" writing-mode="lr-tb" unicode-bidi="normal" text-decoration="none" transform="matrix(1 0 0 1 4447.27 1952)">0,200</text></g><g clip-path="url(#clip11)"><text fill="#595959" fill-opacity="1" font-family="Calibri,Calibri_MSFontService,sans-serif" font-style="normal" font-variant="normal" font-weight="400" font-stretch="normal" font-size="41" text-anchor="start" direction="ltr" writing-mode="lr-tb" unicode-bidi="normal" text-decoration="none" transform="matrix(1 0 0 1 4447.27 1835)">0,300</text></g><g clip-path="url(#clip12)"><text fill="#595959" fill-opacity="1" font-family="Calibri,Calibri_MSFontService,sans-serif" font-style="normal" font-variant="normal" font-weight="400" font-stretch="normal" font-size="41" text-anchor="start" direction="ltr" writing-mode="lr-tb" unicode-bidi="normal" text-decoration="none" transform="matrix(1 0 0 1 4447.27 1718)">0,400</text></g><g clip-path="url(#clip13)"><text fill="#595959" fill-opacity="1" font-family="Calibri,Calibri_MSFontService,sans-serif" font-style="normal" font-variant="normal" font-weight="400" font-stretch="normal" font-size="41" text-anchor="start" direction="ltr" writing-mode="lr-tb" unicode-bidi="normal" text-decoration="none" transform="matrix(1 0 0 1 4447.27 1601)">0,500</text></g><g clip-path="url(#clip14)"><text fill="#595959" fill-opacity="1" font-family="Calibri,Calibri_MSFontService,sans-serif" font-style="normal" font-variant="normal" font-weight="400" font-stretch="normal" font-size="41" text-anchor="start" direction="ltr" writing-mode="lr-tb" unicode-bidi="normal" text-decoration="none" transform="matrix(1 0 0 1 4447.27 1484)">0,600</text></g><g clip-path="url(#clip15)"><text fill="#595959" fill-opacity="1" font-family="Calibri,Calibri_MSFontService,sans-serif" font-style="normal" font-variant="normal" font-weight="400" font-stretch="normal" font-size="41" text-anchor="start" direction="ltr" writing-mode="lr-tb" unicode-bidi="normal" text-decoration="none" transform="matrix(1 0 0 1 4654.27 2240)">100</text></g><g clip-path="url(#clip16)"><text fill="#595959" fill-opacity="1" font-family="Calibri,Calibri_MSFontService,sans-serif" font-style="normal" font-variant="normal" font-weight="400" font-stretch="normal" font-size="41" text-anchor="start" direction="ltr" writing-mode="lr-tb" unicode-bidi="normal" text-decoration="none" transform="matrix(1 0 0 1 4866.7 2240)">500</text></g><g clip-path="url(#clip17)"><text fill="#595959" fill-opacity="1" font-family="Calibri,Calibri_MSFontService,sans-serif" font-style="normal" font-variant="normal" font-weight="400" font-stretch="normal" font-size="41" text-anchor="start" direction="ltr" writing-mode="lr-tb" unicode-bidi="normal" text-decoration="none" transform="matrix(1 0 0 1 5068.68 2240)">1000</text></g><g clip-path="url(#clip18)"><text fill="#595959" fill-opacity="1" font-family="Calibri,Calibri_MSFontService,sans-serif" font-style="normal" font-variant="normal" font-weight="400" font-stretch="normal" font-size="41" text-anchor="start" direction="ltr" writing-mode="lr-tb" unicode-bidi="normal" text-decoration="none" transform="matrix(1 0 0 1 5281.11 2240)">5000</text></g><g clip-path="url(#clip19)"><text fill="#595959" fill-opacity="1" font-family="Calibri,Calibri_MSFontService,sans-serif" font-style="normal" font-variant="normal" font-weight="400" font-stretch="normal" font-size="41" text-anchor="start" direction="ltr" writing-mode="lr-tb" unicode-bidi="normal" text-decoration="none" transform="matrix(1 0 0 1 5483.09 2240)">10000</text></g><g clip-path="url(#clip20)"><text fill="#595959" fill-opacity="1" font-family="Calibri,Calibri_MSFontService,sans-serif" font-style="normal" font-variant="normal" font-weight="400" font-stretch="normal" font-size="41" text-anchor="start" direction="ltr" writing-mode="lr-tb" unicode-bidi="normal" text-decoration="none" transform="matrix(1 0 0 1 5695.51 2240)">50000</text></g><g clip-path="url(#clip21)"><text fill="#595959" fill-opacity="1" font-family="Calibri,Calibri_MSFontService,sans-serif" font-style="normal" font-variant="normal" font-weight="400" font-stretch="normal" font-size="41" text-anchor="start" direction="ltr" writing-mode="lr-tb" unicode-bidi="normal" text-decoration="none" transform="matrix(1 0 0 1 5897.49 2240)">100000</text></g><g clip-path="url(#clip22)"><text fill="#595959" fill-opacity="1" font-family="Calibri,Calibri_MSFontService,sans-serif" font-style="normal" font-variant="normal" font-weight="400" font-stretch="normal" font-size="41" text-anchor="start" direction="ltr" writing-mode="lr-tb" unicode-bidi="normal" text-decoration="none" transform="matrix(1 0 0 1 6109.92 2240)">200000</text></g><g clip-path="url(#clip23)"><text fill="#595959" fill-opacity="1" font-family="Calibri,Calibri_MSFontService,sans-serif" font-style="normal" font-variant="normal" font-weight="400" font-stretch="normal" font-size="46" text-anchor="start" direction="ltr" writing-mode="lr-tb" unicode-bidi="normal" text-decoration="none" transform="matrix(6.12323e-17 -1 1 6.12323e-17 4398.71 2191)">Tempo de execução em segundos</text></g><g clip-path="url(#clip24)"><text fill="#595959" fill-opacity="1" font-family="Calibri,Calibri_MSFontService,sans-serif" font-style="normal" font-variant="normal" font-weight="400" font-stretch="normal" font-size="46" text-anchor="start" direction="ltr" writing-mode="lr-tb" unicode-bidi="normal" text-decoration="none" transform="matrix(1 0 0 1 5129.04 2330)">Tamanho do arquivo de entrada</text></g><g clip-path="url(#clip25)"><text fill="#595959" fill-opacity="1" font-family="Calibri,Calibri_MSFontService,sans-serif" font-style="normal" font-variant="normal" font-weight="700" font-stretch="normal" font-size="64" text-anchor="start" direction="ltr" writing-mode="lr-tb" unicode-bidi="normal" text-decoration="none" transform="matrix(1 0 0 1 5193.14 1399)">Heap Sort</text></g><g clip-path="url(#clip26)"><rect x="4741" y="2406" width="22" height="22" fill="#FFC000" fill-opacity="1"/></g><g clip-path="url(#clip27)"><text fill="#595959" fill-opacity="1" font-family="Calibri,Calibri_MSFontService,sans-serif" font-style="normal" font-variant="normal" font-weight="400" font-stretch="normal" font-size="41" text-anchor="start" direction="ltr" writing-mode="lr-tb" unicode-bidi="normal" text-decoration="none" transform="matrix(1 0 0 1 4773.08 2428)">Arquivo Decrescente</text></g><g clip-path="url(#clip28)"><rect x="5190" y="2406" width="22" height="22" fill="#70AD47" fill-opacity="1"/></g><g clip-path="url(#clip29)"><text fill="#595959" fill-opacity="1" font-family="Calibri,Calibri_MSFontService,sans-serif" font-style="normal" font-variant="normal" font-weight="400" font-stretch="normal" font-size="41" text-anchor="start" direction="ltr" writing-mode="lr-tb" unicode-bidi="normal" text-decoration="none" transform="matrix(1 0 0 1 5222 2428)">Arquivo Aleatório</text></g><g clip-path="url(#clip30)"><rect x="5585" y="2406" width="23" height="22" fill="#ED7D31" fill-opacity="1"/></g><g clip-path="url(#clip31)"><text fill="#595959" fill-opacity="1" font-family="Calibri,Calibri_MSFontService,sans-serif" font-style="normal" font-variant="normal" font-weight="400" font-stretch="normal" font-size="41" text-anchor="start" direction="ltr" writing-mode="lr-tb" unicode-bidi="normal" text-decoration="none" transform="matrix(1 0 0 1 5617.33 2428)">Arquivo Crescente</text></g><rect x="4320.5" y="1303.5" width="2009" height="1180" stroke="#D9D9D9" stroke-width="3.4375" stroke-linecap="butt" stroke-linejoin="round" stroke-miterlimit="10" stroke-opacity="1" fill="none"/></g></svg>