<svg width="2016" height="1187" xmlns="http://www.w3.org/2000/svg" xmlns:xlink="http://www.w3.org/1999/xlink" overflow="hidden"><defs><clipPath id="clip0"><rect x="4322" y="100" width="2016" height="1187"/></clipPath><clipPath id="clip1"><rect x="4324" y="105" width="2009" height="1180"/></clipPath><clipPath id="clip2"><rect x="4552" y="275" width="1734" height="705"/></clipPath><clipPath id="clip3"><rect x="4552" y="275" width="1734" height="705"/></clipPath><clipPath id="clip4"><rect x="4552" y="275" width="1734" height="705"/></clipPath><clipPath id="clip5"><rect x="4324" y="105" width="2009" height="1180"/></clipPath><clipPath id="clip6"><rect x="4324" y="105" width="2009" height="1180"/></clipPath><clipPath id="clip7"><rect x="4324" y="105" width="2009" height="1180"/></clipPath><clipPath id="clip8"><rect x="4324" y="105" width="2009" height="1180"/></clipPath><clipPath id="clip9"><rect x="4324" y="105" width="2009" height="1180"/></clipPath><clipPath id="clip10"><rect x="4324" y="105" width="2009" height="1180"/></clipPath><clipPath id="clip11"><rect x="4324" y="105" width="2009" height="1180"/></clipPath><clipPath id="clip12"><rect x="4324" y="105" width="2009" height="1180"/></clipPath><clipPath id="clip13"><rect x="4324" y="105" width="2009" height="1180"/></clipPath><clipPath id="clip14"><rect x="4324" y="105" width="2009" height="1180"/></clipPath><clipPath id="clip15"><rect x="4324" y="105" width="2009" height="1180"/></clipPath><clipPath id="clip16"><rect x="4324" y="105" width="2009" height="1180"/></clipPath><clipPath id="clip17"><rect x="4324" y="105" width="2009" height="1180"/></clipPath><clipPath id="clip18"><rect x="4324" y="105" width="2009" height="1180"/></clipPath><clipPath id="clip19"><rect x="4324" y="105" width="2009" height="1180"/></clipPath><clipPath id="clip20"><rect x="4324" y="105" width="2009" height="1180"/></clipPath><clipPath id="clip21"><rect x="4324" y="105" width="2009" height="1180"/></clipPath><clipPath id="clip22"><rect x="4324" y="105" width="2009" height="1180"/></clipPath><clipPath id="clip23"><rect x="4324" y="105" width="2009" height="1180"/></clipPath><clipPath id="clip24"><rect x="4324" y="105" width="2009" height="1180"/></clipPath><clipPath id="clip25"><rect x="4324" y="105" width="2009" height="1180"/></clipPath><clipPath id="clip26"><rect x="4324" y="105" width="2009" height="1180"/></clipPath><clipPath id="clip27"><rect x="4324" y="105" width="2009" height="1180"/></clipPath><clipPath id="clip28"><rect x="4324" y="105" width="2009" height="1180"/></clipPath><clipPath id="clip29"><rect x="4324" y="105" width="2009" height="1180"/></clipPath><clipPath id="clip30"><rect x="4324" y="105" width="2009" height="1180"/></clipPath><clipPath id="clip31"><rect x="4324" y="105" width="2009" height="1180"/></clipPath><clipPath id="clip32"><rect x="4324" y="105" width="2009" height="1180"/></clipPath></defs><g clip-path="url(#clip0)" transform="translate(-4322 -100)"><rect x="4325" y="105" width="2009" height="1180" fill="#FFFFFF" fill-opacity="1"/><g clip-path="url(#clip1)"><path d="M4552.5 876.529 6283.5 876.529M4552.5 776.526 6283.5 776.526M4552.5 676.522 6283.5 676.522M4552.5 576.519 6283.5 576.519M4552.5 475.516 6283.5 475.516M4552.5 375.513 6283.5 375.513M4552.5 275.5 6283.5 275.5" stroke="#D9D9D9" stroke-width="3.4375" stroke-linecap="butt" stroke-linejoin="round" stroke-miterlimit="10" stroke-opacity="1" fill="none" fill-rule="nonzero"/></g><g clip-path="url(#clip2)"><path d="M4594.15 976 4632.15 976 4632.15 977 4594.15 977ZM4810.16 976 4848.16 976 4848.16 977 4810.16 977ZM5027.17 976 5064.17 976 5064.17 977 5027.17 977ZM5243.17 976 5281.17 976 5281.17 977 5243.17 977ZM5459.18 976 5497.18 976 5497.18 977 5459.18 977ZM5675.19 976 5713.19 976 5713.19 977 5675.19 977ZM5892.19 976 5930.19 976 5930.19 977 5892.19 977ZM6108.2 976 6146.2 976 6146.2 977 6108.2 977Z" fill="#FFC000" fill-rule="nonzero" fill-opacity="1"/></g><g clip-path="url(#clip3)"><path d="M4642.15 976 4680.15 976 4680.15 977 4642.15 977ZM4858.16 976 4896.16 976 4896.16 977 4858.16 977ZM5074.17 976 5112.17 976 5112.17 977 5074.17 977ZM5291.17 976 5329.17 976 5329.17 977 5291.17 977ZM5507.18 976.032 5545.18 976.032 5545.18 977 5507.18 977ZM5723.19 954.031 5761.19 954.031 5761.19 977 5723.19 977ZM5940.19 891.029 5978.2 891.029 5978.2 977 5940.19 977ZM6156.2 656.022 6194.2 656.022 6194.2 977 6156.2 977Z" fill="#70AD47" fill-rule="nonzero" fill-opacity="1"/></g><g clip-path="url(#clip4)"><path d="M4690.15 976 4728.16 976 4728.16 977 4690.15 977ZM4906.16 976 4944.16 976 4944.16 977 4906.16 977ZM5122.17 976 5160.17 976 5160.17 977 5122.17 977ZM5339.18 976 5376.18 976 5376.18 977 5339.18 977ZM5555.18 975.032 5593.18 975.032 5593.18 977 5555.18 977ZM5771.19 938.031 5809.19 938.031 5809.19 977 5771.19 977ZM5988.2 821.027 6025.2 821.027 6025.2 977 5988.2 977ZM6204.2 355.012 6242.2 355.012 6242.2 977 6204.2 977Z" fill="#ED7D31" fill-rule="nonzero" fill-opacity="1"/></g><g clip-path="url(#clip5)"><path d="M0 0 0.000360892 702" stroke="#4472C4" stroke-width="3.4375" stroke-linecap="butt" stroke-linejoin="round" stroke-miterlimit="10" stroke-opacity="1" fill="none" fill-rule="evenodd" transform="matrix(1 0 0 -1 4552.5 977.5)"/></g><g clip-path="url(#clip6)"><path d="M4552.5 977.5 6283.5 977.5" stroke="#D9D9D9" stroke-width="3.4375" stroke-linecap="butt" stroke-linejoin="round" stroke-miterlimit="10" stroke-opacity="1" fill="none" fill-rule="evenodd"/></g><g clip-path="url(#clip7)"><path d="M4552.5 963.5 4552.5 990.5M4768.66 963.5 4768.66 990.5M4985.66 963.5 4985.66 990.5M5201.67 963.5 5201.67 990.5M5417.68 963.5 5417.68 990.5M5634.69 963.5 5634.69 990.5M5850.69 963.5 5850.69 990.5M6066.7 963.5 6066.7 990.5M6283.5 963.5 6283.5 990.5" stroke="#D9D9D9" stroke-width="3.4375" stroke-linecap="butt" stroke-linejoin="round" stroke-miterlimit="10" stroke-opacity="1" fill="none" fill-rule="nonzero"/></g><g clip-path="url(#clip8)"><text fill="#595959" fill-opacity="1" font-family="Calibri,Calibri_MSFontService,sans-serif" font-style="normal" font-variant="normal" font-weight="400" font-stretch="normal" font-size="41" text-anchor="start" direction="ltr" writing-mode="lr-tb" unicode-bidi="normal" text-decoration="none" transform="matrix(1 0 0 1 4493.55 988)">0</text></g><g clip-path="url(#clip9)"><text fill="#595959" fill-opacity="1" font-family="Calibri,Calibri_MSFontService,sans-serif" font-style="normal" font-variant="normal" font-weight="400" font-stretch="normal" font-size="41" text-anchor="start" direction="ltr" writing-mode="lr-tb" unicode-bidi="normal" text-decoration="none" transform="matrix(1 0 0 1 4472.65 887)">50</text></g><g clip-path="url(#clip10)"><text fill="#595959" fill-opacity="1" font-family="Calibri,Calibri_MSFontService,sans-serif" font-style="normal" font-variant="normal" font-weight="400" font-stretch="normal" font-size="41" text-anchor="start" direction="ltr" writing-mode="lr-tb" unicode-bidi="normal" text-decoration="none" transform="matrix(1 0 0 1 4451.75 787)">100</text></g><g clip-path="url(#clip11)"><text fill="#595959" fill-opacity="1" font-family="Calibri,Calibri_MSFontService,sans-serif" font-style="normal" font-variant="normal" font-weight="400" font-stretch="normal" font-size="41" text-anchor="start" direction="ltr" writing-mode="lr-tb" unicode-bidi="normal" text-decoration="none" transform="matrix(1 0 0 1 4451.75 687)">150</text></g><g clip-path="url(#clip12)"><text fill="#595959" fill-opacity="1" font-family="Calibri,Calibri_MSFontService,sans-serif" font-style="normal" font-variant="normal" font-weight="400" font-stretch="normal" font-size="41" text-anchor="start" direction="ltr" writing-mode="lr-tb" unicode-bidi="normal" text-decoration="none" transform="matrix(1 0 0 1 4451.75 587)">200</text></g><g clip-path="url(#clip13)"><text fill="#595959" fill-opacity="1" font-family="Calibri,Calibri_MSFontService,sans-serif" font-style="normal" font-variant="normal" font-weight="400" font-stretch="normal" font-size="41" text-anchor="start" direction="ltr" writing-mode="lr-tb" unicode-bidi="normal" text-decoration="none" transform="matrix(1 0 0 1 4451.75 486)">250</text></g><g clip-path="url(#clip14)"><text fill="#595959" fill-opacity="1" font-family="Calibri,Calibri_MSFontService,sans-serif" font-style="normal" font-variant="normal" font-weight="400" font-stretch="normal" font-size="41" text-anchor="start" direction="ltr" writing-mode="lr-tb" unicode-bidi="normal" text-decoration="none" transform="matrix(1 0 0 1 4451.75 386)">300</text></g><g clip-path="url(#clip15)"><text fill="#595959" fill-opacity="1" font-family="Calibri,Calibri_MSFontService,sans-serif" font-style="normal" font-variant="normal" font-weight="400" font-stretch="normal" font-size="41" text-anchor="start" direction="ltr" writing-mode="lr-tb" unicode-bidi="normal" text-decoration="none" transform="matrix(1 0 0 1 4451.75 286)">350</text></g><g clip-path="url(#clip16)"><text fill="#595959" fill-opacity="1" font-family="Calibri,Calibri_MSFontService,sans-serif" font-style="normal" font-variant="normal" font-weight="400" font-stretch="normal" font-size="41" text-anchor="start" direction="ltr" writing-mode="lr-tb" unicode-bidi="normal" text-decoration="none" transform="matrix(1 0 0 1 4629.52 1042)">100</text></g><g clip-path="url(#clip17)"><text fill="#595959" fill-opacity="1" font-family="Calibri,Calibri_MSFontService,sans-serif" font-style="normal" font-variant="normal" font-weight="400" font-stretch="normal" font-size="41" text-anchor="start" direction="ltr" writing-mode="lr-tb" unicode-bidi="normal" text-decoration="none" transform="matrix(1 0 0 1 4845.84 1042)">500</text></g><g clip-path="url(#clip18)"><text fill="#595959" fill-opacity="1" font-family="Calibri,Calibri_MSFontService,sans-serif" font-style="normal" font-variant="normal" font-weight="400" font-stretch="normal" font-size="41" text-anchor="start" direction="ltr" writing-mode="lr-tb" unicode-bidi="normal" text-decoration="none" transform="matrix(1 0 0 1 5051.72 1042)">1000</text></g><g clip-path="url(#clip19)"><text fill="#595959" fill-opacity="1" font-family="Calibri,Calibri_MSFontService,sans-serif" font-style="normal" font-variant="normal" font-weight="400" font-stretch="normal" font-size="41" text-anchor="start" direction="ltr" writing-mode="lr-tb" unicode-bidi="normal" text-decoration="none" transform="matrix(1 0 0 1 5268.05 1042)">5000</text></g><g clip-path="url(#clip20)"><text fill="#595959" fill-opacity="1" font-family="Calibri,Calibri_MSFontService,sans-serif" font-style="normal" font-variant="normal" font-weight="400" font-stretch="normal" font-size="41" text-anchor="start" direction="ltr" writing-mode="lr-tb" unicode-bidi="normal" text-decoration="none" transform="matrix(1 0 0 1 5473.92 1042)">10000</text></g><g clip-path="url(#clip21)"><text fill="#595959" fill-opacity="1" font-family="Calibri,Calibri_MSFontService,sans-serif" font-style="normal" font-variant="normal" font-weight="400" font-stretch="normal" font-size="41" text-anchor="start" direction="ltr" writing-mode="lr-tb" unicode-bidi="normal" text-decoration="none" transform="matrix(1 0 0 1 5690.25 1042)">50000</text></g><g clip-path="url(#clip22)"><text fill="#595959" fill-opacity="1" font-family="Calibri,Calibri_MSFontService,sans-serif" font-style="normal" font-variant="normal" font-weight="400" font-stretch="normal" font-size="41" text-anchor="start" direction="ltr" writing-mode="lr-tb" unicode-bidi="normal" text-decoration="none" transform="matrix(1 0 0 1 5896.13 1042)">100000</text></g><g clip-path="url(#clip23)"><text fill="#595959" fill-opacity="1" font-family="Calibri,Calibri_MSFontService,sans-serif" font-style="normal" font-variant="normal" font-weight="400" font-stretch="normal" font-size="41" text-anchor="start" direction="ltr" writing-mode="lr-tb" unicode-bidi="normal" text-decoration="none" transform="matrix(1 0 0 1 6112.45 1042)">200000</text></g><g clip-path="url(#clip24)"><text fill="#595959" fill-opacity="1" font-family="Calibri,Calibri_MSFontService,sans-serif" font-style="normal" font-variant="normal" font-weight="400" font-stretch="normal" font-size="46" text-anchor="start" direction="ltr" writing-mode="lr-tb" unicode-bidi="normal" text-decoration="none" transform="matrix(6.12323e-17 -1 1 6.12323e-17 4403.2 993)">Tempo de execução em segundos</text></g><g clip-path="url(#clip25)"><text fill="#595959" fill-opacity="1" font-family="Calibri,Calibri_MSFontService,sans-serif" font-style="normal" font-variant="normal" font-weight="400" font-stretch="normal" font-size="46" text-anchor="start" direction="ltr" writing-mode="lr-tb" unicode-bidi="normal" text-decoration="none" transform="matrix(1 0 0 1 5133.53 1132)">Tamanho do arquivo de entrada</text></g><g clip-path="url(#clip26)"><text fill="#595959" fill-opacity="1" font-family="Calibri,Calibri_MSFontService,sans-serif" font-style="normal" font-variant="normal" font-weight="700" font-stretch="normal" font-size="64" text-anchor="start" direction="ltr" writing-mode="lr-tb" unicode-bidi="normal" text-decoration="none" transform="matrix(1 0 0 1 5147.47 201)">Insertion Sort</text></g><g clip-path="url(#clip27)"><rect x="4745" y="1208" width="23" height="22" fill="#FFC000" fill-opacity="1"/></g><g clip-path="url(#clip28)"><text fill="#595959" fill-opacity="1" font-family="Calibri,Calibri_MSFontService,sans-serif" font-style="normal" font-variant="normal" font-weight="400" font-stretch="normal" font-size="41" text-anchor="start" direction="ltr" writing-mode="lr-tb" unicode-bidi="normal" text-decoration="none" transform="matrix(1 0 0 1 4777.56 1230)">Arquivo Decrescente</text></g><g clip-path="url(#clip29)"><rect x="5194" y="1208" width="23" height="22" fill="#70AD47" fill-opacity="1"/></g><g clip-path="url(#clip30)"><text fill="#595959" fill-opacity="1" font-family="Calibri,Calibri_MSFontService,sans-serif" font-style="normal" font-variant="normal" font-weight="400" font-stretch="normal" font-size="41" text-anchor="start" direction="ltr" writing-mode="lr-tb" unicode-bidi="normal" text-decoration="none" transform="matrix(1 0 0 1 5226.49 1230)">Arquivo Aleatório</text></g><g clip-path="url(#clip31)"><rect x="5590" y="1208" width="22" height="22" fill="#ED7D31" fill-opacity="1"/></g><g clip-path="url(#clip32)"><text fill="#595959" fill-opacity="1" font-family="Calibri,Calibri_MSFontService,sans-serif" font-style="normal" font-variant="normal" font-weight="400" font-stretch="normal" font-size="41" text-anchor="start" direction="ltr" writing-mode="lr-tb" unicode-bidi="normal" text-decoration="none" transform="matrix(1 0 0 1 5621.81 1230)">Arquivo Crescente</text></g><rect x="4325.5" y="105.5" width="2009" height="1180" stroke="#D9D9D9" stroke-width="3.4375" stroke-linecap="butt" stroke-linejoin="round" stroke-miterlimit="10" stroke-opacity="1" fill="none"/></g></svg>