<svg width="2017" height="1187" xmlns="http://www.w3.org/2000/svg" xmlns:xlink="http://www.w3.org/1999/xlink" overflow="hidden"><defs><clipPath id="clip0"><rect x="6370" y="100" width="2017" height="1187"/></clipPath><clipPath id="clip1"><rect x="6372" y="103" width="2009" height="1180"/></clipPath><clipPath id="clip2"><rect x="6631" y="273" width="1703" height="705"/></clipPath><clipPath id="clip3"><rect x="6631" y="273" width="1703" height="705"/></clipPath><clipPath id="clip4"><rect x="6631" y="273" width="1703" height="705"/></clipPath><clipPath id="clip5"><rect x="6372" y="103" width="2009" height="1180"/></clipPath><clipPath id="clip6"><rect x="6372" y="103" width="2009" height="1180"/></clipPath><clipPath id="clip7"><rect x="6372" y="103" width="2009" height="1180"/></clipPath><clipPath id="clip8"><rect x="6372" y="103" width="2009" height="1180"/></clipPath><clipPath id="clip9"><rect x="6372" y="103" width="2009" height="1180"/></clipPath><clipPath id="clip10"><rect x="6372" y="103" width="2009" height="1180"/></clipPath><clipPath id="clip11"><rect x="6372" y="103" width="2009" height="1180"/></clipPath><clipPath id="clip12"><rect x="6372" y="103" width="2009" height="1180"/></clipPath><clipPath id="clip13"><rect x="6372" y="103" width="2009" height="1180"/></clipPath><clipPath id="clip14"><rect x="6372" y="103" width="2009" height="1180"/></clipPath><clipPath id="clip15"><rect x="6372" y="103" width="2009" height="1180"/></clipPath><clipPath id="clip16"><rect x="6372" y="103" width="2009" height="1180"/></clipPath><clipPath id="clip17"><rect x="6372" y="103" width="2009" height="1180"/></clipPath><clipPath id="clip18"><rect x="6372" y="103" width="2009" height="1180"/></clipPath><clipPath id="clip19"><rect x="6372" y="103" width="2009" height="1180"/></clipPath><clipPath id="clip20"><rect x="6372" y="103" width="2009" height="1180"/></clipPath><clipPath id="clip21"><rect x="6372" y="103" width="2009" height="1180"/></clipPath><clipPath id="clip22"><rect x="6372" y="103" width="2009" height="1180"/></clipPath><clipPath id="clip23"><rect x="6372" y="103" width="2009" height="1180"/></clipPath><clipPath id="clip24"><rect x="6372" y="103" width="2009" height="1180"/></clipPath><clipPath id="clip25"><rect x="6372" y="103" width="2009" height="1180"/></clipPath><clipPath id="clip26"><rect x="6372" y="103" width="2009" height="1180"/></clipPath><clipPath id="clip27"><rect x="6372" y="103" width="2009" height="1180"/></clipPath><clipPath id="clip28"><rect x="6372" y="103" width="2009" height="1180"/></clipPath><clipPath id="clip29"><rect x="6372" y="103" width="2009" height="1180"/></clipPath><clipPath id="clip30"><rect x="6372" y="103" width="2009" height="1180"/></clipPath><clipPath id="clip31"><rect x="6372" y="103" width="2009" height="1180"/></clipPath><clipPath id="clip32"><rect x="6372" y="103" width="2009" height="1180"/></clipPath><clipPath id="clip33"><rect x="6372" y="103" width="2009" height="1180"/></clipPath><clipPath id="clip34"><rect x="6372" y="103" width="2009" height="1180"/></clipPath><clipPath id="clip35"><rect x="6372" y="103" width="2009" height="1180"/></clipPath></defs><g clip-path="url(#clip0)" transform="translate(-6370 -100)"><rect x="6373" y="104" width="2009" height="1180" fill="#FFFFFF" fill-opacity="1"/><g clip-path="url(#clip1)"><path d="M6631.5 905.53 8331.5 905.53M6631.5 834.528 8331.5 834.528M6631.5 764.525 8331.5 764.525M6631.5 694.523 8331.5 694.523M6631.5 624.521 8331.5 624.521M6631.5 554.518 8331.5 554.518M6631.5 484.516 8331.5 484.516M6631.5 413.514 8331.5 413.514M6631.5 343.511 8331.5 343.511M6631.5 273.5 8331.5 273.5" stroke="#D9D9D9" stroke-width="3.4375" stroke-linecap="butt" stroke-linejoin="round" stroke-miterlimit="10" stroke-opacity="1" fill="none" fill-rule="nonzero"/></g><g clip-path="url(#clip2)"><path d="M6672.22 692.023 6709.22 692.023 6709.22 975 6672.22 975ZM6885.23 651.021 6922.23 651.021 6922.23 975 6885.23 975ZM7097.23 653.021 7134.23 653.021 7134.23 975 7097.23 975ZM7310.24 636.021 7347.24 636.021 7347.24 975 7310.24 975ZM7522.25 615.02 7559.25 615.02 7559.25 975 7522.25 975ZM7734.25 566.019 7771.25 566.019 7771.25 975 7734.25 975ZM7947.26 477.016 7984.26 477.016 7984.26 975 7947.26 975ZM8159.27 347.011 8196.27 347.011 8196.27 975 8159.27 975Z" fill="#FFC000" fill-rule="nonzero" fill-opacity="1"/></g><g clip-path="url(#clip3)"><path d="M6719.22 717.023 6756.22 717.023 6756.22 975 6719.22 975ZM6932.23 703.023 6969.23 703.023 6969.23 975 6932.23 975ZM7144.23 686.023 7181.24 686.023 7181.24 975 7144.23 975ZM7357.24 682.022 7394.24 682.022 7394.24 975 7357.24 975ZM7569.25 641.021 7606.25 641.021 7606.25 975 7569.25 975ZM7782.26 622.02 7819.26 622.02 7819.26 975 7782.26 975ZM7994.26 511.017 8031.26 511.017 8031.26 975 7994.26 975ZM8206.27 339.011 8243.27 339.011 8243.27 975 8206.27 975Z" fill="#70AD47" fill-rule="nonzero" fill-opacity="1"/></g><g clip-path="url(#clip4)"><path d="M6766.22 694.023 6804.22 694.023 6804.22 975 6766.22 975ZM6979.23 636.021 7016.23 636.021 7016.23 975 6979.23 975ZM7191.24 632.021 7228.24 632.021 7228.24 975 7191.24 975ZM7404.24 627.021 7441.24 627.021 7441.24 975 7404.24 975ZM7616.25 622.02 7653.25 622.02 7653.25 975 7616.25 975ZM7829.26 585.019 7866.26 585.019 7866.26 975 7829.26 975ZM8041.26 559.018 8078.27 559.018 8078.27 975 8041.26 975ZM8253.27 430.014 8291.27 430.014 8291.27 975 8253.27 975Z" fill="#ED7D31" fill-rule="nonzero" fill-opacity="1"/></g><g clip-path="url(#clip5)"><path d="M0 0 0.000360892 702" stroke="#4472C4" stroke-width="3.4375" stroke-linecap="butt" stroke-linejoin="round" stroke-miterlimit="10" stroke-opacity="1" fill="none" fill-rule="evenodd" transform="matrix(1 0 0 -1 6631.5 975.5)"/></g><g clip-path="url(#clip6)"><path d="M6631.5 975.5 8331.5 975.5" stroke="#D9D9D9" stroke-width="3.4375" stroke-linecap="butt" stroke-linejoin="round" stroke-miterlimit="10" stroke-opacity="1" fill="none" fill-rule="evenodd"/></g><g clip-path="url(#clip7)"><path d="M6631.5 962.5 6631.5 988.5M6844.72 962.5 6844.72 988.5M7056.73 962.5 7056.73 988.5M7268.74 962.5 7268.74 988.5M7481.75 962.5 7481.75 988.5M7693.75 962.5 7693.75 988.5M7906.76 962.5 7906.76 988.5M8118.77 962.5 8118.77 988.5M8331.5 962.5 8331.5 988.5" stroke="#D9D9D9" stroke-width="3.4375" stroke-linecap="butt" stroke-linejoin="round" stroke-miterlimit="10" stroke-opacity="1" fill="none" fill-rule="nonzero"/></g><g clip-path="url(#clip8)"><text fill="#595959" fill-opacity="1" font-family="Calibri,Calibri_MSFontService,sans-serif" font-style="normal" font-variant="normal" font-weight="400" font-stretch="normal" font-size="41" text-anchor="start" direction="ltr" writing-mode="lr-tb" unicode-bidi="normal" text-decoration="none" transform="matrix(1 0 0 1 6499.81 986)">0,000</text></g><g clip-path="url(#clip9)"><text fill="#595959" fill-opacity="1" font-family="Calibri,Calibri_MSFontService,sans-serif" font-style="normal" font-variant="normal" font-weight="400" font-stretch="normal" font-size="41" text-anchor="start" direction="ltr" writing-mode="lr-tb" unicode-bidi="normal" text-decoration="none" transform="matrix(1 0 0 1 6499.81 916)">0,050</text></g><g clip-path="url(#clip10)"><text fill="#595959" fill-opacity="1" font-family="Calibri,Calibri_MSFontService,sans-serif" font-style="normal" font-variant="normal" font-weight="400" font-stretch="normal" font-size="41" text-anchor="start" direction="ltr" writing-mode="lr-tb" unicode-bidi="normal" text-decoration="none" transform="matrix(1 0 0 1 6499.81 845)">0,100</text></g><g clip-path="url(#clip11)"><text fill="#595959" fill-opacity="1" font-family="Calibri,Calibri_MSFontService,sans-serif" font-style="normal" font-variant="normal" font-weight="400" font-stretch="normal" font-size="41" text-anchor="start" direction="ltr" writing-mode="lr-tb" unicode-bidi="normal" text-decoration="none" transform="matrix(1 0 0 1 6499.81 775)">0,150</text></g><g clip-path="url(#clip12)"><text fill="#595959" fill-opacity="1" font-family="Calibri,Calibri_MSFontService,sans-serif" font-style="normal" font-variant="normal" font-weight="400" font-stretch="normal" font-size="41" text-anchor="start" direction="ltr" writing-mode="lr-tb" unicode-bidi="normal" text-decoration="none" transform="matrix(1 0 0 1 6499.81 705)">0,200</text></g><g clip-path="url(#clip13)"><text fill="#595959" fill-opacity="1" font-family="Calibri,Calibri_MSFontService,sans-serif" font-style="normal" font-variant="normal" font-weight="400" font-stretch="normal" font-size="41" text-anchor="start" direction="ltr" writing-mode="lr-tb" unicode-bidi="normal" text-decoration="none" transform="matrix(1 0 0 1 6499.81 635)">0,250</text></g><g clip-path="url(#clip14)"><text fill="#595959" fill-opacity="1" font-family="Calibri,Calibri_MSFontService,sans-serif" font-style="normal" font-variant="normal" font-weight="400" font-stretch="normal" font-size="41" text-anchor="start" direction="ltr" writing-mode="lr-tb" unicode-bidi="normal" text-decoration="none" transform="matrix(1 0 0 1 6499.81 565)">0,300</text></g><g clip-path="url(#clip15)"><text fill="#595959" fill-opacity="1" font-family="Calibri,Calibri_MSFontService,sans-serif" font-style="normal" font-variant="normal" font-weight="400" font-stretch="normal" font-size="41" text-anchor="start" direction="ltr" writing-mode="lr-tb" unicode-bidi="normal" text-decoration="none" transform="matrix(1 0 0 1 6499.81 495)">0,350</text></g><g clip-path="url(#clip16)"><text fill="#595959" fill-opacity="1" font-family="Calibri,Calibri_MSFontService,sans-serif" font-style="normal" font-variant="normal" font-weight="400" font-stretch="normal" font-size="41" text-anchor="start" direction="ltr" writing-mode="lr-tb" unicode-bidi="normal" text-decoration="none" transform="matrix(1 0 0 1 6499.81 424)">0,400</text></g><g clip-path="url(#clip17)"><text fill="#595959" fill-opacity="1" font-family="Calibri,Calibri_MSFontService,sans-serif" font-style="normal" font-variant="normal" font-weight="400" font-stretch="normal" font-size="41" text-anchor="start" direction="ltr" writing-mode="lr-tb" unicode-bidi="normal" text-decoration="none" transform="matrix(1 0 0 1 6499.81 354)">0,450</text></g><g clip-path="url(#clip18)"><text fill="#595959" fill-opacity="1" font-family="Calibri,Calibri_MSFontService,sans-serif" font-style="normal" font-variant="normal" font-weight="400" font-stretch="normal" font-size="41" text-anchor="start" direction="ltr" writing-mode="lr-tb" unicode-bidi="normal" text-decoration="none" transform="matrix(1 0 0 1 6499.81 284)">0,500</text></g><g clip-path="url(#clip19)"><text fill="#595959" fill-opacity="1" font-family="Calibri,Calibri_MSFontService,sans-serif" font-style="normal" font-variant="normal" font-weight="400" font-stretch="normal" font-size="41" text-anchor="start" direction="ltr" writing-mode="lr-tb" unicode-bidi="normal" text-decoration="none" transform="matrix(1 0 0 1 6706.81 1040)">100</text></g><g clip-path="url(#clip20)"><text fill="#595959" fill-opacity="1" font-family="Calibri,Calibri_MSFontService,sans-serif" font-style="normal" font-variant="normal" font-weight="400" font-stretch="normal" font-size="41" text-anchor="start" direction="ltr" writing-mode="lr-tb" unicode-bidi="normal" text-decoration="none" transform="matrix(1 0 0 1 6919.24 1040)">500</text></g><g clip-path="url(#clip21)"><text fill="#595959" fill-opacity="1" font-family="Calibri,Calibri_MSFontService,sans-serif" font-style="normal" font-variant="normal" font-weight="400" font-stretch="normal" font-size="41" text-anchor="start" direction="ltr" writing-mode="lr-tb" unicode-bidi="normal" text-decoration="none" transform="matrix(1 0 0 1 7121.21 1040)">1000</text></g><g clip-path="url(#clip22)"><text fill="#595959" fill-opacity="1" font-family="Calibri,Calibri_MSFontService,sans-serif" font-style="normal" font-variant="normal" font-weight="400" font-stretch="normal" font-size="41" text-anchor="start" direction="ltr" writing-mode="lr-tb" unicode-bidi="normal" text-decoration="none" transform="matrix(1 0 0 1 7333.64 1040)">5000</text></g><g clip-path="url(#clip23)"><text fill="#595959" fill-opacity="1" font-family="Calibri,Calibri_MSFontService,sans-serif" font-style="normal" font-variant="normal" font-weight="400" font-stretch="normal" font-size="41" text-anchor="start" direction="ltr" writing-mode="lr-tb" unicode-bidi="normal" text-decoration="none" transform="matrix(1 0 0 1 7535.62 1040)">10000</text></g><g clip-path="url(#clip24)"><text fill="#595959" fill-opacity="1" font-family="Calibri,Calibri_MSFontService,sans-serif" font-style="normal" font-variant="normal" font-weight="400" font-stretch="normal" font-size="41" text-anchor="start" direction="ltr" writing-mode="lr-tb" unicode-bidi="normal" text-decoration="none" transform="matrix(1 0 0 1 7748.05 1040)">50000</text></g><g clip-path="url(#clip25)"><text fill="#595959" fill-opacity="1" font-family="Calibri,Calibri_MSFontService,sans-serif" font-style="normal" font-variant="normal" font-weight="400" font-stretch="normal" font-size="41" text-anchor="start" direction="ltr" writing-mode="lr-tb" unicode-bidi="normal" text-decoration="none" transform="matrix(1 0 0 1 7950.03 1040)">100000</text></g><g clip-path="url(#clip26)"><text fill="#595959" fill-opacity="1" font-family="Calibri,Calibri_MSFontService,sans-serif" font-style="normal" font-variant="normal" font-weight="400" font-stretch="normal" font-size="41" text-anchor="start" direction="ltr" writing-mode="lr-tb" unicode-bidi="normal" text-decoration="none" transform="matrix(1 0 0 1 8162.46 1040)">200000</text></g><g clip-path="url(#clip27)"><text fill="#595959" fill-opacity="1" font-family="Calibri,Calibri_MSFontService,sans-serif" font-style="normal" font-variant="normal" font-weight="400" font-stretch="normal" font-size="46" text-anchor="start" direction="ltr" writing-mode="lr-tb" unicode-bidi="normal" text-decoration="none" transform="matrix(6.12323e-17 -1 1 6.12323e-17 6451.25 992)">Tempo de execução em segundos</text></g><g clip-path="url(#clip28)"><text fill="#595959" fill-opacity="1" font-family="Calibri,Calibri_MSFontService,sans-serif" font-style="normal" font-variant="normal" font-weight="400" font-stretch="normal" font-size="46" text-anchor="start" direction="ltr" writing-mode="lr-tb" unicode-bidi="normal" text-decoration="none" transform="matrix(1 0 0 1 7181.58 1130)">Tamanho do arquivo de entrada</text></g><g clip-path="url(#clip29)"><text fill="#595959" fill-opacity="1" font-family="Calibri,Calibri_MSFontService,sans-serif" font-style="normal" font-variant="normal" font-weight="700" font-stretch="normal" font-size="64" text-anchor="start" direction="ltr" writing-mode="lr-tb" unicode-bidi="normal" text-decoration="none" transform="matrix(1 0 0 1 7084.39 199)">Quick Sort Melhorado</text></g><g clip-path="url(#clip30)"><rect x="6793" y="1206" width="23" height="23" fill="#FFC000" fill-opacity="1"/></g><g clip-path="url(#clip31)"><text fill="#595959" fill-opacity="1" font-family="Calibri,Calibri_MSFontService,sans-serif" font-style="normal" font-variant="normal" font-weight="400" font-stretch="normal" font-size="41" text-anchor="start" direction="ltr" writing-mode="lr-tb" unicode-bidi="normal" text-decoration="none" transform="matrix(1 0 0 1 6825.61 1228)">Arquivo Decrescente</text></g><g clip-path="url(#clip32)"><rect x="7242" y="1206" width="23" height="23" fill="#70AD47" fill-opacity="1"/></g><g clip-path="url(#clip33)"><text fill="#595959" fill-opacity="1" font-family="Calibri,Calibri_MSFontService,sans-serif" font-style="normal" font-variant="normal" font-weight="400" font-stretch="normal" font-size="41" text-anchor="start" direction="ltr" writing-mode="lr-tb" unicode-bidi="normal" text-decoration="none" transform="matrix(1 0 0 1 7274.54 1228)">Arquivo Aleatório</text></g><g clip-path="url(#clip34)"><rect x="7638" y="1206" width="22" height="23" fill="#ED7D31" fill-opacity="1"/></g><g clip-path="url(#clip35)"><text fill="#595959" fill-opacity="1" font-family="Calibri,Calibri_MSFontService,sans-serif" font-style="normal" font-variant="normal" font-weight="400" font-stretch="normal" font-size="41" text-anchor="start" direction="ltr" writing-mode="lr-tb" unicode-bidi="normal" text-decoration="none" transform="matrix(1 0 0 1 7669.86 1228)">Arquivo Crescente</text></g><rect x="6373.5" y="104.5" width="2009" height="1180" stroke="#D9D9D9" stroke-width="3.4375" stroke-linecap="butt" stroke-linejoin="round" stroke-miterlimit="10" stroke-opacity="1" fill="none"/></g></svg>