<svg width="2017" height="1187" xmlns="http://www.w3.org/2000/svg" xmlns:xlink="http://www.w3.org/1999/xlink" overflow="hidden"><defs><clipPath id="clip0"><rect x="4312" y="2511" width="2017" height="1187"/></clipPath><clipPath id="clip1"><rect x="4316" y="2514" width="2009" height="1180"/></clipPath><clipPath id="clip2"><rect x="4575" y="2684" width="1703" height="705"/></clipPath><clipPath id="clip3"><rect x="4575" y="2684" width="1703" height="705"/></clipPath><clipPath id="clip4"><rect x="4575" y="2684" width="1703" height="705"/></clipPath><clipPath id="clip5"><rect x="4316" y="2514" width="2009" height="1180"/></clipPath><clipPath id="clip6"><rect x="4316" y="2514" width="2009" height="1180"/></clipPath><clipPath id="clip7"><rect x="4316" y="2514" width="2009" height="1180"/></clipPath><clipPath id="clip8"><rect x="4316" y="2514" width="2009" height="1180"/></clipPath><clipPath id="clip9"><rect x="4316" y="2514" width="2009" height="1180"/></clipPath><clipPath id="clip10"><rect x="4316" y="2514" width="2009" height="1180"/></clipPath><clipPath id="clip11"><rect x="4316" y="2514" width="2009" height="1180"/></clipPath><clipPath id="clip12"><rect x="4316" y="2514" width="2009" height="1180"/></clipPath><clipPath id="clip13"><rect x="4316" y="2514" width="2009" height="1180"/></clipPath><clipPath id="clip14"><rect x="4316" y="2514" width="2009" height="1180"/></clipPath><clipPath id="clip15"><rect x="4316" y="2514" width="2009" height="1180"/></clipPath><clipPath id="clip16"><rect x="4316" y="2514" width="2009" height="1180"/></clipPath><clipPath id="clip17"><rect x="4316" y="2514" width="2009" height="1180"/></clipPath><clipPath id="clip18"><rect x="4316" y="2514" width="2009" height="1180"/></clipPath><clipPath id="clip19"><rect x="4316" y="2514" width="2009" height="1180"/></clipPath><clipPath id="clip20"><rect x="4316" y="2514" width="2009" height="1180"/></clipPath><clipPath id="clip21"><rect x="4316" y="2514" width="2009" height="1180"/></clipPath><clipPath id="clip22"><rect x="4316" y="2514" width="2009" height="1180"/></clipPath><clipPath id="clip23"><rect x="4316" y="2514" width="2009" height="1180"/></clipPath><clipPath id="clip24"><rect x="4316" y="2514" width="2009" height="1180"/></clipPath><clipPath id="clip25"><rect x="4316" y="2514" width="2009" height="1180"/></clipPath><clipPath id="clip26"><rect x="4316" y="2514" width="2009" height="1180"/></clipPath><clipPath id="clip27"><rect x="4316" y="2514" width="2009" height="1180"/></clipPath><clipPath id="clip28"><rect x="4316" y="2514" width="2009" height="1180"/></clipPath><clipPath id="clip29"><rect x="4316" y="2514" width="2009" height="1180"/></clipPath><clipPath id="clip30"><rect x="4316" y="2514" width="2009" height="1180"/></clipPath><clipPath id="clip31"><rect x="4316" y="2514" width="2009" height="1180"/></clipPath><clipPath id="clip32"><rect x="4316" y="2514" width="2009" height="1180"/></clipPath><clipPath id="clip33"><rect x="4316" y="2514" width="2009" height="1180"/></clipPath><clipPath id="clip34"><rect x="4316" y="2514" width="2009" height="1180"/></clipPath><clipPath id="clip35"><rect x="4316" y="2514" width="2009" height="1180"/></clipPath></defs><g clip-path="url(#clip0)" transform="translate(-4312 -2511)"><rect x="4316" y="2515" width="2009" height="1180" fill="#FFFFFF" fill-opacity="1"/><g clip-path="url(#clip1)"><path d="M4575.5 3316.61 6274.5 3316.61M4575.5 3246.61 6274.5 3246.61M4575.5 3175.6 6274.5 3175.6M4575.5 3105.6 6274.5 3105.6M4575.5 3035.6 6274.5 3035.6M4575.5 2965.6 6274.5 2965.6M4575.5 2895.6 6274.5 2895.6M4575.5 2825.59 6274.5 2825.59M4575.5 2754.59 6274.5 2754.59M4575.5 2684.5 6274.5 2684.5" stroke="#D9D9D9" stroke-width="3.4375" stroke-linecap="butt" stroke-linejoin="round" stroke-miterlimit="10" stroke-opacity="1" fill="none" fill-rule="nonzero"/></g><g clip-path="url(#clip2)"><path d="M4616.15 3127.1 4653.15 3127.1 4653.15 3386 4616.15 3386ZM4828.16 3107.1 4865.16 3107.1 4865.16 3386 4828.16 3386ZM5041.17 3029.1 5078.17 3029.1 5078.17 3386 5041.17 3386ZM5253.17 3051.1 5290.17 3051.1 5290.17 3386 5253.17 3386ZM5466.18 3020.1 5503.18 3020.1 5503.18 3386 5466.18 3386ZM5678.19 3004.1 5715.19 3004.1 5715.19 3386 5678.19 3386ZM5890.19 2968.1 5927.19 2968.1 5927.19 3386 5890.19 3386ZM6103.2 2824.09 6140.2 2824.09 6140.2 3386 6103.2 3386Z" fill="#FFC000" fill-rule="nonzero" fill-opacity="1"/></g><g clip-path="url(#clip3)"><path d="M4663.15 3092.1 4700.15 3092.1 4700.15 3386 4663.15 3386ZM4875.16 3067.1 4912.16 3067.1 4912.16 3386 4875.16 3386ZM5088.17 3045.1 5125.17 3045.1 5125.17 3386 5088.17 3386ZM5300.17 3027.1 5337.18 3027.1 5337.18 3386 5300.17 3386ZM5513.18 3054.1 5550.18 3054.1 5550.18 3386 5513.18 3386ZM5725.19 3008.1 5762.19 3008.1 5762.19 3386 5725.19 3386ZM5937.19 2906.1 5975.2 2906.1 5975.2 3386 5937.19 3386ZM6150.2 2737.09 6187.2 2737.09 6187.2 3386 6150.2 3386Z" fill="#70AD47" fill-rule="nonzero" fill-opacity="1"/></g><g clip-path="url(#clip4)"><path d="M4710.15 3109.1 4747.16 3109.1 4747.16 3386 4710.15 3386ZM4922.16 3124.1 4960.16 3124.1 4960.16 3386 4922.16 3386ZM5135.17 3059.1 5172.17 3059.1 5172.17 3386 5135.17 3386ZM5347.18 3037.1 5384.18 3037.1 5384.18 3386 5347.18 3386ZM5560.18 3005.1 5597.18 3005.1 5597.18 3386 5560.18 3386ZM5772.19 3028.1 5809.19 3028.1 5809.19 3386 5772.19 3386ZM5985.2 2961.1 6022.2 2961.1 6022.2 3386 5985.2 3386ZM6197.2 2732.09 6234.2 2732.09 6234.2 3386 6197.2 3386Z" fill="#ED7D31" fill-rule="nonzero" fill-opacity="1"/></g><g clip-path="url(#clip5)"><path d="M0 0 0.000360892 702" stroke="#4472C4" stroke-width="3.4375" stroke-linecap="butt" stroke-linejoin="round" stroke-miterlimit="10" stroke-opacity="1" fill="none" fill-rule="evenodd" transform="matrix(1 0 0 -1 4575.5 3386.5)"/></g><g clip-path="url(#clip6)"><path d="M4575.5 3386.5 6274.5 3386.5" stroke="#D9D9D9" stroke-width="3.4375" stroke-linecap="butt" stroke-linejoin="round" stroke-miterlimit="10" stroke-opacity="1" fill="none" fill-rule="evenodd"/></g><g clip-path="url(#clip7)"><path d="M4575.5 3373.5 4575.5 3399.5M4787.66 3373.5 4787.66 3399.5M5000.66 3373.5 5000.66 3399.5M5212.67 3373.5 5212.67 3399.5M5424.68 3373.5 5424.68 3399.5M5637.69 3373.5 5637.69 3399.5M5849.69 3373.5 5849.69 3399.5M6062.7 3373.5 6062.7 3399.5M6274.5 3373.5 6274.5 3399.5" stroke="#D9D9D9" stroke-width="3.4375" stroke-linecap="butt" stroke-linejoin="round" stroke-miterlimit="10" stroke-opacity="1" fill="none" fill-rule="nonzero"/></g><g clip-path="url(#clip8)"><text fill="#595959" fill-opacity="1" font-family="Calibri,Calibri_MSFontService,sans-serif" font-style="normal" font-variant="normal" font-weight="400" font-stretch="normal" font-size="41" text-anchor="start" direction="ltr" writing-mode="lr-tb" unicode-bidi="normal" text-decoration="none" transform="matrix(1 0 0 1 4443.29 3397)">0,000</text></g><g clip-path="url(#clip9)"><text fill="#595959" fill-opacity="1" font-family="Calibri,Calibri_MSFontService,sans-serif" font-style="normal" font-variant="normal" font-weight="400" font-stretch="normal" font-size="41" text-anchor="start" direction="ltr" writing-mode="lr-tb" unicode-bidi="normal" text-decoration="none" transform="matrix(1 0 0 1 4443.29 3327)">0,050</text></g><g clip-path="url(#clip10)"><text fill="#595959" fill-opacity="1" font-family="Calibri,Calibri_MSFontService,sans-serif" font-style="normal" font-variant="normal" font-weight="400" font-stretch="normal" font-size="41" text-anchor="start" direction="ltr" writing-mode="lr-tb" unicode-bidi="normal" text-decoration="none" transform="matrix(1 0 0 1 4443.29 3257)">0,100</text></g><g clip-path="url(#clip11)"><text fill="#595959" fill-opacity="1" font-family="Calibri,Calibri_MSFontService,sans-serif" font-style="normal" font-variant="normal" font-weight="400" font-stretch="normal" font-size="41" text-anchor="start" direction="ltr" writing-mode="lr-tb" unicode-bidi="normal" text-decoration="none" transform="matrix(1 0 0 1 4443.29 3187)">0,150</text></g><g clip-path="url(#clip12)"><text fill="#595959" fill-opacity="1" font-family="Calibri,Calibri_MSFontService,sans-serif" font-style="normal" font-variant="normal" font-weight="400" font-stretch="normal" font-size="41" text-anchor="start" direction="ltr" writing-mode="lr-tb" unicode-bidi="normal" text-decoration="none" transform="matrix(1 0 0 1 4443.29 3116)">0,200</text></g><g clip-path="url(#clip13)"><text fill="#595959" fill-opacity="1" font-family="Calibri,Calibri_MSFontService,sans-serif" font-style="normal" font-variant="normal" font-weight="400" font-stretch="normal" font-size="41" text-anchor="start" direction="ltr" writing-mode="lr-tb" unicode-bidi="normal" text-decoration="none" transform="matrix(1 0 0 1 4443.29 3046)">0,250</text></g><g clip-path="url(#clip14)"><text fill="#595959" fill-opacity="1" font-family="Calibri,Calibri_MSFontService,sans-serif" font-style="normal" font-variant="normal" font-weight="400" font-stretch="normal" font-size="41" text-anchor="start" direction="ltr" writing-mode="lr-tb" unicode-bidi="normal" text-decoration="none" transform="matrix(1 0 0 1 4443.29 2976)">0,300</text></g><g clip-path="url(#clip15)"><text fill="#595959" fill-opacity="1" font-family="Calibri,Calibri_MSFontService,sans-serif" font-style="normal" font-variant="normal" font-weight="400" font-stretch="normal" font-size="41" text-anchor="start" direction="ltr" writing-mode="lr-tb" unicode-bidi="normal" text-decoration="none" transform="matrix(1 0 0 1 4443.29 2906)">0,350</text></g><g clip-path="url(#clip16)"><text fill="#595959" fill-opacity="1" font-family="Calibri,Calibri_MSFontService,sans-serif" font-style="normal" font-variant="normal" font-weight="400" font-stretch="normal" font-size="41" text-anchor="start" direction="ltr" writing-mode="lr-tb" unicode-bidi="normal" text-decoration="none" transform="matrix(1 0 0 1 4443.29 2836)">0,400</text></g><g clip-path="url(#clip17)"><text fill="#595959" fill-opacity="1" font-family="Calibri,Calibri_MSFontService,sans-serif" font-style="normal" font-variant="normal" font-weight="400" font-stretch="normal" font-size="41" text-anchor="start" direction="ltr" writing-mode="lr-tb" unicode-bidi="normal" text-decoration="none" transform="matrix(1 0 0 1 4443.29 2766)">0,450</text></g><g clip-path="url(#clip18)"><text fill="#595959" fill-opacity="1" font-family="Calibri,Calibri_MSFontService,sans-serif" font-style="normal" font-variant="normal" font-weight="400" font-stretch="normal" font-size="41" text-anchor="start" direction="ltr" writing-mode="lr-tb" unicode-bidi="normal" text-decoration="none" transform="matrix(1 0 0 1 4443.29 2695)">0,500</text></g><g clip-path="url(#clip19)"><text fill="#595959" fill-opacity="1" font-family="Calibri,Calibri_MSFontService,sans-serif" font-style="normal" font-variant="normal" font-weight="400" font-stretch="normal" font-size="41" text-anchor="start" direction="ltr" writing-mode="lr-tb" unicode-bidi="normal" text-decoration="none" transform="matrix(1 0 0 1 4650.29 3452)">100</text></g><g clip-path="url(#clip20)"><text fill="#595959" fill-opacity="1" font-family="Calibri,Calibri_MSFontService,sans-serif" font-style="normal" font-variant="normal" font-weight="400" font-stretch="normal" font-size="41" text-anchor="start" direction="ltr" writing-mode="lr-tb" unicode-bidi="normal" text-decoration="none" transform="matrix(1 0 0 1 4862.71 3452)">500</text></g><g clip-path="url(#clip21)"><text fill="#595959" fill-opacity="1" font-family="Calibri,Calibri_MSFontService,sans-serif" font-style="normal" font-variant="normal" font-weight="400" font-stretch="normal" font-size="41" text-anchor="start" direction="ltr" writing-mode="lr-tb" unicode-bidi="normal" text-decoration="none" transform="matrix(1 0 0 1 5064.69 3452)">1000</text></g><g clip-path="url(#clip22)"><text fill="#595959" fill-opacity="1" font-family="Calibri,Calibri_MSFontService,sans-serif" font-style="normal" font-variant="normal" font-weight="400" font-stretch="normal" font-size="41" text-anchor="start" direction="ltr" writing-mode="lr-tb" unicode-bidi="normal" text-decoration="none" transform="matrix(1 0 0 1 5277.12 3452)">5000</text></g><g clip-path="url(#clip23)"><text fill="#595959" fill-opacity="1" font-family="Calibri,Calibri_MSFontService,sans-serif" font-style="normal" font-variant="normal" font-weight="400" font-stretch="normal" font-size="41" text-anchor="start" direction="ltr" writing-mode="lr-tb" unicode-bidi="normal" text-decoration="none" transform="matrix(1 0 0 1 5479.1 3452)">10000</text></g><g clip-path="url(#clip24)"><text fill="#595959" fill-opacity="1" font-family="Calibri,Calibri_MSFontService,sans-serif" font-style="normal" font-variant="normal" font-weight="400" font-stretch="normal" font-size="41" text-anchor="start" direction="ltr" writing-mode="lr-tb" unicode-bidi="normal" text-decoration="none" transform="matrix(1 0 0 1 5691.53 3452)">50000</text></g><g clip-path="url(#clip25)"><text fill="#595959" fill-opacity="1" font-family="Calibri,Calibri_MSFontService,sans-serif" font-style="normal" font-variant="normal" font-weight="400" font-stretch="normal" font-size="41" text-anchor="start" direction="ltr" writing-mode="lr-tb" unicode-bidi="normal" text-decoration="none" transform="matrix(1 0 0 1 5893.51 3452)">100000</text></g><g clip-path="url(#clip26)"><text fill="#595959" fill-opacity="1" font-family="Calibri,Calibri_MSFontService,sans-serif" font-style="normal" font-variant="normal" font-weight="400" font-stretch="normal" font-size="41" text-anchor="start" direction="ltr" writing-mode="lr-tb" unicode-bidi="normal" text-decoration="none" transform="matrix(1 0 0 1 6105.93 3452)">200000</text></g><g clip-path="url(#clip27)"><text fill="#595959" fill-opacity="1" font-family="Calibri,Calibri_MSFontService,sans-serif" font-style="normal" font-variant="normal" font-weight="400" font-stretch="normal" font-size="46" text-anchor="start" direction="ltr" writing-mode="lr-tb" unicode-bidi="normal" text-decoration="none" transform="matrix(6.12323e-17 -1 1 6.12323e-17 4394.73 3403)">Tempo de execução em segundos</text></g><g clip-path="url(#clip28)"><text fill="#595959" fill-opacity="1" font-family="Calibri,Calibri_MSFontService,sans-serif" font-style="normal" font-variant="normal" font-weight="400" font-stretch="normal" font-size="46" text-anchor="start" direction="ltr" writing-mode="lr-tb" unicode-bidi="normal" text-decoration="none" transform="matrix(1 0 0 1 5125.06 3541)">Tamanho do arquivo de entrada</text></g><g clip-path="url(#clip29)"><text fill="#595959" fill-opacity="1" font-family="Calibri,Calibri_MSFontService,sans-serif" font-style="normal" font-variant="normal" font-weight="700" font-stretch="normal" font-size="64" text-anchor="start" direction="ltr" writing-mode="lr-tb" unicode-bidi="normal" text-decoration="none" transform="matrix(1 0 0 1 5182.65 2610)">Quick Sort</text></g><g clip-path="url(#clip30)"><rect x="4737" y="3617" width="22" height="23" fill="#FFC000" fill-opacity="1"/></g><g clip-path="url(#clip31)"><text fill="#595959" fill-opacity="1" font-family="Calibri,Calibri_MSFontService,sans-serif" font-style="normal" font-variant="normal" font-weight="400" font-stretch="normal" font-size="41" text-anchor="start" direction="ltr" writing-mode="lr-tb" unicode-bidi="normal" text-decoration="none" transform="matrix(1 0 0 1 4769.09 3639)">Arquivo Decrescente</text></g><g clip-path="url(#clip32)"><rect x="5186" y="3617" width="22" height="23" fill="#70AD47" fill-opacity="1"/></g><g clip-path="url(#clip33)"><text fill="#595959" fill-opacity="1" font-family="Calibri,Calibri_MSFontService,sans-serif" font-style="normal" font-variant="normal" font-weight="400" font-stretch="normal" font-size="41" text-anchor="start" direction="ltr" writing-mode="lr-tb" unicode-bidi="normal" text-decoration="none" transform="matrix(1 0 0 1 5218.02 3639)">Arquivo Aleatório</text></g><g clip-path="url(#clip34)"><rect x="5581" y="3617" width="23" height="23" fill="#ED7D31" fill-opacity="1"/></g><g clip-path="url(#clip35)"><text fill="#595959" fill-opacity="1" font-family="Calibri,Calibri_MSFontService,sans-serif" font-style="normal" font-variant="normal" font-weight="400" font-stretch="normal" font-size="41" text-anchor="start" direction="ltr" writing-mode="lr-tb" unicode-bidi="normal" text-decoration="none" transform="matrix(1 0 0 1 5613.34 3639)">Arquivo Crescente</text></g><rect x="4316.5" y="2515.5" width="2009" height="1180" stroke="#D9D9D9" stroke-width="3.4375" stroke-linecap="butt" stroke-linejoin="round" stroke-miterlimit="10" stroke-opacity="1" fill="none"/></g></svg>