<svg width="2017" height="1187" xmlns="http://www.w3.org/2000/svg" xmlns:xlink="http://www.w3.org/1999/xlink" overflow="hidden"><defs><clipPath id="clip0"><rect x="6370" y="1310" width="2017" height="1187"/></clipPath><clipPath id="clip1"><rect x="6372" y="1315" width="2009" height="1180"/></clipPath><clipPath id="clip2"><rect x="6631" y="1485" width="1703" height="705"/></clipPath><clipPath id="clip3"><rect x="6631" y="1485" width="1703" height="705"/></clipPath><clipPath id="clip4"><rect x="6631" y="1485" width="1703" height="705"/></clipPath><clipPath id="clip5"><rect x="6372" y="1315" width="2009" height="1180"/></clipPath><clipPath id="clip6"><rect x="6372" y="1315" width="2009" height="1180"/></clipPath><clipPath id="clip7"><rect x="6372" y="1315" width="2009" height="1180"/></clipPath><clipPath id="clip8"><rect x="6372" y="1315" width="2009" height="1180"/></clipPath><clipPath id="clip9"><rect x="6372" y="1315" width="2009" height="1180"/></clipPath><clipPath id="clip10"><rect x="6372" y="1315" width="2009" height="1180"/></clipPath><clipPath id="clip11"><rect x="6372" y="1315" width="2009" height="1180"/></clipPath><clipPath id="clip12"><rect x="6372" y="1315" width="2009" height="1180"/></clipPath><clipPath id="clip13"><rect x="6372" y="1315" width="2009" height="1180"/></clipPath><clipPath id="clip14"><rect x="6372" y="1315" width="2009" height="1180"/></clipPath><clipPath id="clip15"><rect x="6372" y="1315" width="2009" height="1180"/></clipPath><clipPath id="clip16"><rect x="6372" y="1315" width="2009" height="1180"/></clipPath><clipPath id="clip17"><rect x="6372" y="1315" width="2009" height="1180"/></clipPath><clipPath id="clip18"><rect x="6372" y="1315" width="2009" height="1180"/></clipPath><clipPath id="clip19"><rect x="6372" y="1315" width="2009" height="1180"/></clipPath><clipPath id="clip20"><rect x="6372" y="1315" width="2009" height="1180"/></clipPath><clipPath id="clip21"><rect x="6372" y="1315" width="2009" height="1180"/></clipPath><clipPath id="clip22"><rect x="6372" y="1315" width="2009" height="1180"/></clipPath><clipPath id="clip23"><rect x="6372" y="1315" width="2009" height="1180"/></clipPath><clipPath id="clip24"><rect x="6372" y="1315" width="2009" height="1180"/></clipPath><clipPath id="clip25"><rect x="6372" y="1315" width="2009" height="1180"/></clipPath><clipPath id="clip26"><rect x="6372" y="1315" width="2009" height="1180"/></clipPath><clipPath id="clip27"><rect x="6372" y="1315" width="2009" height="1180"/></clipPath><clipPath id="clip28"><rect x="6372" y="1315" width="2009" height="1180"/></clipPath><clipPath id="clip29"><rect x="6372" y="1315" width="2009" height="1180"/></clipPath><clipPath id="clip30"><rect x="6372" y="1315" width="2009" height="1180"/></clipPath><clipPath id="clip31"><rect x="6372" y="1315" width="2009" height="1180"/></clipPath><clipPath id="clip32"><rect x="6372" y="1315" width="2009" height="1180"/></clipPath></defs><g clip-path="url(#clip0)" transform="translate(-6370 -1310)"><rect x="6373" y="1315" width="2009" height="1180" fill="#FFFFFF" fill-opacity="1"/><g clip-path="url(#clip1)"><path d="M6631.5 2086.57 8331.5 2086.57M6631.5 1986.57 8331.5 1986.57M6631.5 1886.56 8331.5 1886.56M6631.5 1785.56 8331.5 1785.56M6631.5 1685.56 8331.5 1685.56M6631.5 1585.55 8331.5 1585.55M6631.5 1485.5 8331.5 1485.5" stroke="#D9D9D9" stroke-width="3.4375" stroke-linecap="butt" stroke-linejoin="round" stroke-miterlimit="10" stroke-opacity="1" fill="none" fill-rule="nonzero"/></g><g clip-path="url(#clip2)"><path d="M6672.22 1927.06 6709.22 1927.06 6709.22 2187 6672.22 2187ZM6885.23 1944.06 6922.23 1944.06 6922.23 2187 6885.23 2187ZM7097.23 1942.06 7134.23 1942.06 7134.23 2187 7097.23 2187ZM7310.24 1944.06 7347.24 1944.06 7347.24 2187 7310.24 2187ZM7522.25 1921.06 7559.25 1921.06 7559.25 2187 7522.25 2187ZM7734.25 1897.06 7771.25 1897.06 7771.25 2187 7734.25 2187ZM7947.26 1855.06 7984.26 1855.06 7984.26 2187 7947.26 2187ZM8159.27 1726.06 8196.27 1726.06 8196.27 2187 8159.27 2187Z" fill="#FFC000" fill-rule="nonzero" fill-opacity="1"/></g><g clip-path="url(#clip3)"><path d="M6719.22 1975.06 6756.22 1975.06 6756.22 2187 6719.22 2187ZM6932.23 1942.06 6969.23 1942.06 6969.23 2187 6932.23 2187ZM7144.23 1946.06 7181.24 1946.06 7181.24 2187 7144.23 2187ZM7357.24 1926.06 7394.24 1926.06 7394.24 2187 7357.24 2187ZM7569.25 1905.06 7606.25 1905.06 7606.25 2187 7569.25 2187ZM7782.26 1849.06 7819.26 1849.06 7819.26 2187 7782.26 2187ZM7994.26 1776.06 8031.26 1776.06 8031.26 2187 7994.26 2187ZM8206.27 1587.05 8243.27 1587.05 8243.27 2187 8206.27 2187Z" fill="#70AD47" fill-rule="nonzero" fill-opacity="1"/></g><g clip-path="url(#clip4)"><path d="M6766.22 1959.06 6804.22 1959.06 6804.22 2187 6766.22 2187ZM6979.23 1933.06 7016.23 1933.06 7016.23 2187 6979.23 2187ZM7191.24 1928.06 7228.24 1928.06 7228.24 2187 7191.24 2187ZM7404.24 1917.06 7441.24 1917.06 7441.24 2187 7404.24 2187ZM7616.25 1913.06 7653.25 1913.06 7653.25 2187 7616.25 2187ZM7829.26 1899.06 7866.26 1899.06 7866.26 2187 7829.26 2187ZM8041.26 1822.06 8078.27 1822.06 8078.27 2187 8041.26 2187ZM8253.27 1729.06 8291.27 1729.06 8291.27 2187 8253.27 2187Z" fill="#ED7D31" fill-rule="nonzero" fill-opacity="1"/></g><g clip-path="url(#clip5)"><path d="M0 0 0.000360892 701" stroke="#4472C4" stroke-width="3.4375" stroke-linecap="butt" stroke-linejoin="round" stroke-miterlimit="10" stroke-opacity="1" fill="none" fill-rule="evenodd" transform="matrix(1 0 0 -1 6631.5 2186.5)"/></g><g clip-path="url(#clip6)"><path d="M6631.5 2186.5 8331.5 2186.5" stroke="#D9D9D9" stroke-width="3.4375" stroke-linecap="butt" stroke-linejoin="round" stroke-miterlimit="10" stroke-opacity="1" fill="none" fill-rule="evenodd"/></g><g clip-path="url(#clip7)"><path d="M6631.5 2173.5 6631.5 2199.5M6844.72 2173.5 6844.72 2199.5M7056.73 2173.5 7056.73 2199.5M7268.74 2173.5 7268.74 2199.5M7481.75 2173.5 7481.75 2199.5M7693.75 2173.5 7693.75 2199.5M7906.76 2173.5 7906.76 2199.5M8118.77 2173.5 8118.77 2199.5M8331.5 2173.5 8331.5 2199.5" stroke="#D9D9D9" stroke-width="3.4375" stroke-linecap="butt" stroke-linejoin="round" stroke-miterlimit="10" stroke-opacity="1" fill="none" fill-rule="nonzero"/></g><g clip-path="url(#clip8)"><text fill="#595959" fill-opacity="1" font-family="Calibri,Calibri_MSFontService,sans-serif" font-style="normal" font-variant="normal" font-weight="400" font-stretch="normal" font-size="41" text-anchor="start" direction="ltr" writing-mode="lr-tb" unicode-bidi="normal" text-decoration="none" transform="matrix(1 0 0 1 6499.81 2197)">0,000</text></g><g clip-path="url(#clip9)"><text fill="#595959" fill-opacity="1" font-family="Calibri,Calibri_MSFontService,sans-serif" font-style="normal" font-variant="normal" font-weight="400" font-stretch="normal" font-size="41" text-anchor="start" direction="ltr" writing-mode="lr-tb" unicode-bidi="normal" text-decoration="none" transform="matrix(1 0 0 1 6499.81 2097)">0,100</text></g><g clip-path="url(#clip10)"><text fill="#595959" fill-opacity="1" font-family="Calibri,Calibri_MSFontService,sans-serif" font-style="normal" font-variant="normal" font-weight="400" font-stretch="normal" font-size="41" text-anchor="start" direction="ltr" writing-mode="lr-tb" unicode-bidi="normal" text-decoration="none" transform="matrix(1 0 0 1 6499.81 1997)">0,200</text></g><g clip-path="url(#clip11)"><text fill="#595959" fill-opacity="1" font-family="Calibri,Calibri_MSFontService,sans-serif" font-style="normal" font-variant="normal" font-weight="400" font-stretch="normal" font-size="41" text-anchor="start" direction="ltr" writing-mode="lr-tb" unicode-bidi="normal" text-decoration="none" transform="matrix(1 0 0 1 6499.81 1897)">0,300</text></g><g clip-path="url(#clip12)"><text fill="#595959" fill-opacity="1" font-family="Calibri,Calibri_MSFontService,sans-serif" font-style="normal" font-variant="normal" font-weight="400" font-stretch="normal" font-size="41" text-anchor="start" direction="ltr" writing-mode="lr-tb" unicode-bidi="normal" text-decoration="none" transform="matrix(1 0 0 1 6499.81 1796)">0,400</text></g><g clip-path="url(#clip13)"><text fill="#595959" fill-opacity="1" font-family="Calibri,Calibri_MSFontService,sans-serif" font-style="normal" font-variant="normal" font-weight="400" font-stretch="normal" font-size="41" text-anchor="start" direction="ltr" writing-mode="lr-tb" unicode-bidi="normal" text-decoration="none" transform="matrix(1 0 0 1 6499.81 1696)">0,500</text></g><g clip-path="url(#clip14)"><text fill="#595959" fill-opacity="1" font-family="Calibri,Calibri_MSFontService,sans-serif" font-style="normal" font-variant="normal" font-weight="400" font-stretch="normal" font-size="41" text-anchor="start" direction="ltr" writing-mode="lr-tb" unicode-bidi="normal" text-decoration="none" transform="matrix(1 0 0 1 6499.81 1596)">0,600</text></g><g clip-path="url(#clip15)"><text fill="#595959" fill-opacity="1" font-family="Calibri,Calibri_MSFontService,sans-serif" font-style="normal" font-variant="normal" font-weight="400" font-stretch="normal" font-size="41" text-anchor="start" direction="ltr" writing-mode="lr-tb" unicode-bidi="normal" text-decoration="none" transform="matrix(1 0 0 1 6499.81 1496)">0,700</text></g><g clip-path="url(#clip16)"><text fill="#595959" fill-opacity="1" font-family="Calibri,Calibri_MSFontService,sans-serif" font-style="normal" font-variant="normal" font-weight="400" font-stretch="normal" font-size="41" text-anchor="start" direction="ltr" writing-mode="lr-tb" unicode-bidi="normal" text-decoration="none" transform="matrix(1 0 0 1 6706.81 2252)">100</text></g><g clip-path="url(#clip17)"><text fill="#595959" fill-opacity="1" font-family="Calibri,Calibri_MSFontService,sans-serif" font-style="normal" font-variant="normal" font-weight="400" font-stretch="normal" font-size="41" text-anchor="start" direction="ltr" writing-mode="lr-tb" unicode-bidi="normal" text-decoration="none" transform="matrix(1 0 0 1 6919.24 2252)">500</text></g><g clip-path="url(#clip18)"><text fill="#595959" fill-opacity="1" font-family="Calibri,Calibri_MSFontService,sans-serif" font-style="normal" font-variant="normal" font-weight="400" font-stretch="normal" font-size="41" text-anchor="start" direction="ltr" writing-mode="lr-tb" unicode-bidi="normal" text-decoration="none" transform="matrix(1 0 0 1 7121.21 2252)">1000</text></g><g clip-path="url(#clip19)"><text fill="#595959" fill-opacity="1" font-family="Calibri,Calibri_MSFontService,sans-serif" font-style="normal" font-variant="normal" font-weight="400" font-stretch="normal" font-size="41" text-anchor="start" direction="ltr" writing-mode="lr-tb" unicode-bidi="normal" text-decoration="none" transform="matrix(1 0 0 1 7333.64 2252)">5000</text></g><g clip-path="url(#clip20)"><text fill="#595959" fill-opacity="1" font-family="Calibri,Calibri_MSFontService,sans-serif" font-style="normal" font-variant="normal" font-weight="400" font-stretch="normal" font-size="41" text-anchor="start" direction="ltr" writing-mode="lr-tb" unicode-bidi="normal" text-decoration="none" transform="matrix(1 0 0 1 7535.62 2252)">10000</text></g><g clip-path="url(#clip21)"><text fill="#595959" fill-opacity="1" font-family="Calibri,Calibri_MSFontService,sans-serif" font-style="normal" font-variant="normal" font-weight="400" font-stretch="normal" font-size="41" text-anchor="start" direction="ltr" writing-mode="lr-tb" unicode-bidi="normal" text-decoration="none" transform="matrix(1 0 0 1 7748.05 2252)">50000</text></g><g clip-path="url(#clip22)"><text fill="#595959" fill-opacity="1" font-family="Calibri,Calibri_MSFontService,sans-serif" font-style="normal" font-variant="normal" font-weight="400" font-stretch="normal" font-size="41" text-anchor="start" direction="ltr" writing-mode="lr-tb" unicode-bidi="normal" text-decoration="none" transform="matrix(1 0 0 1 7950.03 2252)">100000</text></g><g clip-path="url(#clip23)"><text fill="#595959" fill-opacity="1" font-family="Calibri,Calibri_MSFontService,sans-serif" font-style="normal" font-variant="normal" font-weight="400" font-stretch="normal" font-size="41" text-anchor="start" direction="ltr" writing-mode="lr-tb" unicode-bidi="normal" text-decoration="none" transform="matrix(1 0 0 1 8162.46 2252)">200000</text></g><g clip-path="url(#clip24)"><text fill="#595959" fill-opacity="1" font-family="Calibri,Calibri_MSFontService,sans-serif" font-style="normal" font-variant="normal" font-weight="400" font-stretch="normal" font-size="46" text-anchor="start" direction="ltr" writing-mode="lr-tb" unicode-bidi="normal" text-decoration="none" transform="matrix(6.12323e-17 -1 1 6.12323e-17 6451.25 2203)">Tempo de execução em segundos</text></g><g clip-path="url(#clip25)"><text fill="#595959" fill-opacity="1" font-family="Calibri,Calibri_MSFontService,sans-serif" font-style="normal" font-variant="normal" font-weight="400" font-stretch="normal" font-size="46" text-anchor="start" direction="ltr" writing-mode="lr-tb" unicode-bidi="normal" text-decoration="none" transform="matrix(1 0 0 1 7181.58 2342)">Tamanho do arquivo de entrada</text></g><g clip-path="url(#clip26)"><text fill="#595959" fill-opacity="1" font-family="Calibri,Calibri_MSFontService,sans-serif" font-style="normal" font-variant="normal" font-weight="700" font-stretch="normal" font-size="64" text-anchor="start" direction="ltr" writing-mode="lr-tb" unicode-bidi="normal" text-decoration="none" transform="matrix(1 0 0 1 7313 1411)">Shell</text></g><g clip-path="url(#clip27)"><rect x="6793" y="2418" width="23" height="22" fill="#FFC000" fill-opacity="1"/></g><g clip-path="url(#clip28)"><text fill="#595959" fill-opacity="1" font-family="Calibri,Calibri_MSFontService,sans-serif" font-style="normal" font-variant="normal" font-weight="400" font-stretch="normal" font-size="41" text-anchor="start" direction="ltr" writing-mode="lr-tb" unicode-bidi="normal" text-decoration="none" transform="matrix(1 0 0 1 6825.61 2440)">Arquivo Decrescente</text></g><g clip-path="url(#clip29)"><rect x="7242" y="2418" width="23" height="22" fill="#70AD47" fill-opacity="1"/></g><g clip-path="url(#clip30)"><text fill="#595959" fill-opacity="1" font-family="Calibri,Calibri_MSFontService,sans-serif" font-style="normal" font-variant="normal" font-weight="400" font-stretch="normal" font-size="41" text-anchor="start" direction="ltr" writing-mode="lr-tb" unicode-bidi="normal" text-decoration="none" transform="matrix(1 0 0 1 7274.54 2440)">Arquivo Aleatório</text></g><g clip-path="url(#clip31)"><rect x="7638" y="2418" width="22" height="22" fill="#ED7D31" fill-opacity="1"/></g><g clip-path="url(#clip32)"><text fill="#595959" fill-opacity="1" font-family="Calibri,Calibri_MSFontService,sans-serif" font-style="normal" font-variant="normal" font-weight="400" font-stretch="normal" font-size="41" text-anchor="start" direction="ltr" writing-mode="lr-tb" unicode-bidi="normal" text-decoration="none" transform="matrix(1 0 0 1 7669.86 2440)">Arquivo Crescente</text></g><rect x="6373.5" y="1315.5" width="2009" height="1180" stroke="#D9D9D9" stroke-width="3.4375" stroke-linecap="butt" stroke-linejoin="round" stroke-miterlimit="10" stroke-opacity="1" fill="none"/></g></svg>