<svg width="2017" height="1187" xmlns="http://www.w3.org/2000/svg" xmlns:xlink="http://www.w3.org/1999/xlink" overflow="hidden"><defs><clipPath id="clip0"><rect x="6375" y="2516" width="2017" height="1187"/></clipPath><clipPath id="clip1"><rect x="6376" y="2518" width="2009" height="1180"/></clipPath><clipPath id="clip2"><rect x="6583" y="2688" width="1755" height="705"/></clipPath><clipPath id="clip3"><rect x="6583" y="2688" width="1755" height="705"/></clipPath><clipPath id="clip4"><rect x="6583" y="2688" width="1755" height="705"/></clipPath><clipPath id="clip5"><rect x="6583" y="2688" width="1755" height="705"/></clipPath><clipPath id="clip6"><rect x="6583" y="2688" width="1755" height="705"/></clipPath><clipPath id="clip7"><rect x="6376" y="2518" width="2009" height="1180"/></clipPath><clipPath id="clip8"><rect x="6376" y="2518" width="2009" height="1180"/></clipPath><clipPath id="clip9"><rect x="6376" y="2518" width="2009" height="1180"/></clipPath><clipPath id="clip10"><rect x="6376" y="2518" width="2009" height="1180"/></clipPath><clipPath id="clip11"><rect x="6376" y="2518" width="2009" height="1180"/></clipPath><clipPath id="clip12"><rect x="6376" y="2518" width="2009" height="1180"/></clipPath><clipPath id="clip13"><rect x="6376" y="2518" width="2009" height="1180"/></clipPath><clipPath id="clip14"><rect x="6376" y="2518" width="2009" height="1180"/></clipPath><clipPath id="clip15"><rect x="6376" y="2518" width="2009" height="1180"/></clipPath><clipPath id="clip16"><rect x="6376" y="2518" width="2009" height="1180"/></clipPath><clipPath id="clip17"><rect x="6376" y="2518" width="2009" height="1180"/></clipPath><clipPath id="clip18"><rect x="6376" y="2518" width="2009" height="1180"/></clipPath><clipPath id="clip19"><rect x="6376" y="2518" width="2009" height="1180"/></clipPath><clipPath id="clip20"><rect x="6376" y="2518" width="2009" height="1180"/></clipPath><clipPath id="clip21"><rect x="6376" y="2518" width="2009" height="1180"/></clipPath><clipPath id="clip22"><rect x="6376" y="2518" width="2009" height="1180"/></clipPath><clipPath id="clip23"><rect x="6376" y="2518" width="2009" height="1180"/></clipPath><clipPath id="clip24"><rect x="6376" y="2518" width="2009" height="1180"/></clipPath><clipPath id="clip25"><rect x="6376" y="2518" width="2009" height="1180"/></clipPath><clipPath id="clip26"><rect x="6376" y="2518" width="2009" height="1180"/></clipPath><clipPath id="clip27"><rect x="6376" y="2518" width="2009" height="1180"/></clipPath><clipPath id="clip28"><rect x="6376" y="2518" width="2009" height="1180"/></clipPath><clipPath id="clip29"><rect x="6376" y="2518" width="2009" height="1180"/></clipPath><clipPath id="clip30"><rect x="6376" y="2518" width="2009" height="1180"/></clipPath><clipPath id="clip31"><rect x="6376" y="2518" width="2009" height="1180"/></clipPath><clipPath id="clip32"><rect x="6376" y="2518" width="2009" height="1180"/></clipPath></defs><g clip-path="url(#clip0)" transform="translate(-6375 -2516)"><rect x="6377" y="2519" width="2009" height="1180" fill="#FFFFFF" fill-opacity="1"/><g clip-path="url(#clip1)"><path d="M6583.5 3273.61 8335.5 3273.61M6583.5 3156.6 8335.5 3156.6M6583.5 3039.6 8335.5 3039.6M6583.5 2922.6 8335.5 2922.6M6583.5 2805.59 8335.5 2805.59M6583.5 2688.5 8335.5 2688.5" stroke="#D9D9D9" stroke-width="3.4375" stroke-linecap="butt" stroke-linejoin="round" stroke-miterlimit="10" stroke-opacity="1" fill="none" fill-rule="nonzero"/></g><g clip-path="url(#clip2)"><path d="M6661.22 3387.11 6732.22 3387.11 6732.22 3390 6661.22 3390ZM7245.24 3075.1 7315.24 3075.1 7315.24 3390 7245.24 3390ZM7829.26 2791.09 7899.26 2791.09 7899.26 3390 7829.26 3390Z" fill="#ED7D31" fill-rule="nonzero" fill-opacity="1"/></g><g clip-path="url(#clip3)"><path d="M6751.22 3387.11 6821.22 3387.11 6821.22 3390 6751.22 3390ZM7334.24 3387.11 7405.24 3387.11 7405.24 3390 7334.24 3390ZM7918.26 3387.11 7989.26 3387.11 7989.26 3390 7918.26 3390Z" fill="#FFC000" fill-rule="nonzero" fill-opacity="1"/></g><g clip-path="url(#clip4)"><path d="M6840.22 3387.11 6911.23 3387.11 6911.23 3390 6840.22 3390ZM7424.24 3387.11 7495.25 3387.11 7495.25 3390 7424.24 3390ZM8008.26 3387.11 8078.27 3387.11 8078.27 3390 8008.26 3390Z" fill="#70AD47" fill-rule="nonzero" fill-opacity="1"/></g><g clip-path="url(#clip5)"><path d="M6930.23 3387.11 7000.23 3387.11 7000.23 3390 6930.23 3390ZM7514.25 3387.11 7584.25 3387.11 7584.25 3390 7514.25 3390ZM8098.27 3387.11 8168.27 3387.11 8168.27 3390 8098.27 3390Z" fill="#9E480E" fill-rule="nonzero" fill-opacity="1"/></g><g clip-path="url(#clip6)"><path d="M7020.23 3387.11 7090.23 3387.11 7090.23 3390 7020.23 3390ZM7603.25 3387.11 7674.25 3387.11 7674.25 3390 7603.25 3390ZM8187.27 3387.11 8258.27 3387.11 8258.27 3390 8187.27 3390Z" fill="#997300" fill-rule="nonzero" fill-opacity="1"/></g><g clip-path="url(#clip7)"><path d="M0 0 0.000360892 702" stroke="#4472C4" stroke-width="3.4375" stroke-linecap="butt" stroke-linejoin="round" stroke-miterlimit="10" stroke-opacity="1" fill="none" fill-rule="evenodd" transform="matrix(1 0 0 -1 6583.5 3390.5)"/></g><g clip-path="url(#clip8)"><path d="M6583.5 3390.5 8335.5 3390.5" stroke="#D9D9D9" stroke-width="3.4375" stroke-linecap="butt" stroke-linejoin="round" stroke-miterlimit="10" stroke-opacity="1" fill="none" fill-rule="evenodd"/></g><g clip-path="url(#clip9)"><path d="M6583.5 3377.5 6583.5 3403.5M7167.74 3377.5 7167.74 3403.5M7751.75 3377.5 7751.75 3403.5M8335.5 3377.5 8335.5 3403.5" stroke="#D9D9D9" stroke-width="3.4375" stroke-linecap="butt" stroke-linejoin="round" stroke-miterlimit="10" stroke-opacity="1" fill="none" fill-rule="nonzero"/></g><g clip-path="url(#clip10)"><text fill="#595959" fill-opacity="1" font-family="Calibri,Calibri_MSFontService,sans-serif" font-style="normal" font-variant="normal" font-weight="400" font-stretch="normal" font-size="41" text-anchor="start" direction="ltr" writing-mode="lr-tb" unicode-bidi="normal" text-decoration="none" transform="matrix(1 0 0 1 6524.69 3401)">0</text></g><g clip-path="url(#clip11)"><text fill="#595959" fill-opacity="1" font-family="Calibri,Calibri_MSFontService,sans-serif" font-style="normal" font-variant="normal" font-weight="400" font-stretch="normal" font-size="41" text-anchor="start" direction="ltr" writing-mode="lr-tb" unicode-bidi="normal" text-decoration="none" transform="matrix(1 0 0 1 6503.79 3284)">10</text></g><g clip-path="url(#clip12)"><text fill="#595959" fill-opacity="1" font-family="Calibri,Calibri_MSFontService,sans-serif" font-style="normal" font-variant="normal" font-weight="400" font-stretch="normal" font-size="41" text-anchor="start" direction="ltr" writing-mode="lr-tb" unicode-bidi="normal" text-decoration="none" transform="matrix(1 0 0 1 6503.79 3167)">20</text></g><g clip-path="url(#clip13)"><text fill="#595959" fill-opacity="1" font-family="Calibri,Calibri_MSFontService,sans-serif" font-style="normal" font-variant="normal" font-weight="400" font-stretch="normal" font-size="41" text-anchor="start" direction="ltr" writing-mode="lr-tb" unicode-bidi="normal" text-decoration="none" transform="matrix(1 0 0 1 6503.79 3050)">30</text></g><g clip-path="url(#clip14)"><text fill="#595959" fill-opacity="1" font-family="Calibri,Calibri_MSFontService,sans-serif" font-style="normal" font-variant="normal" font-weight="400" font-stretch="normal" font-size="41" text-anchor="start" direction="ltr" writing-mode="lr-tb" unicode-bidi="normal" text-decoration="none" transform="matrix(1 0 0 1 6503.79 2933)">40</text></g><g clip-path="url(#clip15)"><text fill="#595959" fill-opacity="1" font-family="Calibri,Calibri_MSFontService,sans-serif" font-style="normal" font-variant="normal" font-weight="400" font-stretch="normal" font-size="41" text-anchor="start" direction="ltr" writing-mode="lr-tb" unicode-bidi="normal" text-decoration="none" transform="matrix(1 0 0 1 6503.79 2816)">50</text></g><g clip-path="url(#clip16)"><text fill="#595959" fill-opacity="1" font-family="Calibri,Calibri_MSFontService,sans-serif" font-style="normal" font-variant="normal" font-weight="400" font-stretch="normal" font-size="41" text-anchor="start" direction="ltr" writing-mode="lr-tb" unicode-bidi="normal" text-decoration="none" transform="matrix(1 0 0 1 6503.79 2699)">60</text></g><g clip-path="url(#clip17)"><text fill="#595959" fill-opacity="1" font-family="Calibri,Calibri_MSFontService,sans-serif" font-style="normal" font-variant="normal" font-weight="400" font-stretch="normal" font-size="41" text-anchor="start" direction="ltr" writing-mode="lr-tb" unicode-bidi="normal" text-decoration="none" transform="matrix(1 0 0 1 6701.16 3456)">Arquivo Decrescente</text></g><g clip-path="url(#clip18)"><text fill="#595959" fill-opacity="1" font-family="Calibri,Calibri_MSFontService,sans-serif" font-style="normal" font-variant="normal" font-weight="400" font-stretch="normal" font-size="41" text-anchor="start" direction="ltr" writing-mode="lr-tb" unicode-bidi="normal" text-decoration="none" transform="matrix(1 0 0 1 7311.8 3456)">Arquivo Aleatório</text></g><g clip-path="url(#clip19)"><text fill="#595959" fill-opacity="1" font-family="Calibri,Calibri_MSFontService,sans-serif" font-style="normal" font-variant="normal" font-weight="400" font-stretch="normal" font-size="41" text-anchor="start" direction="ltr" writing-mode="lr-tb" unicode-bidi="normal" text-decoration="none" transform="matrix(1 0 0 1 7890.1 3456)">Arquico Crescente</text></g><g clip-path="url(#clip20)"><text fill="#595959" fill-opacity="1" font-family="Calibri,Calibri_MSFontService,sans-serif" font-style="normal" font-variant="normal" font-weight="400" font-stretch="normal" font-size="46" text-anchor="start" direction="ltr" writing-mode="lr-tb" unicode-bidi="normal" text-decoration="none" transform="matrix(6.12323e-17 -1 1 6.12323e-17 6455.24 3407)">Tempo de execução em segundos</text></g><g clip-path="url(#clip21)"><text fill="#595959" fill-opacity="1" font-family="Calibri,Calibri_MSFontService,sans-serif" font-style="normal" font-variant="normal" font-weight="400" font-stretch="normal" font-size="46" text-anchor="start" direction="ltr" writing-mode="lr-tb" unicode-bidi="normal" text-decoration="none" transform="matrix(1 0 0 1 7185.57 3545)">Ordenação dos arquivos de entrada</text></g><g clip-path="url(#clip22)"><text fill="#595959" fill-opacity="1" font-family="Calibri,Calibri_MSFontService,sans-serif" font-style="normal" font-variant="normal" font-weight="700" font-stretch="normal" font-size="64" text-anchor="start" direction="ltr" writing-mode="lr-tb" unicode-bidi="normal" text-decoration="none" transform="matrix(1 0 0 1 7197.66 2614)">Tempo Médio</text></g><g clip-path="url(#clip23)"><rect x="6692" y="3621" width="22" height="23" fill="#ED7D31" fill-opacity="1"/></g><g clip-path="url(#clip24)"><text fill="#595959" fill-opacity="1" font-family="Calibri,Calibri_MSFontService,sans-serif" font-style="normal" font-variant="normal" font-weight="400" font-stretch="normal" font-size="41" text-anchor="start" direction="ltr" writing-mode="lr-tb" unicode-bidi="normal" text-decoration="none" transform="matrix(1 0 0 1 6724.06 3643)">Insertion Sort</text></g><g clip-path="url(#clip25)"><rect x="7007" y="3621" width="22" height="23" fill="#FFC000" fill-opacity="1"/></g><g clip-path="url(#clip26)"><text fill="#595959" fill-opacity="1" font-family="Calibri,Calibri_MSFontService,sans-serif" font-style="normal" font-variant="normal" font-weight="400" font-stretch="normal" font-size="41" text-anchor="start" direction="ltr" writing-mode="lr-tb" unicode-bidi="normal" text-decoration="none" transform="matrix(1 0 0 1 7038.87 3643)">Heap Sort</text></g><g clip-path="url(#clip27)"><rect x="7259" y="3621" width="23" height="23" fill="#70AD47" fill-opacity="1"/></g><g clip-path="url(#clip28)"><text fill="#595959" fill-opacity="1" font-family="Calibri,Calibri_MSFontService,sans-serif" font-style="normal" font-variant="normal" font-weight="400" font-stretch="normal" font-size="41" text-anchor="start" direction="ltr" writing-mode="lr-tb" unicode-bidi="normal" text-decoration="none" transform="matrix(1 0 0 1 7291.48 3643)">Quick Sort</text></g><g clip-path="url(#clip29)"><rect x="7519" y="3621" width="23" height="23" fill="#9E480E" fill-opacity="1"/></g><g clip-path="url(#clip30)"><text fill="#595959" fill-opacity="1" font-family="Calibri,Calibri_MSFontService,sans-serif" font-style="normal" font-variant="normal" font-weight="400" font-stretch="normal" font-size="41" text-anchor="start" direction="ltr" writing-mode="lr-tb" unicode-bidi="normal" text-decoration="none" transform="matrix(1 0 0 1 7551.52 3643)">Quick Sort Melhorado</text></g><g clip-path="url(#clip31)"><rect x="7975" y="3621" width="23" height="23" fill="#997300" fill-opacity="1"/></g><g clip-path="url(#clip32)"><text fill="#595959" fill-opacity="1" font-family="Calibri,Calibri_MSFontService,sans-serif" font-style="normal" font-variant="normal" font-weight="400" font-stretch="normal" font-size="41" text-anchor="start" direction="ltr" writing-mode="lr-tb" unicode-bidi="normal" text-decoration="none" transform="matrix(1 0 0 1 8007.16 3643)">Shell</text></g><rect x="6377.5" y="2519.5" width="2009" height="1180" stroke="#D9D9D9" stroke-width="3.4375" stroke-linecap="butt" stroke-linejoin="round" stroke-miterlimit="10" stroke-opacity="1" fill="none"/></g></svg>