<svg width="2017" height="1188" xmlns="http://www.w3.org/2000/svg" xmlns:xlink="http://www.w3.org/1999/xlink" overflow="hidden"><defs><clipPath id="clip0"><rect x="6352" y="3817" width="2017" height="1188"/></clipPath><clipPath id="clip1"><rect x="6356" y="3822" width="2009" height="1180"/></clipPath><clipPath id="clip2"><rect x="6616" y="3992" width="1702" height="705"/></clipPath><clipPath id="clip3"><rect x="6616" y="3992" width="1702" height="705"/></clipPath><clipPath id="clip4"><rect x="6616" y="3992" width="1702" height="705"/></clipPath><clipPath id="clip5"><rect x="6616" y="3992" width="1702" height="705"/></clipPath><clipPath id="clip6"><rect x="6356" y="3822" width="2009" height="1180"/></clipPath><clipPath id="clip7"><rect x="6356" y="3822" width="2009" height="1180"/></clipPath><clipPath id="clip8"><rect x="6356" y="3822" width="2009" height="1180"/></clipPath><clipPath id="clip9"><rect x="6356" y="3822" width="2009" height="1180"/></clipPath><clipPath id="clip10"><rect x="6356" y="3822" width="2009" height="1180"/></clipPath><clipPath id="clip11"><rect x="6356" y="3822" width="2009" height="1180"/></clipPath><clipPath id="clip12"><rect x="6356" y="3822" width="2009" height="1180"/></clipPath><clipPath id="clip13"><rect x="6356" y="3822" width="2009" height="1180"/></clipPath><clipPath id="clip14"><rect x="6356" y="3822" width="2009" height="1180"/></clipPath><clipPath id="clip15"><rect x="6356" y="3822" width="2009" height="1180"/></clipPath><clipPath id="clip16"><rect x="6356" y="3822" width="2009" height="1180"/></clipPath><clipPath id="clip17"><rect x="6356" y="3822" width="2009" height="1180"/></clipPath><clipPath id="clip18"><rect x="6356" y="3822" width="2009" height="1180"/></clipPath><clipPath id="clip19"><rect x="6356" y="3822" width="2009" height="1180"/></clipPath><clipPath id="clip20"><rect x="6356" y="3822" width="2009" height="1180"/></clipPath><clipPath id="clip21"><rect x="6356" y="3822" width="2009" height="1180"/></clipPath><clipPath id="clip22"><rect x="6356" y="3822" width="2009" height="1180"/></clipPath><clipPath id="clip23"><rect x="6356" y="3822" width="2009" height="1180"/></clipPath><clipPath id="clip24"><rect x="6356" y="3822" width="2009" height="1180"/></clipPath><clipPath id="clip25"><rect x="6356" y="3822" width="2009" height="1180"/></clipPath><clipPath id="clip26"><rect x="6356" y="3822" width="2009" height="1180"/></clipPath><clipPath id="clip27"><rect x="6356" y="3822" width="2009" height="1180"/></clipPath><clipPath id="clip28"><rect x="6356" y="3822" width="2009" height="1180"/></clipPath><clipPath id="clip29"><rect x="6356" y="3822" width="2009" height="1180"/></clipPath><clipPath id="clip30"><rect x="6356" y="3822" width="2009" height="1180"/></clipPath><clipPath id="clip31"><rect x="6356" y="3822" width="2009" height="1180"/></clipPath></defs><g clip-path="url(#clip0)" transform="translate(-6352 -3817)"><rect x="6357" y="3822" width="2009" height="1180" fill="#FFFFFF" fill-opacity="1"/><g clip-path="url(#clip1)"><path d="M6616.5 4593.65 8315.5 4593.65M6616.5 4493.65 8315.5 4493.65M6616.5 4392.64 8315.5 4392.64M6616.5 4292.64 8315.5 4292.64M6616.5 4192.64 8315.5 4192.64M6616.5 4092.63 8315.5 4092.63M6616.5 3992.5 8315.5 3992.5" stroke="#D9D9D9" stroke-width="3.4375" stroke-linecap="butt" stroke-linejoin="round" stroke-miterlimit="10" stroke-opacity="1" fill="none" fill-rule="nonzero"/></g><g clip-path="url(#clip2)"><path d="M6704.22 4106.13 6785.22 4106.13 6785.22 4694 6704.22 4694ZM7271.24 4078.13 7352.24 4078.13 7352.24 4694 7271.24 4694ZM7837.26 4077.13 7918.26 4077.13 7918.26 4694 7837.26 4694Z" fill="#FFC000" fill-rule="nonzero" fill-opacity="1"/></g><g clip-path="url(#clip3)"><path d="M6807.22 4165.14 6888.23 4165.14 6888.23 4694 6807.22 4694ZM7374.24 4130.14 7455.24 4130.14 7455.24 4694 7374.24 4694ZM7940.26 4151.14 8021.26 4151.14 8021.26 4694 7940.26 4694Z" fill="#70AD47" fill-rule="nonzero" fill-opacity="1"/></g><g clip-path="url(#clip4)"><path d="M6910.23 4128.14 6991.23 4128.14 6991.23 4694 6910.23 4694ZM7476.25 4175.14 7557.25 4175.14 7557.25 4694 7476.25 4694ZM8043.26 4155.14 8124.27 4155.14 8124.27 4694 8043.26 4694Z" fill="#9E480E" fill-rule="nonzero" fill-opacity="1"/></g><g clip-path="url(#clip5)"><path d="M7013.23 4109.13 7094.23 4109.13 7094.23 4694 7013.23 4694ZM7579.25 4046.13 7660.25 4046.13 7660.25 4694 7579.25 4694ZM8146.27 4095.13 8227.27 4095.13 8227.27 4694 8146.27 4694Z" fill="#997300" fill-rule="nonzero" fill-opacity="1"/></g><g clip-path="url(#clip6)"><path d="M0 0 0.000360892 701" stroke="#4472C4" stroke-width="3.4375" stroke-linecap="butt" stroke-linejoin="round" stroke-miterlimit="10" stroke-opacity="1" fill="none" fill-rule="evenodd" transform="matrix(1 0 0 -1 6616.5 4693.5)"/></g><g clip-path="url(#clip7)"><path d="M6616.5 4693.5 8315.5 4693.5" stroke="#D9D9D9" stroke-width="3.4375" stroke-linecap="butt" stroke-linejoin="round" stroke-miterlimit="10" stroke-opacity="1" fill="none" fill-rule="evenodd"/></g><g clip-path="url(#clip8)"><path d="M6616.5 4680.5 6616.5 4706.5M7182.74 4680.5 7182.74 4706.5M7748.75 4680.5 7748.75 4706.5M8315.5 4680.5 8315.5 4706.5" stroke="#D9D9D9" stroke-width="3.4375" stroke-linecap="butt" stroke-linejoin="round" stroke-miterlimit="10" stroke-opacity="1" fill="none" fill-rule="nonzero"/></g><g clip-path="url(#clip9)"><text fill="#595959" fill-opacity="1" font-family="Calibri,Calibri_MSFontService,sans-serif" font-style="normal" font-variant="normal" font-weight="400" font-stretch="normal" font-size="41" text-anchor="start" direction="ltr" writing-mode="lr-tb" unicode-bidi="normal" text-decoration="none" transform="matrix(1 0 0 1 6483.87 4704)">0,000</text></g><g clip-path="url(#clip10)"><text fill="#595959" fill-opacity="1" font-family="Calibri,Calibri_MSFontService,sans-serif" font-style="normal" font-variant="normal" font-weight="400" font-stretch="normal" font-size="41" text-anchor="start" direction="ltr" writing-mode="lr-tb" unicode-bidi="normal" text-decoration="none" transform="matrix(1 0 0 1 6483.87 4604)">0,050</text></g><g clip-path="url(#clip11)"><text fill="#595959" fill-opacity="1" font-family="Calibri,Calibri_MSFontService,sans-serif" font-style="normal" font-variant="normal" font-weight="400" font-stretch="normal" font-size="41" text-anchor="start" direction="ltr" writing-mode="lr-tb" unicode-bidi="normal" text-decoration="none" transform="matrix(1 0 0 1 6483.87 4504)">0,100</text></g><g clip-path="url(#clip12)"><text fill="#595959" fill-opacity="1" font-family="Calibri,Calibri_MSFontService,sans-serif" font-style="normal" font-variant="normal" font-weight="400" font-stretch="normal" font-size="41" text-anchor="start" direction="ltr" writing-mode="lr-tb" unicode-bidi="normal" text-decoration="none" transform="matrix(1 0 0 1 6483.87 4404)">0,150</text></g><g clip-path="url(#clip13)"><text fill="#595959" fill-opacity="1" font-family="Calibri,Calibri_MSFontService,sans-serif" font-style="normal" font-variant="normal" font-weight="400" font-stretch="normal" font-size="41" text-anchor="start" direction="ltr" writing-mode="lr-tb" unicode-bidi="normal" text-decoration="none" transform="matrix(1 0 0 1 6483.87 4303)">0,200</text></g><g clip-path="url(#clip14)"><text fill="#595959" fill-opacity="1" font-family="Calibri,Calibri_MSFontService,sans-serif" font-style="normal" font-variant="normal" font-weight="400" font-stretch="normal" font-size="41" text-anchor="start" direction="ltr" writing-mode="lr-tb" unicode-bidi="normal" text-decoration="none" transform="matrix(1 0 0 1 6483.87 4203)">0,250</text></g><g clip-path="url(#clip15)"><text fill="#595959" fill-opacity="1" font-family="Calibri,Calibri_MSFontService,sans-serif" font-style="normal" font-variant="normal" font-weight="400" font-stretch="normal" font-size="41" text-anchor="start" direction="ltr" writing-mode="lr-tb" unicode-bidi="normal" text-decoration="none" transform="matrix(1 0 0 1 6483.87 4103)">0,300</text></g><g clip-path="url(#clip16)"><text fill="#595959" fill-opacity="1" font-family="Calibri,Calibri_MSFontService,sans-serif" font-style="normal" font-variant="normal" font-weight="400" font-stretch="normal" font-size="41" text-anchor="start" direction="ltr" writing-mode="lr-tb" unicode-bidi="normal" text-decoration="none" transform="matrix(1 0 0 1 6483.87 4003)">0,350</text></g><g clip-path="url(#clip17)"><text fill="#595959" fill-opacity="1" font-family="Calibri,Calibri_MSFontService,sans-serif" font-style="normal" font-variant="normal" font-weight="400" font-stretch="normal" font-size="41" text-anchor="start" direction="ltr" writing-mode="lr-tb" unicode-bidi="normal" text-decoration="none" transform="matrix(1 0 0 1 6724.64 4759)">Arquivo Decrescente</text></g><g clip-path="url(#clip18)"><text fill="#595959" fill-opacity="1" font-family="Calibri,Calibri_MSFontService,sans-serif" font-style="normal" font-variant="normal" font-weight="400" font-stretch="normal" font-size="41" text-anchor="start" direction="ltr" writing-mode="lr-tb" unicode-bidi="normal" text-decoration="none" transform="matrix(1 0 0 1 7317.91 4759)">Arquivo Aleatório</text></g><g clip-path="url(#clip19)"><text fill="#595959" fill-opacity="1" font-family="Calibri,Calibri_MSFontService,sans-serif" font-style="normal" font-variant="normal" font-weight="400" font-stretch="normal" font-size="41" text-anchor="start" direction="ltr" writing-mode="lr-tb" unicode-bidi="normal" text-decoration="none" transform="matrix(1 0 0 1 7878.85 4759)">Arquico Crescente</text></g><g clip-path="url(#clip20)"><text fill="#595959" fill-opacity="1" font-family="Calibri,Calibri_MSFontService,sans-serif" font-style="normal" font-variant="normal" font-weight="400" font-stretch="normal" font-size="46" text-anchor="start" direction="ltr" writing-mode="lr-tb" unicode-bidi="normal" text-decoration="none" transform="matrix(6.12323e-17 -1 1 6.12323e-17 6435.31 4710)">Tempo de execução em segundos</text></g><g clip-path="url(#clip21)"><text fill="#595959" fill-opacity="1" font-family="Calibri,Calibri_MSFontService,sans-serif" font-style="normal" font-variant="normal" font-weight="400" font-stretch="normal" font-size="46" text-anchor="start" direction="ltr" writing-mode="lr-tb" unicode-bidi="normal" text-decoration="none" transform="matrix(1 0 0 1 7165.64 4849)">Ordenação dos arquivos de entrada</text></g><g clip-path="url(#clip22)"><text fill="#595959" fill-opacity="1" font-family="Calibri,Calibri_MSFontService,sans-serif" font-style="normal" font-variant="normal" font-weight="700" font-stretch="normal" font-size="64" text-anchor="start" direction="ltr" writing-mode="lr-tb" unicode-bidi="normal" text-decoration="none" transform="matrix(1 0 0 1 6743.68 3917)">Tempo Médio </text></g><g clip-path="url(#clip23)"><text fill="#595959" fill-opacity="1" font-family="Calibri,Calibri_MSFontService,sans-serif" font-style="normal" font-variant="normal" font-weight="700" font-stretch="normal" font-size="64" text-anchor="start" direction="ltr" writing-mode="lr-tb" unicode-bidi="normal" text-decoration="none" transform="matrix(1 0 0 1 7125.45 3917)">(SEM O MÉTODO DA INSERÇÃO)</text></g><g clip-path="url(#clip24)"><rect x="6833" y="4925" width="23" height="22" fill="#FFC000" fill-opacity="1"/></g><g clip-path="url(#clip25)"><text fill="#595959" fill-opacity="1" font-family="Calibri,Calibri_MSFontService,sans-serif" font-style="normal" font-variant="normal" font-weight="400" font-stretch="normal" font-size="41" text-anchor="start" direction="ltr" writing-mode="lr-tb" unicode-bidi="normal" text-decoration="none" transform="matrix(1 0 0 1 6865.52 4946)">Heap Sort</text></g><g clip-path="url(#clip26)"><rect x="7083" y="4925" width="23" height="22" fill="#70AD47" fill-opacity="1"/></g><g clip-path="url(#clip27)"><text fill="#595959" fill-opacity="1" font-family="Calibri,Calibri_MSFontService,sans-serif" font-style="normal" font-variant="normal" font-weight="400" font-stretch="normal" font-size="41" text-anchor="start" direction="ltr" writing-mode="lr-tb" unicode-bidi="normal" text-decoration="none" transform="matrix(1 0 0 1 7115.48 4946)">Quick Sort</text></g><g clip-path="url(#clip28)"><rect x="7341" y="4925" width="22" height="22" fill="#9E480E" fill-opacity="1"/></g><g clip-path="url(#clip29)"><text fill="#595959" fill-opacity="1" font-family="Calibri,Calibri_MSFontService,sans-serif" font-style="normal" font-variant="normal" font-weight="400" font-stretch="normal" font-size="41" text-anchor="start" direction="ltr" writing-mode="lr-tb" unicode-bidi="normal" text-decoration="none" transform="matrix(1 0 0 1 7372.87 4946)">Quick Sort Melhorado</text></g><g clip-path="url(#clip30)"><rect x="7794" y="4925" width="22" height="22" fill="#997300" fill-opacity="1"/></g><g clip-path="url(#clip31)"><text fill="#595959" fill-opacity="1" font-family="Calibri,Calibri_MSFontService,sans-serif" font-style="normal" font-variant="normal" font-weight="400" font-stretch="normal" font-size="41" text-anchor="start" direction="ltr" writing-mode="lr-tb" unicode-bidi="normal" text-decoration="none" transform="matrix(1 0 0 1 7825.85 4946)">Shell</text></g><rect x="6357.5" y="3822.5" width="2009" height="1180" stroke="#D9D9D9" stroke-width="3.4375" stroke-linecap="butt" stroke-linejoin="round" stroke-miterlimit="10" stroke-opacity="1" fill="none"/></g></svg>